<svg xmlns="http://www.w3.org/2000/svg" viewBox="-61.5 274.5 230.931 239.36">
  <defs>
    <style>
      .cls-1 {
        fill: none;
      }

      .cls-1, .cls-2 {
        stroke: #ffb61e;
        stroke-miterlimit: 10;
        stroke-width: 1px;
      }

      .cls-2 {
        fill: #1b1b1b;
      }
    </style>
  </defs>
  <g id="Group_2" data-name="Group 2" transform="translate(-106 -125)">
    <g id="Ángulo_derecho" data-name="Ángulo derecho" transform="translate(44.52 399.25)">
      <g id="Plata">
        <path id="Path_1" data-name="Path 1" class="cls-1" d="M230.41,82.4V81.35h0v-.22h0V80.07h0l-.09-.28h0l-.09-.24h0v-.47l-.06-.15v-.08h0l-.12-.26h0v-.07l-.1-.2h0l-.08-.16-.07-.13h0l-.23-.41h0q-.17-.29-.35-.56h0v-.05l-.3-.43h0l-.22-.29h0l-.17-.21h0l-.21-.24h0l-.06-.07-.13-.15h0l-.09-.1-.1-.11h0l-.1-.1-.09-.09h0l-.11-.1-.08-.07L227.5,75l-.11-.1-.07-.06-.07-.06-.11-.09h-.06L226,74l-.1-.08h0l-.12-.09-.09-.06h0l-.23-.15h0l-.21-.13h-.05L100.2,1.32l-.17-.1h-.15L99.7,1h-.19L99.27.83h0L99.05.75H96.68l-.14.06h-.07l-.2.1-1.35.78.2-.1h.07l.14-.06h2.09l.16.05h.08l.24.09h0l.24.11h.08l.18.09h.09l.23.13,125,72.17.26.16h0l.25.17.09.06.17.12.1.08.15.12.11.09.14.12.11.1.14.12.11.1.14.13.1.1.14.14.09.1.16.17.07.07.22.26h0l.18.22.23.3h0l.3.43.05.08q.18.28.35.56v.07l.23.41.08.15.08.16.11.23v.08l.13.3v.08l.09.22v.1l.08.21v.09l.1.28h0l.1.31v.1l.06.21v1.02h0v1.3l-.28,97.26v1.63l-.06.17v.09a.771.771,0,0,1-.11.27h0a3.361,3.361,0,0,1-.18.33h0l-.17.24v.05l-.18.2h0l-.21.19h-.05l-.23.16,1.35-.78.24-.16h.05l.21-.19h0l.18-.2v-.05l.17-.24h0a3.366,3.366,0,0,0,.18-.33h0c0-.09.08-.18.11-.27h0v-.07l.06-.17h0v-1.58h0l.28-97.26Q230.42,82.52,230.41,82.4Z"/>
        <path id="Path_3" data-name="Path 3" class="cls-1" d="M223.99,80.28l-.24,87.31L98.2,95.11l.24-87.32Z"/>
        <g id="Group_1" data-name="Group 1">
          <path id="Path_4" data-name="Path 4" class="cls-1" d="M107.42,111.58l-.01,5.03-1.62.94.01-5.03Z"/>
          <path id="Path_5" data-name="Path 5" class="cls-1" d="M224.68,181.23v1.05l-.06.11-.05.09-.08.13-.05.08-.11.15v.06l-.2.23-.06.06-.17.17-.08.08-.11.09-.1.09-.12.09-.11.08-.13.09-.12.08-.14.09-.17.11L138.4,233l-.51.27-.14.07-.48.21h-.06l-.54.19-.39.11-.3.08-.42.09-.3.06h-.13l-.52.07h-.15l-.61.05h-2.74l-.4-.07-.41-.08h-.1l-.57-.15h-.16l-.46-.16h-.13l-.4-.17-.2-.09-.55-.29-125-72.17A3.77,3.77,0,0,1,.5,157.91v5a3.77,3.77,0,0,0,2.23,3.11l125,72.17.55.29.2.08.34.15h.19l.46.16h.27l.46.12h.1l.23.05h.19l.4.07h3.5l.52-.07h.19l.24-.05.43.01.3-.08.39-.11h.08l.46-.16h.06l.48-.21.14-.07.51-.27,84.09-48.87.09-.05.08-.05.14-.09.12-.08.13-.09.11-.08.12-.09.1-.09.11-.09h0l.17-.17.06-.06.2-.23h0v-.05l.11-.15.05-.08.08-.13h0v-.06l.06-.11v-.26h0v-5.91S224.68,181.19,224.68,181.23Z"/>
          <path id="Path_6" data-name="Path 6" class="cls-1" d="M222.46,178c3,1.71,3,4.47,0,6.18L138.4,233a11.76,11.76,0,0,1-10.67,0l-125-72.17c-3-1.71-3-4.47,0-6.18L86.8,105.82a11.75,11.75,0,0,1,10.67,0l10,5.75-1.62.94,104.89,60.56,1.62-.94ZM96.76,210.35l29.94-17.4a1,1,0,0,0,0-1.94L75.3,161.34a3.69,3.69,0,0,0-3.35,0L42,178.74a1,1,0,0,0,0,1.94l51.39,29.67a3.69,3.69,0,0,0,3.35,0m-14.16-55L76.36,159a.59.59,0,0,0,0,1.12l43.29,25a2.12,2.12,0,0,0,1.93,0l6.24-3.63a.59.59,0,0,0,0-1.12l-43.29-25a2.12,2.12,0,0,0-1.93,0M52.35,127.63l-6.24,3.63a.59.59,0,0,0,0,1.12l18.12,10.46a2.12,2.12,0,0,0,1.93,0l6.24-3.63a.59.59,0,0,0,0-1.12L54.28,127.63a2.12,2.12,0,0,0-1.93,0m126.14,80.06,6.24-3.63a.59.59,0,0,0,0-1.12l-17.44-10.07a2.13,2.13,0,0,0-1.93,0l-6.24,3.63a.59.59,0,0,0,0,1.12l17.44,10.07a2.12,2.12,0,0,0,1.93,0M61.33,122.41,55.09,126a.59.59,0,0,0,0,1.12l13.49,7.79a2.12,2.12,0,0,0,1.93,0l6.24-3.63a.59.59,0,0,0,0-1.12l-13.49-7.79a2.12,2.12,0,0,0-1.93,0m126.14,80.06,6.24-3.63a.59.59,0,0,0,0-1.12L180.37,190a2.12,2.12,0,0,0-1.93,0l-6.24,3.63a.59.59,0,0,0,0,1.12l13.33,7.7a2.12,2.12,0,0,0,1.93,0M70.28,117.21,64,120.84A.59.59,0,0,0,64,122l11.15,6.44a2.12,2.12,0,0,0,1.93,0l6.24-3.63a.59.59,0,0,0,0-1.12l-11.15-6.44a2.12,2.12,0,0,0-1.93,0m135,74.9,6.24-3.63c.63-.37.41-.88,0-1.12l-11.11-6.42a2.12,2.12,0,0,0-1.93,0l-6.24,3.63a.59.59,0,0,0,0,1.12l11.11,6.42a2.12,2.12,0,0,0,1.93,0m-72.25-.37,6.24-3.63a.59.59,0,0,0,0-1.12l-8.86-5.11a2.13,2.13,0,0,0-1.93,0l-6.24,3.63a.59.59,0,0,0,0,1.12l8.86,5.11a2.12,2.12,0,0,0,1.93,0M75.56,158.54l6.24-3.63a.59.59,0,0,0,0-1.12l-8.86-5.11a2.12,2.12,0,0,0-1.93,0l-6.24,3.63a.59.59,0,0,0,0,1.12l8.86,5.11a2.12,2.12,0,0,0,1.93,0m80.2,28.79L149.52,191a.59.59,0,0,0,0,1.12l6.57,3.79a2.13,2.13,0,0,0,1.93,0l6.24-3.63a.59.59,0,0,0,0-1.12l-6.57-3.79a2.13,2.13,0,0,0-1.93,0M100,155.14a.59.59,0,0,0,0-1.12l-6.57-3.79a2.13,2.13,0,0,0-1.93,0l-6.24,3.63a.59.59,0,0,0,0,1.12l6.57,3.79a2.12,2.12,0,0,0,1.93,0l6.24-3.63m9.86,5.69-6.24,3.63a.59.59,0,0,0,0,1.12l6.57,3.79a2.13,2.13,0,0,0,1.93,0l6.24-3.63a.59.59,0,0,0,0-1.12l-6.57-3.79a2.13,2.13,0,0,0-1.93,0m27.54,15.9-6.24,3.63a.59.59,0,0,0,0,1.12l6.57,3.79a2.12,2.12,0,0,0,1.93,0l6.24-3.63a.59.59,0,0,0,0-1.12l-6.57-3.79a2.13,2.13,0,0,0-1.93,0M119,166.13l-6.24,3.63a.59.59,0,0,0,0,1.12l6.57,3.79a2.13,2.13,0,0,0,1.93,0l6.24-3.63a.59.59,0,0,0,0-1.12l-6.5-3.79a2.13,2.13,0,0,0-1.93,0m1-21.28-6.57-3.79a2.12,2.12,0,0,0-1.93,0l-6.24,3.63a.59.59,0,0,0,0,1.12l6.57,3.79a2.13,2.13,0,0,0,1.93,0l6.24-3.63a.59.59,0,0,0,0-1.12m-20.3-13.67,6.24-3.63a.59.59,0,0,0,0-1.12l-6.57-3.79a2.12,2.12,0,0,0-1.93,0l-6.24,3.63a.59.59,0,0,0,0,1.12l6.57,3.79a2.13,2.13,0,0,0,1.93,0M128.55,180a2.12,2.12,0,0,0,1.93,0l6.24-3.63a.59.59,0,0,0,0-1.12l-6.57-3.79a2.12,2.12,0,0,0-1.93,0l-6.22,3.6a.59.59,0,0,0,0,1.12l6.57,3.79m-44-26.5,6.24-3.63a.59.59,0,0,0,0-1.12l-6.57-3.79a2.12,2.12,0,0,0-1.93,0l-6.24,3.63a.59.59,0,0,0,0,1.12l6.57,3.79a2.12,2.12,0,0,0,1.93,0m94.21,34.73,6.57,3.79a2.13,2.13,0,0,0,1.93,0l6.24-3.63a.59.59,0,0,0,0-1.12L187,183.46a2.12,2.12,0,0,0-1.93,0l-6.24,3.63a.59.59,0,0,0,0,1.12m-40.35-32.75-6.57-3.79a2.12,2.12,0,0,0-1.93,0l-6.24,3.63a.59.59,0,0,0,0,1.12l6.57,3.79a2.13,2.13,0,0,0,1.93,0l6.24-3.63a.59.59,0,0,0,0-1.12m44,23.43,6.24-3.63a.59.59,0,0,0,0-1.12l-6.57-3.79a2.12,2.12,0,0,0-1.93,0L173.9,174a.59.59,0,0,0,0,1.12l6.57,3.79a2.12,2.12,0,0,0,1.93,0m-64.26-37.1,6.24-3.63a.59.59,0,0,0,0-1.12l-6.57-3.79a2.12,2.12,0,0,0-1.93,0l-6.24,3.63a.59.59,0,0,0,0,1.12l6.57,3.79a2.13,2.13,0,0,0,1.93,0m33.11,60.46,6.24-3.63a.59.59,0,0,0,0-1.12l-6.57-3.79a2.13,2.13,0,0,0-1.93,0l-6.24,3.63a.59.59,0,0,0,0,1.12l6.57,3.79a2.12,2.12,0,0,0,1.93,0M84,125.16l-6.24,3.63a.59.59,0,0,0,0,1.12l6.57,3.79a2.13,2.13,0,0,0,1.93,0l6.24-3.63a.59.59,0,0,0,0-1.12L86,125.16a2.12,2.12,0,0,0-1.93,0m91.11,51.49-6.57-3.79a2.12,2.12,0,0,0-1.93,0l-6.24,3.63a.59.59,0,0,0,0,1.12L167,181.4a2.13,2.13,0,0,0,1.93,0l6.24-3.63a.59.59,0,0,0,0-1.12m-18.36-10.6-6.57-3.79a2.12,2.12,0,0,0-1.93,0l-6.24,3.63a.59.59,0,0,0,0,1.12l6.57,3.79a2.13,2.13,0,0,0,1.93,0l6.24-3.63a.59.59,0,0,0,0-1.12M154.86,163l6.24-3.63a.59.59,0,0,0,0-1.12l-6.57-3.79a2.12,2.12,0,0,0-1.93,0l-6.24,3.63a.59.59,0,0,0,0,1.12l6.57,3.79a2.13,2.13,0,0,0,1.93,0M136.5,152.4l6.24-3.63a.59.59,0,0,0,0-1.12l-6.57-3.79a2.12,2.12,0,0,0-1.93,0L128,147.48a.59.59,0,0,0,0,1.12l6.57,3.79a2.12,2.12,0,0,0,1.93,0M146.58,182l-6.24,3.63a.59.59,0,0,0,0,1.12l6.57,3.79a2.12,2.12,0,0,0,1.93,0l6.24-3.63a.59.59,0,0,0,0-1.12L148.5,182a2.12,2.12,0,0,0-1.93,0m-45.9-26.5-6.24,3.63a.59.59,0,0,0,0,1.12l6.57,3.79a2.12,2.12,0,0,0,1.93,0l6.24-3.63a.59.59,0,0,0,0-1.12l-6.57-3.79a2.12,2.12,0,0,0-1.93,0M80.46,141.8,87,145.59a2.12,2.12,0,0,0,1.93,0L95.2,142a.59.59,0,0,0,0-1.12l-6.57-3.79a2.12,2.12,0,0,0-1.93,0l-6.24,3.63a.59.59,0,0,0,0,1.12m55.08,31.8,6.57,3.79a2.12,2.12,0,0,0,1.93,0l6.24-3.63a.59.59,0,0,0,0-1.12l-6.57-3.79a2.12,2.12,0,0,0-1.93,0l-6.24,3.63a.59.59,0,0,0,0,1.12m27.54,15.9,6.57,3.79a2.13,2.13,0,0,0,1.93,0l6.24-3.63a.59.59,0,0,0,0-1.12l-6.57-3.79a2.12,2.12,0,0,0-1.93,0l-6.24,3.63a.59.59,0,0,0,0,1.12M117.18,163l6.57,3.79a2.13,2.13,0,0,0,1.93,0l6.24-3.63a.59.59,0,0,0,0-1.12l-6.57-3.79a2.12,2.12,0,0,0-1.93,0l-6.24,3.63a.59.59,0,0,0,0,1.12m30.44-2.24L141.05,157a2.12,2.12,0,0,0-1.93,0l-6.24,3.63a.59.59,0,0,0,0,1.12l6.57,3.79a2.12,2.12,0,0,0,1.93,0l6.24-3.63a.59.59,0,0,0,0-1.12m-45.9-26.5-6.57-3.79a2.12,2.12,0,0,0-1.93,0L87,134.09a.59.59,0,0,0,0,1.12L93.57,139a2.12,2.12,0,0,0,1.93,0l6.24-3.63a.59.59,0,0,0,0-1.12M184.34,182l-6.57-3.79a2.12,2.12,0,0,0-1.93,0l-6.24,3.63a.59.59,0,0,0,0,1.12l6.57,3.79a2.12,2.12,0,0,0,1.93,0l6.24-3.63a.59.59,0,0,0,0-1.12m-57-34.87,6.24-3.63a.59.59,0,0,0,0-1.12L127,138.55a2.12,2.12,0,0,0-1.93,0l-6.24,3.63a.59.59,0,0,0,0,1.12l6.57,3.79a2.12,2.12,0,0,0,1.93,0m14.75,49.86,6.24-3.63a.59.59,0,0,0,0-1.12l-6.57-3.79a2.12,2.12,0,0,0-1.93,0L133.57,192a.59.59,0,0,0,0,1.12l6.57,3.79a2.12,2.12,0,0,0,1.93,0m-60-74.86,6.57,3.79a2.12,2.12,0,0,0,1.93,0l6.24-3.63a.59.59,0,0,0,0-1.12l-6.57-3.79a2.12,2.12,0,0,0-1.93,0L82.1,121a.59.59,0,0,0,0,1.12m-2.94-10-6.24,3.63a.59.59,0,0,0,0,1.12l6.57,3.79a2.13,2.13,0,0,0,1.93,0L87.66,117a.59.59,0,0,0,0-1.12L81.09,112a2.12,2.12,0,0,0-1.93,0M164,168.29l6.24-3.63a.59.59,0,0,0,0-1.12l-6.57-3.79a2.12,2.12,0,0,0-1.93,0l-6.24,3.63a.59.59,0,0,0,0,1.12l6.57,3.79a2.13,2.13,0,0,0,1.93,0m9.18,5.3,6.24-3.63a.59.59,0,0,0,0-1.12L172.88,165a2.12,2.12,0,0,0-1.93,0l-6.24,3.63a.59.59,0,0,0,0,1.12l6.57,3.79a2.12,2.12,0,0,0,1.93,0M98.82,152.4l6.57,3.79a2.12,2.12,0,0,0,1.93,0l6.24-3.63a.59.59,0,0,0,0-1.12L107,147.65a2.12,2.12,0,0,0-1.93,0l-6.24,3.63a.59.59,0,0,0,0,1.12m97.6,44.87,6.24-3.63a.59.59,0,0,0,0-1.12l-6.57-3.79a2.12,2.12,0,0,0-1.93,0l-6.24,3.63a.59.59,0,0,0,0,1.12l6.57,3.79a2.12,2.12,0,0,0,1.93,0m-26.81,15.58,6.24-3.63a.59.59,0,0,0,0-1.12l-6.57-3.79a2.12,2.12,0,0,0-1.93,0l-6.24,3.63a.59.59,0,0,0,0,1.12l6.57,3.79a2.12,2.12,0,0,0,1.93,0M96.17,140.5l6.57,3.79a2.12,2.12,0,0,0,1.93,0l6.24-3.63a.59.59,0,0,0,0-1.12l-6.57-3.79a2.12,2.12,0,0,0-1.93,0l-6.24,3.63a.59.59,0,0,0,0,1.12m33.09,9.65-6.57-3.79a2.12,2.12,0,0,0-1.93,0L114.53,150a.59.59,0,0,0,0,1.12l6.57,3.79a2.12,2.12,0,0,0,1.93,0l6.24-3.63a.59.59,0,0,0,0-1.12M166,171.35l-6.57-3.79a2.12,2.12,0,0,0-1.93,0l-6.24,3.63a.59.59,0,0,0,0,1.12l6.57,3.79a2.12,2.12,0,0,0,1.93,0l6.24-3.63a.59.59,0,0,0,0-1.12m-65.53-39.78a.59.59,0,0,0,0,1.12l6.57,3.79a2.12,2.12,0,0,0,1.93,0l6.24-3.63a.59.59,0,0,0,0-1.12l-6.57-3.79a2.12,2.12,0,0,0-1.93,0l-6.24,3.63m91.12,52.61,6.24-3.63a.59.59,0,0,0,0-1.12l-6.57-3.79a2.12,2.12,0,0,0-1.93,0l-6.24,3.63a.59.59,0,0,0,0,1.12l6.57,3.79a2.12,2.12,0,0,0,1.93,0m-45.9-26.5,6.24-3.63a.59.59,0,0,0,0-1.12l-6.57-3.79a2.12,2.12,0,0,0-1.93,0l-6.24,3.63a.59.59,0,0,0,0,1.12l6.57,3.79a2.12,2.12,0,0,0,1.93,0m14.75,49.86,6.24-3.63a.59.59,0,0,0,0-1.12L160.1,199a2.12,2.12,0,0,0-1.93,0l-6.24,3.63a.59.59,0,0,0,0,1.12l6.57,3.79a2.12,2.12,0,0,0,1.93,0M95.87,142.35,89.63,146a.59.59,0,0,0,0,1.12l6.57,3.79a2.12,2.12,0,0,0,1.93,0l6.24-3.63a.59.59,0,0,0,0-1.12l-6.57-3.79a2.12,2.12,0,0,0-1.93,0M108,157.7l6.57,3.79a2.12,2.12,0,0,0,1.93,0l6.24-3.63a.59.59,0,0,0,0-1.12L116.16,153a2.12,2.12,0,0,0-1.93,0L108,156.58a.59.59,0,0,0,0,1.12m18.36,10.6,6.57,3.79a2.12,2.12,0,0,0,1.93,0l6.24-3.63a.59.59,0,0,0,0-1.12l-6.57-3.79a2.12,2.12,0,0,0-1.93,0l-6.24,3.63a.59.59,0,0,0,0,1.12m18.36,10.6,6.57,3.79a2.12,2.12,0,0,0,1.93,0l6.24-3.63a.59.59,0,0,0,0-1.12l-6.57-3.79a2.12,2.12,0,0,0-1.93,0l-6.24,3.63a.59.59,0,0,0,0,1.12m9.18,5.3,6.57,3.79a2.12,2.12,0,0,0,1.93,0l6.24-3.63a.59.59,0,0,0,0-1.12l-6.57-3.79a2.12,2.12,0,0,0-1.93,0l-6.24,3.63a.59.59,0,0,0,0,1.12M77.51,131.75l-6.24,3.63a.59.59,0,0,0,0,1.12l6.57,3.79a2.12,2.12,0,0,0,1.93,0L86,136.66a.59.59,0,0,0,0-1.12l-6.57-3.79a2.12,2.12,0,0,0-1.93,0m-4.38,7.88-6.24,3.63a.59.59,0,0,0,0,1.12l6.47,3.73a2.12,2.12,0,0,0,1.93,0l6.24-3.63c.5-.28.54-.74.1-1.06l-6.57-3.79a2.13,2.13,0,0,0-1.93,0m-18.33,6.93L61,142.94a.59.59,0,0,0,0-1.12l-6.47-3.73a2.12,2.12,0,0,0-1.93,0l-6.24,3.63a.59.59,0,0,0,0,1.12l6.47,3.73a2.12,2.12,0,0,0,1.93,0m9.18,5.3,6.24-3.63a.59.59,0,0,0,0-1.12l-6.47-3.73a2.13,2.13,0,0,0-1.93,0L55.59,147a.59.59,0,0,0,0,1.12l6.47,3.73a2.12,2.12,0,0,0,1.93,0m-18.36-10.6,6.24-3.63a.59.59,0,0,0,0-1.12l-6.47-3.73a2.12,2.12,0,0,0-1.93,0l-6.24,3.63a.59.59,0,0,0,0,1.12l6.47,3.73a2.12,2.12,0,0,0,1.93,0m38-31.81-1.92,1.12a.59.59,0,0,0,0,1.12l11.16,6.44a2.12,2.12,0,0,0,1.93,0L96.72,117a.59.59,0,0,0,0-1.12l-11.16-6.44a2.12,2.12,0,0,0-1.93,0M115.7,128l-1.92,1.12a.59.59,0,0,0,0,1.12l6.57,3.79a2.13,2.13,0,0,0,1.93,0l1.92-1.12a.59.59,0,0,0,0-1.12L117.63,128a2.12,2.12,0,0,0-1.93,0m36.72,21.2-1.92,1.12a.59.59,0,0,0,0,1.12l6.57,3.79a2.13,2.13,0,0,0,1.93,0l1.92-1.12a.59.59,0,0,0,0-1.12l-6.57-3.79a2.12,2.12,0,0,0-1.93,0m-18.36-10.6-1.92,1.12a.59.59,0,0,0,0,1.12l6.57,3.79a2.13,2.13,0,0,0,1.93,0l1.92-1.12a.59.59,0,0,0,0-1.12L136,138.58a2.12,2.12,0,0,0-1.93,0m55.08,31.8-1.92,1.12a.59.59,0,0,0,0,1.12l6.57,3.79a2.13,2.13,0,0,0,1.93,0l1.92-1.12a.59.59,0,0,0,0-1.12l-6.57-3.79a2.12,2.12,0,0,0-1.93,0m-18.36-10.6-1.92,1.12a.59.59,0,0,0,0,1.12l6.57,3.79a2.13,2.13,0,0,0,1.93,0l1.92-1.12a.59.59,0,0,0,0-1.12l-6.57-3.79a2.12,2.12,0,0,0-1.93,0m9.18,5.3L178,166.19a.59.59,0,0,0,0,1.12l6.57,3.79a2.12,2.12,0,0,0,1.93,0l1.92-1.12a.59.59,0,0,0,0-1.12l-6.57-3.79a2.12,2.12,0,0,0-1.93,0m-73.44-42.4-1.92,1.12a.59.59,0,0,0,0,1.12l6.57,3.79a2.12,2.12,0,0,0,1.93,0l1.92-1.12a.59.59,0,0,0,0-1.12l-6.57-3.79a2.12,2.12,0,0,0-1.93,0m36.72,21.2L141.32,145a.59.59,0,0,0,0,1.12l6.57,3.79a2.12,2.12,0,0,0,1.93,0l1.92-1.12a.59.59,0,0,0,0-1.12l-6.57-3.79a2.12,2.12,0,0,0-1.93,0m-45.9-26.5-1.92,1.12a.59.59,0,0,0,0,1.12L102,123.4a2.12,2.12,0,0,0,1.93,0l1.92-1.12a.59.59,0,0,0,0-1.12l-6.57-3.79a2.12,2.12,0,0,0-1.93,0m27.54,15.9L123,134.39a.59.59,0,0,0,0,1.12l6.57,3.79a2.12,2.12,0,0,0,1.93,0l1.92-1.12a.59.59,0,0,0,0-1.12l-6.57-3.79a2.12,2.12,0,0,0-1.93,0M214.09,187l1.92-1.12a.59.59,0,0,0,0-1.12L209.43,181a2.12,2.12,0,0,0-1.93,0l-1.92,1.12a.59.59,0,0,0,0,1.12l6.57,3.79a2.12,2.12,0,0,0,1.93,0M161.6,154.48l-1.92,1.12a.59.59,0,0,0,0,1.12l6.57,3.79a2.12,2.12,0,0,0,1.93,0l1.92-1.12a.59.59,0,0,0,0-1.12l-6.57-3.79a2.12,2.12,0,0,0-1.93,0m36.72,21.2-1.92,1.12a.59.59,0,0,0,0,1.12l6.6,3.78a2.12,2.12,0,0,0,1.93,0l1.92-1.12a.59.59,0,0,0,0-1.12l-6.57-3.79a2.12,2.12,0,0,0-1.93,0"/>
          <path id="Path_7" data-name="Path 7" class="cls-1" d="M96.76,210.35l29.94-17.4a1,1,0,0,0,0-1.94L75.3,161.34a3.69,3.69,0,0,0-3.35,0L42,178.74a1,1,0,0,0,0,1.94l51.39,29.67a3.69,3.69,0,0,0,3.35,0"/>
        </g>
        <path id="Path_8" data-name="Path 8" class="cls-1" d="M82.61,155.38,76.36,159a.59.59,0,0,0,0,1.12l43.29,25a2.12,2.12,0,0,0,1.93,0l6.24-3.63a.59.59,0,0,0,0-1.12l-43.29-25a2.12,2.12,0,0,0-1.93,0"/>
        <path id="Path_9" data-name="Path 9" class="cls-1" d="M52.35,127.63l-6.24,3.63a.59.59,0,0,0,0,1.12l18.12,10.46a2.12,2.12,0,0,0,1.93,0l6.24-3.63a.59.59,0,0,0,0-1.12L54.28,127.63a2.12,2.12,0,0,0-1.93,0"/>
        <path id="Path_10" data-name="Path 10" class="cls-1" d="M178.49,207.69l6.24-3.63a.59.59,0,0,0,0-1.12l-17.44-10.07a2.13,2.13,0,0,0-1.93,0l-6.24,3.63a.59.59,0,0,0,0,1.12l17.44,10.07a2.12,2.12,0,0,0,1.93,0"/>
        <path id="Path_11" data-name="Path 11" class="cls-1" d="M61.33,122.41,55.09,126a.59.59,0,0,0,0,1.12l13.49,7.79a2.12,2.12,0,0,0,1.93,0l6.24-3.63a.59.59,0,0,0,0-1.12l-13.49-7.79a2.12,2.12,0,0,0-1.93,0"/>
        <path id="Path_12" data-name="Path 12" class="cls-1" d="M187.47,202.47l6.24-3.63a.59.59,0,0,0,0-1.12L180.37,190a2.12,2.12,0,0,0-1.93,0l-6.24,3.63a.59.59,0,0,0,0,1.12l13.33,7.7a2.12,2.12,0,0,0,1.93,0"/>
        <path id="Path_13" data-name="Path 13" class="cls-1" d="M70.28,117.21,64,120.84A.59.59,0,0,0,64,122l11.15,6.44a2.12,2.12,0,0,0,1.93,0l6.24-3.63a.59.59,0,0,0,0-1.12l-11.15-6.44a2.12,2.12,0,0,0-1.93,0"/>
        <path id="Path_14" data-name="Path 14" class="cls-1" d="M205.3,192.11l6.24-3.63c.63-.37.41-.88,0-1.12l-11.11-6.42a2.12,2.12,0,0,0-1.93,0l-6.24,3.63a.59.59,0,0,0,0,1.12l11.11,6.42a2.12,2.12,0,0,0,1.93,0"/>
        <path id="Path_15" data-name="Path 15" class="cls-1" d="M133.05,191.74l6.24-3.63a.59.59,0,0,0,0-1.12l-8.86-5.11a2.13,2.13,0,0,0-1.93,0l-6.24,3.63a.59.59,0,0,0,0,1.12l8.86,5.11a2.12,2.12,0,0,0,1.93,0"/>
        <path id="Path_16" data-name="Path 16" class="cls-1" d="M75.56,158.54l6.24-3.63a.59.59,0,0,0,0-1.12l-8.86-5.11a2.12,2.12,0,0,0-1.93,0l-6.24,3.63a.59.59,0,0,0,0,1.12l8.86,5.11a2.12,2.12,0,0,0,1.93,0"/>
        <path id="Path_17" data-name="Path 17" class="cls-1" d="M155.76,187.33,149.52,191a.59.59,0,0,0,0,1.12l6.57,3.79a2.13,2.13,0,0,0,1.93,0l6.24-3.63a.59.59,0,0,0,0-1.12l-6.57-3.79a2.13,2.13,0,0,0-1.93,0"/>
        <path id="Path_18" data-name="Path 18" class="cls-1" d="M100,155.14a.59.59,0,0,0,0-1.12l-6.57-3.79a2.13,2.13,0,0,0-1.93,0l-6.24,3.63a.59.59,0,0,0,0,1.12l6.57,3.79a2.12,2.12,0,0,0,1.93,0l6.24-3.63"/>
        <path id="Path_19" data-name="Path 19" class="cls-1" d="M109.86,160.83l-6.24,3.63a.59.59,0,0,0,0,1.12l6.57,3.79a2.13,2.13,0,0,0,1.93,0l6.24-3.63a.59.59,0,0,0,0-1.12l-6.57-3.79a2.13,2.13,0,0,0-1.93,0"/>
        <path id="Path_20" data-name="Path 20" class="cls-1" d="M137.4,176.73l-6.24,3.63a.59.59,0,0,0,0,1.12l6.57,3.79a2.12,2.12,0,0,0,1.93,0l6.24-3.63a.59.59,0,0,0,0-1.12l-6.57-3.79a2.13,2.13,0,0,0-1.93,0"/>
        <path id="Path_21" data-name="Path 21" class="cls-1" d="M119,166.13l-6.24,3.63a.59.59,0,0,0,0,1.12l6.57,3.79a2.13,2.13,0,0,0,1.93,0l6.24-3.63a.59.59,0,0,0,0-1.12l-6.5-3.79a2.13,2.13,0,0,0-1.93,0"/>
        <path id="Path_22" data-name="Path 22" class="cls-1" d="M120.09,144.85l-6.57-3.79a2.12,2.12,0,0,0-1.93,0l-6.24,3.63a.59.59,0,0,0,0,1.12l6.57,3.79a2.13,2.13,0,0,0,1.93,0l6.24-3.63a.59.59,0,0,0,0-1.12"/>
        <path id="Path_23" data-name="Path 23" class="cls-1" d="M99.78,131.19l6.24-3.63a.59.59,0,0,0,0-1.12l-6.57-3.79a2.12,2.12,0,0,0-1.93,0l-6.24,3.63a.59.59,0,0,0,0,1.12l6.57,3.79a2.13,2.13,0,0,0,1.93,0"/>
        <path id="Path_24" data-name="Path 24" class="cls-1" d="M128.55,180a2.12,2.12,0,0,0,1.93,0l6.24-3.63a.59.59,0,0,0,0-1.12l-6.57-3.79a2.12,2.12,0,0,0-1.93,0l-6.22,3.6a.59.59,0,0,0,0,1.12l6.57,3.79"/>
        <path id="Path_25" data-name="Path 25" class="cls-1" d="M84.58,153.47l6.24-3.63a.59.59,0,0,0,0-1.12l-6.57-3.79a2.12,2.12,0,0,0-1.93,0l-6.24,3.63a.59.59,0,0,0,0,1.12l6.57,3.79a2.12,2.12,0,0,0,1.93,0"/>
        <path id="Path_26" data-name="Path 26" class="cls-1" d="M178.79,188.2l6.57,3.79a2.13,2.13,0,0,0,1.93,0l6.24-3.63a.59.59,0,0,0,0-1.12L187,183.46a2.12,2.12,0,0,0-1.93,0l-6.24,3.63a.59.59,0,0,0,0,1.12"/>
        <path id="Path_27" data-name="Path 27" class="cls-1" d="M138.44,155.45l-6.57-3.79a2.12,2.12,0,0,0-1.93,0l-6.24,3.63a.59.59,0,0,0,0,1.12l6.57,3.79a2.13,2.13,0,0,0,1.93,0l6.24-3.63a.59.59,0,0,0,0-1.12"/>
        <path id="Path_28" data-name="Path 28" class="cls-1" d="M182.4,178.89l6.24-3.63a.59.59,0,0,0,0-1.12l-6.57-3.79a2.12,2.12,0,0,0-1.93,0L173.9,174a.59.59,0,0,0,0,1.12l6.57,3.79a2.12,2.12,0,0,0,1.93,0"/>
        <path id="Path_29" data-name="Path 29" class="cls-1" d="M118.14,141.79l6.24-3.63a.59.59,0,0,0,0-1.12l-6.57-3.79a2.12,2.12,0,0,0-1.93,0l-6.24,3.63a.59.59,0,0,0,0,1.12l6.57,3.79a2.13,2.13,0,0,0,1.93,0"/>
        <path id="Path_30" data-name="Path 30" class="cls-1" d="M151.25,202.25l6.24-3.63a.59.59,0,0,0,0-1.12l-6.57-3.79a2.13,2.13,0,0,0-1.93,0l-6.24,3.63a.59.59,0,0,0,0,1.12l6.57,3.79a2.12,2.12,0,0,0,1.93,0"/>
        <path id="Path_31" data-name="Path 31" class="cls-1" d="M84,125.16l-6.24,3.63a.59.59,0,0,0,0,1.12l6.57,3.79a2.13,2.13,0,0,0,1.93,0l6.24-3.63a.59.59,0,0,0,0-1.12L86,125.16a2.12,2.12,0,0,0-1.93,0"/>
        <path id="Path_32" data-name="Path 32" class="cls-1" d="M175.16,176.65l-6.57-3.79a2.12,2.12,0,0,0-1.93,0l-6.24,3.63a.59.59,0,0,0,0,1.12L167,181.4a2.13,2.13,0,0,0,1.93,0l6.24-3.63a.59.59,0,0,0,0-1.12"/>
        <path id="Path_33" data-name="Path 33" class="cls-1" d="M156.8,166.05l-6.57-3.79a2.12,2.12,0,0,0-1.93,0l-6.24,3.63a.59.59,0,0,0,0,1.12l6.57,3.79a2.13,2.13,0,0,0,1.93,0l6.24-3.63a.59.59,0,0,0,0-1.12"/>
        <path id="Path_34" data-name="Path 34" class="cls-1" d="M154.86,163l6.24-3.63a.59.59,0,0,0,0-1.12l-6.57-3.79a2.12,2.12,0,0,0-1.93,0l-6.24,3.63a.59.59,0,0,0,0,1.12l6.57,3.79a2.13,2.13,0,0,0,1.93,0"/>
        <path id="Path_35" data-name="Path 35" class="cls-1" d="M136.5,152.39l6.24-3.63a.59.59,0,0,0,0-1.12l-6.57-3.79a2.12,2.12,0,0,0-1.93,0L128,147.48a.59.59,0,0,0,0,1.12l6.57,3.79a2.12,2.12,0,0,0,1.93,0"/>
        <path id="Path_36" data-name="Path 36" class="cls-1" d="M146.58,182l-6.24,3.63a.59.59,0,0,0,0,1.12l6.57,3.79a2.12,2.12,0,0,0,1.93,0l6.24-3.63a.59.59,0,0,0,0-1.12L148.5,182a2.12,2.12,0,0,0-1.93,0"/>
        <path id="Path_37" data-name="Path 37" class="cls-1" d="M100.68,155.53l-6.24,3.63a.59.59,0,0,0,0,1.12l6.57,3.79a2.12,2.12,0,0,0,1.93,0l6.24-3.63a.59.59,0,0,0,0-1.12l-6.57-3.79a2.12,2.12,0,0,0-1.93,0"/>
        <path id="Path_38" data-name="Path 38" class="cls-1" d="M80.46,141.8,87,145.59a2.12,2.12,0,0,0,1.93,0L95.2,142a.59.59,0,0,0,0-1.12l-6.57-3.79a2.12,2.12,0,0,0-1.93,0l-6.24,3.63a.59.59,0,0,0,0,1.12"/>
        <path id="Path_39" data-name="Path 39" class="cls-1" d="M135.54,173.6l6.57,3.79a2.12,2.12,0,0,0,1.93,0l6.24-3.63a.59.59,0,0,0,0-1.12l-6.57-3.79a2.12,2.12,0,0,0-1.93,0l-6.24,3.63a.59.59,0,0,0,0,1.12"/>
        <path id="Path_40" data-name="Path 40" class="cls-1" d="M163.08,189.5l6.57,3.79a2.13,2.13,0,0,0,1.93,0l6.24-3.63a.59.59,0,0,0,0-1.12l-6.57-3.79a2.12,2.12,0,0,0-1.93,0l-6.24,3.63a.59.59,0,0,0,0,1.12"/>
        <path id="Path_41" data-name="Path 41" class="cls-1" d="M117.18,163l6.57,3.79a2.13,2.13,0,0,0,1.93,0l6.24-3.63a.59.59,0,0,0,0-1.12l-6.57-3.79a2.12,2.12,0,0,0-1.93,0l-6.24,3.63a.59.59,0,0,0,0,1.12"/>
        <path id="Path_42" data-name="Path 42" class="cls-1" d="M147.62,160.75,141.05,157a2.12,2.12,0,0,0-1.93,0l-6.24,3.63a.59.59,0,0,0,0,1.12l6.57,3.79a2.12,2.12,0,0,0,1.93,0l6.24-3.63a.59.59,0,0,0,0-1.12"/>
        <path id="Path_43" data-name="Path 43" class="cls-1" d="M101.73,134.25l-6.57-3.79a2.12,2.12,0,0,0-1.93,0L87,134.09a.59.59,0,0,0,0,1.12L93.57,139a2.12,2.12,0,0,0,1.93,0l6.24-3.63a.59.59,0,0,0,0-1.12"/>
        <path id="Path_44" data-name="Path 44" class="cls-1" d="M184.34,182l-6.57-3.79a2.12,2.12,0,0,0-1.93,0l-6.24,3.63a.59.59,0,0,0,0,1.12l6.57,3.79a2.12,2.12,0,0,0,1.93,0l6.24-3.63a.59.59,0,0,0,0-1.12"/>
        <path id="Path_45" data-name="Path 45" class="cls-1" d="M127.32,147.09l6.24-3.63a.59.59,0,0,0,0-1.12L127,138.55a2.12,2.12,0,0,0-1.93,0l-6.24,3.63a.59.59,0,0,0,0,1.12l6.57,3.79a2.12,2.12,0,0,0,1.93,0"/>
        <path id="Path_46" data-name="Path 46" class="cls-1" d="M142.07,196.95l6.24-3.63a.59.59,0,0,0,0-1.12l-6.57-3.79a2.12,2.12,0,0,0-1.93,0L133.57,192a.59.59,0,0,0,0,1.12l6.57,3.79a2.12,2.12,0,0,0,1.93,0"/>
        <path id="Path_47" data-name="Path 47" class="cls-1" d="M82.11,122.09l6.57,3.79a2.12,2.12,0,0,0,1.93,0l6.24-3.63a.59.59,0,0,0,0-1.12l-6.57-3.79a2.12,2.12,0,0,0-1.93,0L82.1,121a.59.59,0,0,0,0,1.12"/>
        <path id="Path_48" data-name="Path 48" class="cls-1" d="M79.16,112l-6.24,3.63a.59.59,0,0,0,0,1.12l6.57,3.79a2.13,2.13,0,0,0,1.93,0L87.66,117a.59.59,0,0,0,0-1.12L81.09,112a2.12,2.12,0,0,0-1.93,0"/>
        <path id="Path_49" data-name="Path 49" class="cls-1" d="M164,168.29l6.24-3.63a.59.59,0,0,0,0-1.12l-6.57-3.79a2.12,2.12,0,0,0-1.93,0l-6.24,3.63a.59.59,0,0,0,0,1.12l6.57,3.79a2.13,2.13,0,0,0,1.93,0"/>
        <path id="Path_50" data-name="Path 50" class="cls-1" d="M173.22,173.58l6.24-3.63a.59.59,0,0,0,0-1.12L172.88,165a2.12,2.12,0,0,0-1.93,0l-6.24,3.63a.59.59,0,0,0,0,1.12l6.57,3.79a2.12,2.12,0,0,0,1.93,0"/>
        <path id="Path_51" data-name="Path 51" class="cls-1" d="M98.82,152.4l6.57,3.79a2.12,2.12,0,0,0,1.93,0l6.24-3.63a.59.59,0,0,0,0-1.12L107,147.65a2.12,2.12,0,0,0-1.93,0l-6.24,3.63a.59.59,0,0,0,0,1.12"/>
        <path id="Path_52" data-name="Path 52" class="cls-1" d="M196.42,197.27l6.24-3.63a.59.59,0,0,0,0-1.12l-6.57-3.79a2.12,2.12,0,0,0-1.93,0l-6.24,3.63a.59.59,0,0,0,0,1.12l6.57,3.79a2.12,2.12,0,0,0,1.93,0"/>
        <path id="Path_53" data-name="Path 53" class="cls-1" d="M169.61,212.85l6.24-3.63a.59.59,0,0,0,0-1.12l-6.57-3.79a2.12,2.12,0,0,0-1.93,0l-6.24,3.63a.59.59,0,0,0,0,1.12l6.57,3.79a2.12,2.12,0,0,0,1.93,0"/>
        <path id="Path_54" data-name="Path 54" class="cls-1" d="M96.17,140.5l6.57,3.79a2.12,2.12,0,0,0,1.93,0l6.24-3.63a.59.59,0,0,0,0-1.12l-6.57-3.79a2.12,2.12,0,0,0-1.93,0l-6.24,3.63a.59.59,0,0,0,0,1.12"/>
        <path id="Path_55" data-name="Path 55" class="cls-1" d="M129.26,150.15l-6.57-3.79a2.12,2.12,0,0,0-1.93,0L114.53,150a.59.59,0,0,0,0,1.12l6.57,3.79a2.12,2.12,0,0,0,1.93,0l6.24-3.63a.59.59,0,0,0,0-1.12"/>
        <path id="Path_56" data-name="Path 56" class="cls-1" d="M166,171.35l-6.57-3.79a2.12,2.12,0,0,0-1.93,0l-6.24,3.63a.59.59,0,0,0,0,1.12l6.57,3.79a2.12,2.12,0,0,0,1.93,0l6.24-3.63a.59.59,0,0,0,0-1.12"/>
        <path id="Path_57" data-name="Path 57" class="cls-1" d="M100.46,131.58a.59.59,0,0,0,0,1.12l6.57,3.79a2.12,2.12,0,0,0,1.93,0l6.24-3.63a.59.59,0,0,0,0-1.12l-6.57-3.79a2.12,2.12,0,0,0-1.93,0l-6.24,3.63"/>
        <path id="Path_58" data-name="Path 58" class="cls-1" d="M191.58,184.18l6.24-3.63a.59.59,0,0,0,0-1.12l-6.57-3.79a2.12,2.12,0,0,0-1.93,0l-6.24,3.63a.59.59,0,0,0,0,1.12l6.57,3.79a2.12,2.12,0,0,0,1.93,0"/>
        <path id="Path_59" data-name="Path 59" class="cls-1" d="M145.68,157.69l6.24-3.63a.59.59,0,0,0,0-1.12l-6.57-3.79a2.12,2.12,0,0,0-1.93,0l-6.24,3.63a.59.59,0,0,0,0,1.12l6.57,3.79a2.12,2.12,0,0,0,1.93,0"/>
        <path id="Path_60" data-name="Path 60" class="cls-1" d="M160.43,207.55l6.24-3.63a.59.59,0,0,0,0-1.12L160.1,199a2.12,2.12,0,0,0-1.93,0l-6.24,3.63a.59.59,0,0,0,0,1.12l6.57,3.79a2.12,2.12,0,0,0,1.93,0"/>
        <path id="Path_61" data-name="Path 61" class="cls-1" d="M95.87,142.35,89.63,146a.59.59,0,0,0,0,1.12l6.57,3.79a2.12,2.12,0,0,0,1.93,0l6.24-3.63a.59.59,0,0,0,0-1.12l-6.57-3.79a2.12,2.12,0,0,0-1.93,0"/>
        <path id="Path_62" data-name="Path 62" class="cls-1" d="M108,157.7l6.57,3.79a2.12,2.12,0,0,0,1.93,0l6.24-3.63a.59.59,0,0,0,0-1.12L116.16,153a2.12,2.12,0,0,0-1.93,0L108,156.58a.59.59,0,0,0,0,1.12"/>
        <path id="Path_63" data-name="Path 63" class="cls-1" d="M126.36,168.3l6.57,3.79a2.12,2.12,0,0,0,1.93,0l6.24-3.63a.59.59,0,0,0,0-1.12l-6.57-3.79a2.12,2.12,0,0,0-1.93,0l-6.24,3.63a.59.59,0,0,0,0,1.12"/>
        <path id="Path_64" data-name="Path 64" class="cls-1" d="M144.72,178.9l6.57,3.79a2.12,2.12,0,0,0,1.93,0l6.24-3.63a.59.59,0,0,0,0-1.12l-6.57-3.79a2.12,2.12,0,0,0-1.93,0l-6.24,3.63a.59.59,0,0,0,0,1.12"/>
        <path id="Path_65" data-name="Path 65" class="cls-1" d="M153.9,184.2l6.57,3.79a2.12,2.12,0,0,0,1.93,0l6.24-3.63a.59.59,0,0,0,0-1.12l-6.57-3.79a2.12,2.12,0,0,0-1.93,0l-6.24,3.63a.59.59,0,0,0,0,1.12"/>
        <path id="Path_66" data-name="Path 66" class="cls-1" d="M77.51,131.75l-6.24,3.63a.59.59,0,0,0,0,1.12l6.57,3.79a2.12,2.12,0,0,0,1.93,0L86,136.66a.59.59,0,0,0,0-1.12l-6.57-3.79a2.12,2.12,0,0,0-1.93,0"/>
        <path id="Path_67" data-name="Path 67" class="cls-1" d="M73.14,139.63l-6.24,3.63a.59.59,0,0,0,0,1.12l6.47,3.73a2.12,2.12,0,0,0,1.93,0l6.24-3.63c.5-.28.54-.74.1-1.06l-6.57-3.79a2.13,2.13,0,0,0-1.93,0"/>
        <path id="Path_68" data-name="Path 68" class="cls-1" d="M54.81,146.57,61,142.94a.59.59,0,0,0,0-1.12l-6.47-3.73a2.12,2.12,0,0,0-1.93,0l-6.24,3.63a.59.59,0,0,0,0,1.12l6.47,3.73a2.12,2.12,0,0,0,1.93,0"/>
        <path id="Path_69" data-name="Path 69" class="cls-1" d="M64,151.87l6.24-3.63a.59.59,0,0,0,0-1.12l-6.47-3.73a2.13,2.13,0,0,0-1.93,0L55.59,147a.59.59,0,0,0,0,1.12l6.47,3.73a2.12,2.12,0,0,0,1.93,0"/>
        <path id="Path_70" data-name="Path 70" class="cls-1" d="M45.63,141.27l6.24-3.63a.59.59,0,0,0,0-1.12l-6.47-3.73a2.12,2.12,0,0,0-1.93,0l-6.24,3.63a.59.59,0,0,0,0,1.12l6.47,3.73a2.12,2.12,0,0,0,1.93,0"/>
        <path id="Path_71" data-name="Path 71" class="cls-1" d="M83.62,109.46l-1.92,1.12a.59.59,0,0,0,0,1.12l11.16,6.44a2.12,2.12,0,0,0,1.93,0L96.72,117a.59.59,0,0,0,0-1.12l-11.16-6.44a2.12,2.12,0,0,0-1.93,0"/>
        <path id="Path_72" data-name="Path 72" class="cls-1" d="M115.7,128l-1.92,1.12a.59.59,0,0,0,0,1.12l6.57,3.79a2.13,2.13,0,0,0,1.93,0l1.92-1.12a.59.59,0,0,0,0-1.12L117.63,128a2.12,2.12,0,0,0-1.93,0"/>
        <path id="Path_73" data-name="Path 73" class="cls-1" d="M152.42,149.18l-1.92,1.12a.59.59,0,0,0,0,1.12l6.57,3.79a2.13,2.13,0,0,0,1.93,0l1.92-1.12a.59.59,0,0,0,0-1.12l-6.57-3.79a2.12,2.12,0,0,0-1.93,0"/>
        <path id="Path_74" data-name="Path 74" class="cls-1" d="M134.06,138.58l-1.92,1.12a.59.59,0,0,0,0,1.12l6.57,3.79a2.13,2.13,0,0,0,1.93,0l1.92-1.12a.59.59,0,0,0,0-1.12L136,138.58a2.12,2.12,0,0,0-1.93,0"/>
        <path id="Path_75" data-name="Path 75" class="cls-1" d="M189.14,170.38l-1.92,1.12a.59.59,0,0,0,0,1.12l6.57,3.79a2.13,2.13,0,0,0,1.93,0l1.92-1.12a.59.59,0,0,0,0-1.12l-6.57-3.79a2.12,2.12,0,0,0-1.93,0"/>
        <path id="Path_76" data-name="Path 76" class="cls-1" d="M170.78,159.78l-1.92,1.12a.59.59,0,0,0,0,1.12l6.57,3.79a2.13,2.13,0,0,0,1.93,0l1.92-1.12a.59.59,0,0,0,0-1.12l-6.57-3.79a2.12,2.12,0,0,0-1.93,0"/>
        <path id="Path_77" data-name="Path 77" class="cls-1" d="M180,165.08l-2,1.11a.59.59,0,0,0,0,1.12l6.57,3.79a2.12,2.12,0,0,0,1.93,0l1.92-1.12a.59.59,0,0,0,0-1.12l-6.57-3.79a2.12,2.12,0,0,0-1.93,0"/>
        <path id="Path_78" data-name="Path 78" class="cls-1" d="M106.52,122.68l-1.92,1.12a.59.59,0,0,0,0,1.12l6.57,3.79a2.12,2.12,0,0,0,1.93,0l1.92-1.12a.59.59,0,0,0,0-1.12l-6.57-3.79a2.12,2.12,0,0,0-1.93,0"/>
        <path id="Path_79" data-name="Path 79" class="cls-1" d="M143.24,143.88,141.32,145a.59.59,0,0,0,0,1.12l6.57,3.79a2.12,2.12,0,0,0,1.93,0l1.92-1.12a.59.59,0,0,0,0-1.12l-6.57-3.79a2.12,2.12,0,0,0-1.93,0"/>
        <path id="Path_80" data-name="Path 80" class="cls-1" d="M97.35,117.38l-1.92,1.12a.59.59,0,0,0,0,1.12L102,123.4a2.12,2.12,0,0,0,1.93,0l1.92-1.12a.59.59,0,0,0,0-1.12l-6.57-3.79a2.12,2.12,0,0,0-1.93,0"/>
        <path id="Path_81" data-name="Path 81" class="cls-1" d="M124.88,133.28,123,134.39a.59.59,0,0,0,0,1.12l6.57,3.79a2.12,2.12,0,0,0,1.93,0l1.92-1.12a.59.59,0,0,0,0-1.12l-6.57-3.79a2.12,2.12,0,0,0-1.93,0"/>
        <path id="Path_82" data-name="Path 82" class="cls-1" d="M214.09,187l1.92-1.12a.59.59,0,0,0,0-1.12L209.43,181a2.12,2.12,0,0,0-1.93,0l-1.92,1.12a.59.59,0,0,0,0,1.12l6.57,3.79a2.12,2.12,0,0,0,1.93,0"/>
        <path id="Path_83" data-name="Path 83" class="cls-1" d="M161.6,154.48l-1.92,1.12a.59.59,0,0,0,0,1.12l6.57,3.79a2.12,2.12,0,0,0,1.93,0l1.92-1.12a.59.59,0,0,0,0-1.12l-6.57-3.79a2.12,2.12,0,0,0-1.93,0"/>
        <path id="Path_84" data-name="Path 84" class="cls-1" d="M198.32,175.68l-1.92,1.12a.59.59,0,0,0,0,1.12l6.6,3.78a2.12,2.12,0,0,0,1.93,0l1.92-1.12a.59.59,0,0,0,0-1.12l-6.57-3.79a2.12,2.12,0,0,0-1.93,0"/>
        <path id="Path_85" data-name="Path 85" class="cls-1" d="M221.25,186.24c.62-.36,1.12-.07,1.12.64a2.45,2.45,0,0,1-1.11,1.93c-.62.36-1.12.07-1.12-.64a2.45,2.45,0,0,1,1.11-1.93Z"/>
        <path id="Path_2" data-name="Path 2" class="cls-2" d="M223.73,74.19a11.75,11.75,0,0,1,5.33,9.24l-.28,97.26c0,3.4-2.41,4.77-5.37,3.06l-125-72.17a11.75,11.75,0,0,1-5.33-9.24l.28-97.26c0-3.39,2.41-4.76,5.37-3.06Zm0,93.41L224,80.28,98.44,7.79,98.2,95.11,223.75,167.6"/>
      </g>
    </g>
    <path id="Path_272" data-name="Path 272" class="cls-1" d="M230.41,82.4V81.35h0v-.22h0V80.07h0l-.09-.28h0l-.09-.24h0v-.47l-.06-.15v-.08h0l-.12-.26h0v-.07l-.1-.2h0l-.08-.16-.07-.13h0l-.23-.41h0q-.17-.29-.35-.56h0v-.05l-.3-.43h0l-.22-.29h0l-.17-.21h0l-.21-.24h0l-.06-.07-.13-.15h0l-.09-.1-.1-.11h0l-.1-.1-.09-.09h0l-.11-.1-.08-.07L227.5,75l-.11-.1-.07-.06-.07-.06-.11-.09h-.06L226,74l-.1-.08h0l-.12-.09-.09-.06h0l-.23-.15h0l-.21-.13h-.05L100.2,1.32l-.17-.1h-.15L99.7,1h-.19L99.27.83h0L99.05.75H96.68l-.14.06h-.07l-.2.1-1.35.78.2-.1h.07l.14-.06h2.09l.16.05h.08l.24.09h0l.24.11h.08l.18.09h.09l.23.13,125,72.17.26.16h0l.25.17.09.06.17.12.1.08.15.12.11.09.14.12.11.1.14.12.11.1.14.13.1.1.14.14.09.1.16.17.07.07.22.26h0l.18.22.23.3h0l.3.43.05.08q.18.28.35.56v.07l.23.41.08.15.08.16.11.23v.08l.13.3v.08l.09.22v.1l.08.21v.09l.1.28h0l.1.31v.1l.06.21v1.02h0v1.3l-.28,97.26v1.63l-.06.17v.09a.771.771,0,0,1-.11.27h0a3.361,3.361,0,0,1-.18.33h0l-.17.24v.05l-.18.2h0l-.21.19h-.05l-.23.16,1.35-.78.24-.16h.05l.21-.19h0l.18-.2v-.05l.17-.24h0a3.366,3.366,0,0,0,.18-.33h0c0-.09.08-.18.11-.27h0v-.07l.06-.17h0v-1.58h0l.28-97.26Q230.42,82.52,230.41,82.4Z" transform="translate(44.52 399.25)"/>
    <path id="Path_273" data-name="Path 273" class="cls-1" d="M223.99,80.28l-.24,87.31L98.2,95.11l.24-87.32Z" transform="translate(44.52 399.25)"/>
    <path id="Path_274" data-name="Path 274" class="cls-1" d="M107.42,111.58l-.01,5.03-1.62.94.01-5.03Z" transform="translate(44.52 399.25)"/>
    <path id="Path_275" data-name="Path 275" class="cls-1" d="M224.68,181.23v1.05l-.06.11-.05.09-.08.13-.05.08-.11.15v.06l-.2.23-.06.06-.17.17-.08.08-.11.09-.1.09-.12.09-.11.08-.13.09-.12.08-.14.09-.17.11L138.4,233l-.51.27-.14.07-.48.21h-.06l-.54.19-.39.11-.3.08-.42.09-.3.06h-.13l-.52.07h-.15l-.61.05h-2.74l-.4-.07-.41-.08h-.1l-.57-.15h-.16l-.46-.16h-.13l-.4-.17-.2-.09-.55-.29-125-72.17A3.77,3.77,0,0,1,.5,157.91v5a3.77,3.77,0,0,0,2.23,3.11l125,72.17.55.29.2.08.34.15h.19l.46.16h.27l.46.12h.1l.23.05h.19l.4.07h3.5l.52-.07h.19l.24-.05.43.01.3-.08.39-.11h.08l.46-.16h.06l.48-.21.14-.07.51-.27,84.09-48.87.09-.05.08-.05.14-.09.12-.08.13-.09.11-.08.12-.09.1-.09.11-.09h0l.17-.17.06-.06.2-.23h0v-.05l.11-.15.05-.08.08-.13h0v-.06l.06-.11v-.26h0v-5.91S224.68,181.19,224.68,181.23Z" transform="translate(44.52 399.25)"/>
    <path id="Path_276" data-name="Path 276" class="cls-1" d="M222.46,178c3,1.71,3,4.47,0,6.18L138.4,233a11.76,11.76,0,0,1-10.67,0l-125-72.17c-3-1.71-3-4.47,0-6.18L86.8,105.82a11.75,11.75,0,0,1,10.67,0l10,5.75-1.62.94,104.89,60.56,1.62-.94ZM96.76,210.35l29.94-17.4a1,1,0,0,0,0-1.94L75.3,161.34a3.69,3.69,0,0,0-3.35,0L42,178.74a1,1,0,0,0,0,1.94l51.39,29.67a3.69,3.69,0,0,0,3.35,0m-14.16-55L76.36,159a.59.59,0,0,0,0,1.12l43.29,25a2.12,2.12,0,0,0,1.93,0l6.24-3.63a.59.59,0,0,0,0-1.12l-43.29-25a2.12,2.12,0,0,0-1.93,0M52.35,127.63l-6.24,3.63a.59.59,0,0,0,0,1.12l18.12,10.46a2.12,2.12,0,0,0,1.93,0l6.24-3.63a.59.59,0,0,0,0-1.12L54.28,127.63a2.12,2.12,0,0,0-1.93,0m126.14,80.06,6.24-3.63a.59.59,0,0,0,0-1.12l-17.44-10.07a2.13,2.13,0,0,0-1.93,0l-6.24,3.63a.59.59,0,0,0,0,1.12l17.44,10.07a2.12,2.12,0,0,0,1.93,0M61.33,122.41,55.09,126a.59.59,0,0,0,0,1.12l13.49,7.79a2.12,2.12,0,0,0,1.93,0l6.24-3.63a.59.59,0,0,0,0-1.12l-13.49-7.79a2.12,2.12,0,0,0-1.93,0m126.14,80.06,6.24-3.63a.59.59,0,0,0,0-1.12L180.37,190a2.12,2.12,0,0,0-1.93,0l-6.24,3.63a.59.59,0,0,0,0,1.12l13.33,7.7a2.12,2.12,0,0,0,1.93,0M70.28,117.21,64,120.84A.59.59,0,0,0,64,122l11.15,6.44a2.12,2.12,0,0,0,1.93,0l6.24-3.63a.59.59,0,0,0,0-1.12l-11.15-6.44a2.12,2.12,0,0,0-1.93,0m135,74.9,6.24-3.63c.63-.37.41-.88,0-1.12l-11.11-6.42a2.12,2.12,0,0,0-1.93,0l-6.24,3.63a.59.59,0,0,0,0,1.12l11.11,6.42a2.12,2.12,0,0,0,1.93,0m-72.25-.37,6.24-3.63a.59.59,0,0,0,0-1.12l-8.86-5.11a2.13,2.13,0,0,0-1.93,0l-6.24,3.63a.59.59,0,0,0,0,1.12l8.86,5.11a2.12,2.12,0,0,0,1.93,0M75.56,158.54l6.24-3.63a.59.59,0,0,0,0-1.12l-8.86-5.11a2.12,2.12,0,0,0-1.93,0l-6.24,3.63a.59.59,0,0,0,0,1.12l8.86,5.11a2.12,2.12,0,0,0,1.93,0m80.2,28.79L149.52,191a.59.59,0,0,0,0,1.12l6.57,3.79a2.13,2.13,0,0,0,1.93,0l6.24-3.63a.59.59,0,0,0,0-1.12l-6.57-3.79a2.13,2.13,0,0,0-1.93,0M100,155.14a.59.59,0,0,0,0-1.12l-6.57-3.79a2.13,2.13,0,0,0-1.93,0l-6.24,3.63a.59.59,0,0,0,0,1.12l6.57,3.79a2.12,2.12,0,0,0,1.93,0l6.24-3.63m9.86,5.69-6.24,3.63a.59.59,0,0,0,0,1.12l6.57,3.79a2.13,2.13,0,0,0,1.93,0l6.24-3.63a.59.59,0,0,0,0-1.12l-6.57-3.79a2.13,2.13,0,0,0-1.93,0m27.54,15.9-6.24,3.63a.59.59,0,0,0,0,1.12l6.57,3.79a2.12,2.12,0,0,0,1.93,0l6.24-3.63a.59.59,0,0,0,0-1.12l-6.57-3.79a2.13,2.13,0,0,0-1.93,0M119,166.13l-6.24,3.63a.59.59,0,0,0,0,1.12l6.57,3.79a2.13,2.13,0,0,0,1.93,0l6.24-3.63a.59.59,0,0,0,0-1.12l-6.5-3.79a2.13,2.13,0,0,0-1.93,0m1-21.28-6.57-3.79a2.12,2.12,0,0,0-1.93,0l-6.24,3.63a.59.59,0,0,0,0,1.12l6.57,3.79a2.13,2.13,0,0,0,1.93,0l6.24-3.63a.59.59,0,0,0,0-1.12m-20.3-13.67,6.24-3.63a.59.59,0,0,0,0-1.12l-6.57-3.79a2.12,2.12,0,0,0-1.93,0l-6.24,3.63a.59.59,0,0,0,0,1.12l6.57,3.79a2.13,2.13,0,0,0,1.93,0M128.55,180a2.12,2.12,0,0,0,1.93,0l6.24-3.63a.59.59,0,0,0,0-1.12l-6.57-3.79a2.12,2.12,0,0,0-1.93,0l-6.22,3.6a.59.59,0,0,0,0,1.12l6.57,3.79m-44-26.5,6.24-3.63a.59.59,0,0,0,0-1.12l-6.57-3.79a2.12,2.12,0,0,0-1.93,0l-6.24,3.63a.59.59,0,0,0,0,1.12l6.57,3.79a2.12,2.12,0,0,0,1.93,0m94.21,34.73,6.57,3.79a2.13,2.13,0,0,0,1.93,0l6.24-3.63a.59.59,0,0,0,0-1.12L187,183.46a2.12,2.12,0,0,0-1.93,0l-6.24,3.63a.59.59,0,0,0,0,1.12m-40.35-32.75-6.57-3.79a2.12,2.12,0,0,0-1.93,0l-6.24,3.63a.59.59,0,0,0,0,1.12l6.57,3.79a2.13,2.13,0,0,0,1.93,0l6.24-3.63a.59.59,0,0,0,0-1.12m44,23.43,6.24-3.63a.59.59,0,0,0,0-1.12l-6.57-3.79a2.12,2.12,0,0,0-1.93,0L173.9,174a.59.59,0,0,0,0,1.12l6.57,3.79a2.12,2.12,0,0,0,1.93,0m-64.26-37.1,6.24-3.63a.59.59,0,0,0,0-1.12l-6.57-3.79a2.12,2.12,0,0,0-1.93,0l-6.24,3.63a.59.59,0,0,0,0,1.12l6.57,3.79a2.13,2.13,0,0,0,1.93,0m33.11,60.46,6.24-3.63a.59.59,0,0,0,0-1.12l-6.57-3.79a2.13,2.13,0,0,0-1.93,0l-6.24,3.63a.59.59,0,0,0,0,1.12l6.57,3.79a2.12,2.12,0,0,0,1.93,0M84,125.16l-6.24,3.63a.59.59,0,0,0,0,1.12l6.57,3.79a2.13,2.13,0,0,0,1.93,0l6.24-3.63a.59.59,0,0,0,0-1.12L86,125.16a2.12,2.12,0,0,0-1.93,0m91.11,51.49-6.57-3.79a2.12,2.12,0,0,0-1.93,0l-6.24,3.63a.59.59,0,0,0,0,1.12L167,181.4a2.13,2.13,0,0,0,1.93,0l6.24-3.63a.59.59,0,0,0,0-1.12m-18.36-10.6-6.57-3.79a2.12,2.12,0,0,0-1.93,0l-6.24,3.63a.59.59,0,0,0,0,1.12l6.57,3.79a2.13,2.13,0,0,0,1.93,0l6.24-3.63a.59.59,0,0,0,0-1.12M154.86,163l6.24-3.63a.59.59,0,0,0,0-1.12l-6.57-3.79a2.12,2.12,0,0,0-1.93,0l-6.24,3.63a.59.59,0,0,0,0,1.12l6.57,3.79a2.13,2.13,0,0,0,1.93,0M136.5,152.4l6.24-3.63a.59.59,0,0,0,0-1.12l-6.57-3.79a2.12,2.12,0,0,0-1.93,0L128,147.48a.59.59,0,0,0,0,1.12l6.57,3.79a2.12,2.12,0,0,0,1.93,0M146.58,182l-6.24,3.63a.59.59,0,0,0,0,1.12l6.57,3.79a2.12,2.12,0,0,0,1.93,0l6.24-3.63a.59.59,0,0,0,0-1.12L148.5,182a2.12,2.12,0,0,0-1.93,0m-45.9-26.5-6.24,3.63a.59.59,0,0,0,0,1.12l6.57,3.79a2.12,2.12,0,0,0,1.93,0l6.24-3.63a.59.59,0,0,0,0-1.12l-6.57-3.79a2.12,2.12,0,0,0-1.93,0M80.46,141.8,87,145.59a2.12,2.12,0,0,0,1.93,0L95.2,142a.59.59,0,0,0,0-1.12l-6.57-3.79a2.12,2.12,0,0,0-1.93,0l-6.24,3.63a.59.59,0,0,0,0,1.12m55.08,31.8,6.57,3.79a2.12,2.12,0,0,0,1.93,0l6.24-3.63a.59.59,0,0,0,0-1.12l-6.57-3.79a2.12,2.12,0,0,0-1.93,0l-6.24,3.63a.59.59,0,0,0,0,1.12m27.54,15.9,6.57,3.79a2.13,2.13,0,0,0,1.93,0l6.24-3.63a.59.59,0,0,0,0-1.12l-6.57-3.79a2.12,2.12,0,0,0-1.93,0l-6.24,3.63a.59.59,0,0,0,0,1.12M117.18,163l6.57,3.79a2.13,2.13,0,0,0,1.93,0l6.24-3.63a.59.59,0,0,0,0-1.12l-6.57-3.79a2.12,2.12,0,0,0-1.93,0l-6.24,3.63a.59.59,0,0,0,0,1.12m30.44-2.24L141.05,157a2.12,2.12,0,0,0-1.93,0l-6.24,3.63a.59.59,0,0,0,0,1.12l6.57,3.79a2.12,2.12,0,0,0,1.93,0l6.24-3.63a.59.59,0,0,0,0-1.12m-45.9-26.5-6.57-3.79a2.12,2.12,0,0,0-1.93,0L87,134.09a.59.59,0,0,0,0,1.12L93.57,139a2.12,2.12,0,0,0,1.93,0l6.24-3.63a.59.59,0,0,0,0-1.12M184.34,182l-6.57-3.79a2.12,2.12,0,0,0-1.93,0l-6.24,3.63a.59.59,0,0,0,0,1.12l6.57,3.79a2.12,2.12,0,0,0,1.93,0l6.24-3.63a.59.59,0,0,0,0-1.12m-57-34.87,6.24-3.63a.59.59,0,0,0,0-1.12L127,138.55a2.12,2.12,0,0,0-1.93,0l-6.24,3.63a.59.59,0,0,0,0,1.12l6.57,3.79a2.12,2.12,0,0,0,1.93,0m14.75,49.86,6.24-3.63a.59.59,0,0,0,0-1.12l-6.57-3.79a2.12,2.12,0,0,0-1.93,0L133.57,192a.59.59,0,0,0,0,1.12l6.57,3.79a2.12,2.12,0,0,0,1.93,0m-60-74.86,6.57,3.79a2.12,2.12,0,0,0,1.93,0l6.24-3.63a.59.59,0,0,0,0-1.12l-6.57-3.79a2.12,2.12,0,0,0-1.93,0L82.1,121a.59.59,0,0,0,0,1.12m-2.94-10-6.24,3.63a.59.59,0,0,0,0,1.12l6.57,3.79a2.13,2.13,0,0,0,1.93,0L87.66,117a.59.59,0,0,0,0-1.12L81.09,112a2.12,2.12,0,0,0-1.93,0M164,168.29l6.24-3.63a.59.59,0,0,0,0-1.12l-6.57-3.79a2.12,2.12,0,0,0-1.93,0l-6.24,3.63a.59.59,0,0,0,0,1.12l6.57,3.79a2.13,2.13,0,0,0,1.93,0m9.18,5.3,6.24-3.63a.59.59,0,0,0,0-1.12L172.88,165a2.12,2.12,0,0,0-1.93,0l-6.24,3.63a.59.59,0,0,0,0,1.12l6.57,3.79a2.12,2.12,0,0,0,1.93,0M98.82,152.4l6.57,3.79a2.12,2.12,0,0,0,1.93,0l6.24-3.63a.59.59,0,0,0,0-1.12L107,147.65a2.12,2.12,0,0,0-1.93,0l-6.24,3.63a.59.59,0,0,0,0,1.12m97.6,44.87,6.24-3.63a.59.59,0,0,0,0-1.12l-6.57-3.79a2.12,2.12,0,0,0-1.93,0l-6.24,3.63a.59.59,0,0,0,0,1.12l6.57,3.79a2.12,2.12,0,0,0,1.93,0m-26.81,15.58,6.24-3.63a.59.59,0,0,0,0-1.12l-6.57-3.79a2.12,2.12,0,0,0-1.93,0l-6.24,3.63a.59.59,0,0,0,0,1.12l6.57,3.79a2.12,2.12,0,0,0,1.93,0M96.17,140.5l6.57,3.79a2.12,2.12,0,0,0,1.93,0l6.24-3.63a.59.59,0,0,0,0-1.12l-6.57-3.79a2.12,2.12,0,0,0-1.93,0l-6.24,3.63a.59.59,0,0,0,0,1.12m33.09,9.65-6.57-3.79a2.12,2.12,0,0,0-1.93,0L114.53,150a.59.59,0,0,0,0,1.12l6.57,3.79a2.12,2.12,0,0,0,1.93,0l6.24-3.63a.59.59,0,0,0,0-1.12M166,171.35l-6.57-3.79a2.12,2.12,0,0,0-1.93,0l-6.24,3.63a.59.59,0,0,0,0,1.12l6.57,3.79a2.12,2.12,0,0,0,1.93,0l6.24-3.63a.59.59,0,0,0,0-1.12m-65.53-39.78a.59.59,0,0,0,0,1.12l6.57,3.79a2.12,2.12,0,0,0,1.93,0l6.24-3.63a.59.59,0,0,0,0-1.12l-6.57-3.79a2.12,2.12,0,0,0-1.93,0l-6.24,3.63m91.12,52.61,6.24-3.63a.59.59,0,0,0,0-1.12l-6.57-3.79a2.12,2.12,0,0,0-1.93,0l-6.24,3.63a.59.59,0,0,0,0,1.12l6.57,3.79a2.12,2.12,0,0,0,1.93,0m-45.9-26.5,6.24-3.63a.59.59,0,0,0,0-1.12l-6.57-3.79a2.12,2.12,0,0,0-1.93,0l-6.24,3.63a.59.59,0,0,0,0,1.12l6.57,3.79a2.12,2.12,0,0,0,1.93,0m14.75,49.86,6.24-3.63a.59.59,0,0,0,0-1.12L160.1,199a2.12,2.12,0,0,0-1.93,0l-6.24,3.63a.59.59,0,0,0,0,1.12l6.57,3.79a2.12,2.12,0,0,0,1.93,0M95.87,142.35,89.63,146a.59.59,0,0,0,0,1.12l6.57,3.79a2.12,2.12,0,0,0,1.93,0l6.24-3.63a.59.59,0,0,0,0-1.12l-6.57-3.79a2.12,2.12,0,0,0-1.93,0M108,157.7l6.57,3.79a2.12,2.12,0,0,0,1.93,0l6.24-3.63a.59.59,0,0,0,0-1.12L116.16,153a2.12,2.12,0,0,0-1.93,0L108,156.58a.59.59,0,0,0,0,1.12m18.36,10.6,6.57,3.79a2.12,2.12,0,0,0,1.93,0l6.24-3.63a.59.59,0,0,0,0-1.12l-6.57-3.79a2.12,2.12,0,0,0-1.93,0l-6.24,3.63a.59.59,0,0,0,0,1.12m18.36,10.6,6.57,3.79a2.12,2.12,0,0,0,1.93,0l6.24-3.63a.59.59,0,0,0,0-1.12l-6.57-3.79a2.12,2.12,0,0,0-1.93,0l-6.24,3.63a.59.59,0,0,0,0,1.12m9.18,5.3,6.57,3.79a2.12,2.12,0,0,0,1.93,0l6.24-3.63a.59.59,0,0,0,0-1.12l-6.57-3.79a2.12,2.12,0,0,0-1.93,0l-6.24,3.63a.59.59,0,0,0,0,1.12M77.51,131.75l-6.24,3.63a.59.59,0,0,0,0,1.12l6.57,3.79a2.12,2.12,0,0,0,1.93,0L86,136.66a.59.59,0,0,0,0-1.12l-6.57-3.79a2.12,2.12,0,0,0-1.93,0m-4.38,7.88-6.24,3.63a.59.59,0,0,0,0,1.12l6.47,3.73a2.12,2.12,0,0,0,1.93,0l6.24-3.63c.5-.28.54-.74.1-1.06l-6.57-3.79a2.13,2.13,0,0,0-1.93,0m-18.33,6.93L61,142.94a.59.59,0,0,0,0-1.12l-6.47-3.73a2.12,2.12,0,0,0-1.93,0l-6.24,3.63a.59.59,0,0,0,0,1.12l6.47,3.73a2.12,2.12,0,0,0,1.93,0m9.18,5.3,6.24-3.63a.59.59,0,0,0,0-1.12l-6.47-3.73a2.13,2.13,0,0,0-1.93,0L55.59,147a.59.59,0,0,0,0,1.12l6.47,3.73a2.12,2.12,0,0,0,1.93,0m-18.36-10.6,6.24-3.63a.59.59,0,0,0,0-1.12l-6.47-3.73a2.12,2.12,0,0,0-1.93,0l-6.24,3.63a.59.59,0,0,0,0,1.12l6.47,3.73a2.12,2.12,0,0,0,1.93,0m38-31.81-1.92,1.12a.59.59,0,0,0,0,1.12l11.16,6.44a2.12,2.12,0,0,0,1.93,0L96.72,117a.59.59,0,0,0,0-1.12l-11.16-6.44a2.12,2.12,0,0,0-1.93,0M115.7,128l-1.92,1.12a.59.59,0,0,0,0,1.12l6.57,3.79a2.13,2.13,0,0,0,1.93,0l1.92-1.12a.59.59,0,0,0,0-1.12L117.63,128a2.12,2.12,0,0,0-1.93,0m36.72,21.2-1.92,1.12a.59.59,0,0,0,0,1.12l6.57,3.79a2.13,2.13,0,0,0,1.93,0l1.92-1.12a.59.59,0,0,0,0-1.12l-6.57-3.79a2.12,2.12,0,0,0-1.93,0m-18.36-10.6-1.92,1.12a.59.59,0,0,0,0,1.12l6.57,3.79a2.13,2.13,0,0,0,1.93,0l1.92-1.12a.59.59,0,0,0,0-1.12L136,138.58a2.12,2.12,0,0,0-1.93,0m55.08,31.8-1.92,1.12a.59.59,0,0,0,0,1.12l6.57,3.79a2.13,2.13,0,0,0,1.93,0l1.92-1.12a.59.59,0,0,0,0-1.12l-6.57-3.79a2.12,2.12,0,0,0-1.93,0m-18.36-10.6-1.92,1.12a.59.59,0,0,0,0,1.12l6.57,3.79a2.13,2.13,0,0,0,1.93,0l1.92-1.12a.59.59,0,0,0,0-1.12l-6.57-3.79a2.12,2.12,0,0,0-1.93,0m9.18,5.3L178,166.19a.59.59,0,0,0,0,1.12l6.57,3.79a2.12,2.12,0,0,0,1.93,0l1.92-1.12a.59.59,0,0,0,0-1.12l-6.57-3.79a2.12,2.12,0,0,0-1.93,0m-73.44-42.4-1.92,1.12a.59.59,0,0,0,0,1.12l6.57,3.79a2.12,2.12,0,0,0,1.93,0l1.92-1.12a.59.59,0,0,0,0-1.12l-6.57-3.79a2.12,2.12,0,0,0-1.93,0m36.72,21.2L141.32,145a.59.59,0,0,0,0,1.12l6.57,3.79a2.12,2.12,0,0,0,1.93,0l1.92-1.12a.59.59,0,0,0,0-1.12l-6.57-3.79a2.12,2.12,0,0,0-1.93,0m-45.9-26.5-1.92,1.12a.59.59,0,0,0,0,1.12L102,123.4a2.12,2.12,0,0,0,1.93,0l1.92-1.12a.59.59,0,0,0,0-1.12l-6.57-3.79a2.12,2.12,0,0,0-1.93,0m27.54,15.9L123,134.39a.59.59,0,0,0,0,1.12l6.57,3.79a2.12,2.12,0,0,0,1.93,0l1.92-1.12a.59.59,0,0,0,0-1.12l-6.57-3.79a2.12,2.12,0,0,0-1.93,0M214.09,187l1.92-1.12a.59.59,0,0,0,0-1.12L209.43,181a2.12,2.12,0,0,0-1.93,0l-1.92,1.12a.59.59,0,0,0,0,1.12l6.57,3.79a2.12,2.12,0,0,0,1.93,0M161.6,154.48l-1.92,1.12a.59.59,0,0,0,0,1.12l6.57,3.79a2.12,2.12,0,0,0,1.93,0l1.92-1.12a.59.59,0,0,0,0-1.12l-6.57-3.79a2.12,2.12,0,0,0-1.93,0m36.72,21.2-1.92,1.12a.59.59,0,0,0,0,1.12l6.6,3.78a2.12,2.12,0,0,0,1.93,0l1.92-1.12a.59.59,0,0,0,0-1.12l-6.57-3.79a2.12,2.12,0,0,0-1.93,0" transform="translate(44.52 399.25)"/>
    <path id="Path_277" data-name="Path 277" class="cls-1" d="M96.76,210.35l29.94-17.4a1,1,0,0,0,0-1.94L75.3,161.34a3.69,3.69,0,0,0-3.35,0L42,178.74a1,1,0,0,0,0,1.94l51.39,29.67a3.69,3.69,0,0,0,3.35,0" transform="translate(44.52 399.25)"/>
    <path id="Path_278" data-name="Path 278" class="cls-1" d="M82.61,155.38,76.36,159a.59.59,0,0,0,0,1.12l43.29,25a2.12,2.12,0,0,0,1.93,0l6.24-3.63a.59.59,0,0,0,0-1.12l-43.29-25a2.12,2.12,0,0,0-1.93,0" transform="translate(44.52 399.25)"/>
    <path id="Path_279" data-name="Path 279" class="cls-1" d="M52.35,127.63l-6.24,3.63a.59.59,0,0,0,0,1.12l18.12,10.46a2.12,2.12,0,0,0,1.93,0l6.24-3.63a.59.59,0,0,0,0-1.12L54.28,127.63a2.12,2.12,0,0,0-1.93,0" transform="translate(44.52 399.25)"/>
    <path id="Path_280" data-name="Path 280" class="cls-1" d="M178.49,207.69l6.24-3.63a.59.59,0,0,0,0-1.12l-17.44-10.07a2.13,2.13,0,0,0-1.93,0l-6.24,3.63a.59.59,0,0,0,0,1.12l17.44,10.07a2.12,2.12,0,0,0,1.93,0" transform="translate(44.52 399.25)"/>
    <path id="Path_281" data-name="Path 281" class="cls-1" d="M61.33,122.41,55.09,126a.59.59,0,0,0,0,1.12l13.49,7.79a2.12,2.12,0,0,0,1.93,0l6.24-3.63a.59.59,0,0,0,0-1.12l-13.49-7.79a2.12,2.12,0,0,0-1.93,0" transform="translate(44.52 399.25)"/>
    <path id="Path_282" data-name="Path 282" class="cls-1" d="M187.47,202.47l6.24-3.63a.59.59,0,0,0,0-1.12L180.37,190a2.12,2.12,0,0,0-1.93,0l-6.24,3.63a.59.59,0,0,0,0,1.12l13.33,7.7a2.12,2.12,0,0,0,1.93,0" transform="translate(44.52 399.25)"/>
    <path id="Path_283" data-name="Path 283" class="cls-1" d="M70.28,117.21,64,120.84A.59.59,0,0,0,64,122l11.15,6.44a2.12,2.12,0,0,0,1.93,0l6.24-3.63a.59.59,0,0,0,0-1.12l-11.15-6.44a2.12,2.12,0,0,0-1.93,0" transform="translate(44.52 399.25)"/>
    <path id="Path_284" data-name="Path 284" class="cls-1" d="M205.3,192.11l6.24-3.63c.63-.37.41-.88,0-1.12l-11.11-6.42a2.12,2.12,0,0,0-1.93,0l-6.24,3.63a.59.59,0,0,0,0,1.12l11.11,6.42a2.12,2.12,0,0,0,1.93,0" transform="translate(44.52 399.25)"/>
    <path id="Path_285" data-name="Path 285" class="cls-1" d="M133.05,191.74l6.24-3.63a.59.59,0,0,0,0-1.12l-8.86-5.11a2.13,2.13,0,0,0-1.93,0l-6.24,3.63a.59.59,0,0,0,0,1.12l8.86,5.11a2.12,2.12,0,0,0,1.93,0" transform="translate(44.52 399.25)"/>
    <path id="Path_286" data-name="Path 286" class="cls-1" d="M75.56,158.54l6.24-3.63a.59.59,0,0,0,0-1.12l-8.86-5.11a2.12,2.12,0,0,0-1.93,0l-6.24,3.63a.59.59,0,0,0,0,1.12l8.86,5.11a2.12,2.12,0,0,0,1.93,0" transform="translate(44.52 399.25)"/>
    <path id="Path_287" data-name="Path 287" class="cls-1" d="M155.76,187.33,149.52,191a.59.59,0,0,0,0,1.12l6.57,3.79a2.13,2.13,0,0,0,1.93,0l6.24-3.63a.59.59,0,0,0,0-1.12l-6.57-3.79a2.13,2.13,0,0,0-1.93,0" transform="translate(44.52 399.25)"/>
    <path id="Path_288" data-name="Path 288" class="cls-1" d="M100,155.14a.59.59,0,0,0,0-1.12l-6.57-3.79a2.13,2.13,0,0,0-1.93,0l-6.24,3.63a.59.59,0,0,0,0,1.12l6.57,3.79a2.12,2.12,0,0,0,1.93,0l6.24-3.63" transform="translate(44.52 399.25)"/>
    <path id="Path_289" data-name="Path 289" class="cls-1" d="M109.86,160.83l-6.24,3.63a.59.59,0,0,0,0,1.12l6.57,3.79a2.13,2.13,0,0,0,1.93,0l6.24-3.63a.59.59,0,0,0,0-1.12l-6.57-3.79a2.13,2.13,0,0,0-1.93,0" transform="translate(44.52 399.25)"/>
    <path id="Path_290" data-name="Path 290" class="cls-1" d="M137.4,176.73l-6.24,3.63a.59.59,0,0,0,0,1.12l6.57,3.79a2.12,2.12,0,0,0,1.93,0l6.24-3.63a.59.59,0,0,0,0-1.12l-6.57-3.79a2.13,2.13,0,0,0-1.93,0" transform="translate(44.52 399.25)"/>
    <path id="Path_291" data-name="Path 291" class="cls-1" d="M119,166.13l-6.24,3.63a.59.59,0,0,0,0,1.12l6.57,3.79a2.13,2.13,0,0,0,1.93,0l6.24-3.63a.59.59,0,0,0,0-1.12l-6.5-3.79a2.13,2.13,0,0,0-1.93,0" transform="translate(44.52 399.25)"/>
    <path id="Path_292" data-name="Path 292" class="cls-1" d="M120.09,144.85l-6.57-3.79a2.12,2.12,0,0,0-1.93,0l-6.24,3.63a.59.59,0,0,0,0,1.12l6.57,3.79a2.13,2.13,0,0,0,1.93,0l6.24-3.63a.59.59,0,0,0,0-1.12" transform="translate(44.52 399.25)"/>
    <path id="Path_293" data-name="Path 293" class="cls-1" d="M99.78,131.19l6.24-3.63a.59.59,0,0,0,0-1.12l-6.57-3.79a2.12,2.12,0,0,0-1.93,0l-6.24,3.63a.59.59,0,0,0,0,1.12l6.57,3.79a2.13,2.13,0,0,0,1.93,0" transform="translate(44.52 399.25)"/>
    <path id="Path_294" data-name="Path 294" class="cls-1" d="M128.55,180a2.12,2.12,0,0,0,1.93,0l6.24-3.63a.59.59,0,0,0,0-1.12l-6.57-3.79a2.12,2.12,0,0,0-1.93,0l-6.22,3.6a.59.59,0,0,0,0,1.12l6.57,3.79" transform="translate(44.52 399.25)"/>
    <path id="Path_295" data-name="Path 295" class="cls-1" d="M84.58,153.47l6.24-3.63a.59.59,0,0,0,0-1.12l-6.57-3.79a2.12,2.12,0,0,0-1.93,0l-6.24,3.63a.59.59,0,0,0,0,1.12l6.57,3.79a2.12,2.12,0,0,0,1.93,0" transform="translate(44.52 399.25)"/>
    <path id="Path_296" data-name="Path 296" class="cls-1" d="M178.79,188.2l6.57,3.79a2.13,2.13,0,0,0,1.93,0l6.24-3.63a.59.59,0,0,0,0-1.12L187,183.46a2.12,2.12,0,0,0-1.93,0l-6.24,3.63a.59.59,0,0,0,0,1.12" transform="translate(44.52 399.25)"/>
    <path id="Path_297" data-name="Path 297" class="cls-1" d="M138.44,155.45l-6.57-3.79a2.12,2.12,0,0,0-1.93,0l-6.24,3.63a.59.59,0,0,0,0,1.12l6.57,3.79a2.13,2.13,0,0,0,1.93,0l6.24-3.63a.59.59,0,0,0,0-1.12" transform="translate(44.52 399.25)"/>
    <path id="Path_298" data-name="Path 298" class="cls-1" d="M182.4,178.89l6.24-3.63a.59.59,0,0,0,0-1.12l-6.57-3.79a2.12,2.12,0,0,0-1.93,0L173.9,174a.59.59,0,0,0,0,1.12l6.57,3.79a2.12,2.12,0,0,0,1.93,0" transform="translate(44.52 399.25)"/>
    <path id="Path_299" data-name="Path 299" class="cls-1" d="M118.14,141.79l6.24-3.63a.59.59,0,0,0,0-1.12l-6.57-3.79a2.12,2.12,0,0,0-1.93,0l-6.24,3.63a.59.59,0,0,0,0,1.12l6.57,3.79a2.13,2.13,0,0,0,1.93,0" transform="translate(44.52 399.25)"/>
    <path id="Path_300" data-name="Path 300" class="cls-1" d="M151.25,202.25l6.24-3.63a.59.59,0,0,0,0-1.12l-6.57-3.79a2.13,2.13,0,0,0-1.93,0l-6.24,3.63a.59.59,0,0,0,0,1.12l6.57,3.79a2.12,2.12,0,0,0,1.93,0" transform="translate(44.52 399.25)"/>
    <path id="Path_301" data-name="Path 301" class="cls-1" d="M84,125.16l-6.24,3.63a.59.59,0,0,0,0,1.12l6.57,3.79a2.13,2.13,0,0,0,1.93,0l6.24-3.63a.59.59,0,0,0,0-1.12L86,125.16a2.12,2.12,0,0,0-1.93,0" transform="translate(44.52 399.25)"/>
    <path id="Path_302" data-name="Path 302" class="cls-1" d="M175.16,176.65l-6.57-3.79a2.12,2.12,0,0,0-1.93,0l-6.24,3.63a.59.59,0,0,0,0,1.12L167,181.4a2.13,2.13,0,0,0,1.93,0l6.24-3.63a.59.59,0,0,0,0-1.12" transform="translate(44.52 399.25)"/>
    <path id="Path_303" data-name="Path 303" class="cls-1" d="M156.8,166.05l-6.57-3.79a2.12,2.12,0,0,0-1.93,0l-6.24,3.63a.59.59,0,0,0,0,1.12l6.57,3.79a2.13,2.13,0,0,0,1.93,0l6.24-3.63a.59.59,0,0,0,0-1.12" transform="translate(44.52 399.25)"/>
    <path id="Path_304" data-name="Path 304" class="cls-1" d="M154.86,163l6.24-3.63a.59.59,0,0,0,0-1.12l-6.57-3.79a2.12,2.12,0,0,0-1.93,0l-6.24,3.63a.59.59,0,0,0,0,1.12l6.57,3.79a2.13,2.13,0,0,0,1.93,0" transform="translate(44.52 399.25)"/>
    <path id="Path_305" data-name="Path 305" class="cls-1" d="M136.5,152.39l6.24-3.63a.59.59,0,0,0,0-1.12l-6.57-3.79a2.12,2.12,0,0,0-1.93,0L128,147.48a.59.59,0,0,0,0,1.12l6.57,3.79a2.12,2.12,0,0,0,1.93,0" transform="translate(44.52 399.25)"/>
    <path id="Path_306" data-name="Path 306" class="cls-1" d="M146.58,182l-6.24,3.63a.59.59,0,0,0,0,1.12l6.57,3.79a2.12,2.12,0,0,0,1.93,0l6.24-3.63a.59.59,0,0,0,0-1.12L148.5,182a2.12,2.12,0,0,0-1.93,0" transform="translate(44.52 399.25)"/>
    <path id="Path_307" data-name="Path 307" class="cls-1" d="M100.68,155.53l-6.24,3.63a.59.59,0,0,0,0,1.12l6.57,3.79a2.12,2.12,0,0,0,1.93,0l6.24-3.63a.59.59,0,0,0,0-1.12l-6.57-3.79a2.12,2.12,0,0,0-1.93,0" transform="translate(44.52 399.25)"/>
    <path id="Path_308" data-name="Path 308" class="cls-1" d="M80.46,141.8,87,145.59a2.12,2.12,0,0,0,1.93,0L95.2,142a.59.59,0,0,0,0-1.12l-6.57-3.79a2.12,2.12,0,0,0-1.93,0l-6.24,3.63a.59.59,0,0,0,0,1.12" transform="translate(44.52 399.25)"/>
    <path id="Path_309" data-name="Path 309" class="cls-1" d="M135.54,173.6l6.57,3.79a2.12,2.12,0,0,0,1.93,0l6.24-3.63a.59.59,0,0,0,0-1.12l-6.57-3.79a2.12,2.12,0,0,0-1.93,0l-6.24,3.63a.59.59,0,0,0,0,1.12" transform="translate(44.52 399.25)"/>
    <path id="Path_310" data-name="Path 310" class="cls-1" d="M163.08,189.5l6.57,3.79a2.13,2.13,0,0,0,1.93,0l6.24-3.63a.59.59,0,0,0,0-1.12l-6.57-3.79a2.12,2.12,0,0,0-1.93,0l-6.24,3.63a.59.59,0,0,0,0,1.12" transform="translate(44.52 399.25)"/>
    <path id="Path_311" data-name="Path 311" class="cls-1" d="M117.18,163l6.57,3.79a2.13,2.13,0,0,0,1.93,0l6.24-3.63a.59.59,0,0,0,0-1.12l-6.57-3.79a2.12,2.12,0,0,0-1.93,0l-6.24,3.63a.59.59,0,0,0,0,1.12" transform="translate(44.52 399.25)"/>
    <path id="Path_312" data-name="Path 312" class="cls-1" d="M147.62,160.75,141.05,157a2.12,2.12,0,0,0-1.93,0l-6.24,3.63a.59.59,0,0,0,0,1.12l6.57,3.79a2.12,2.12,0,0,0,1.93,0l6.24-3.63a.59.59,0,0,0,0-1.12" transform="translate(44.52 399.25)"/>
    <path id="Path_313" data-name="Path 313" class="cls-1" d="M101.73,134.25l-6.57-3.79a2.12,2.12,0,0,0-1.93,0L87,134.09a.59.59,0,0,0,0,1.12L93.57,139a2.12,2.12,0,0,0,1.93,0l6.24-3.63a.59.59,0,0,0,0-1.12" transform="translate(44.52 399.25)"/>
    <path id="Path_314" data-name="Path 314" class="cls-1" d="M184.34,182l-6.57-3.79a2.12,2.12,0,0,0-1.93,0l-6.24,3.63a.59.59,0,0,0,0,1.12l6.57,3.79a2.12,2.12,0,0,0,1.93,0l6.24-3.63a.59.59,0,0,0,0-1.12" transform="translate(44.52 399.25)"/>
    <path id="Path_315" data-name="Path 315" class="cls-1" d="M127.32,147.09l6.24-3.63a.59.59,0,0,0,0-1.12L127,138.55a2.12,2.12,0,0,0-1.93,0l-6.24,3.63a.59.59,0,0,0,0,1.12l6.57,3.79a2.12,2.12,0,0,0,1.93,0" transform="translate(44.52 399.25)"/>
    <path id="Path_316" data-name="Path 316" class="cls-1" d="M142.07,196.95l6.24-3.63a.59.59,0,0,0,0-1.12l-6.57-3.79a2.12,2.12,0,0,0-1.93,0L133.57,192a.59.59,0,0,0,0,1.12l6.57,3.79a2.12,2.12,0,0,0,1.93,0" transform="translate(44.52 399.25)"/>
    <path id="Path_317" data-name="Path 317" class="cls-1" d="M82.11,122.09l6.57,3.79a2.12,2.12,0,0,0,1.93,0l6.24-3.63a.59.59,0,0,0,0-1.12l-6.57-3.79a2.12,2.12,0,0,0-1.93,0L82.1,121a.59.59,0,0,0,0,1.12" transform="translate(44.52 399.25)"/>
    <path id="Path_318" data-name="Path 318" class="cls-1" d="M79.16,112l-6.24,3.63a.59.59,0,0,0,0,1.12l6.57,3.79a2.13,2.13,0,0,0,1.93,0L87.66,117a.59.59,0,0,0,0-1.12L81.09,112a2.12,2.12,0,0,0-1.93,0" transform="translate(44.52 399.25)"/>
    <path id="Path_319" data-name="Path 319" class="cls-1" d="M164,168.29l6.24-3.63a.59.59,0,0,0,0-1.12l-6.57-3.79a2.12,2.12,0,0,0-1.93,0l-6.24,3.63a.59.59,0,0,0,0,1.12l6.57,3.79a2.13,2.13,0,0,0,1.93,0" transform="translate(44.52 399.25)"/>
    <path id="Path_320" data-name="Path 320" class="cls-1" d="M173.22,173.58l6.24-3.63a.59.59,0,0,0,0-1.12L172.88,165a2.12,2.12,0,0,0-1.93,0l-6.24,3.63a.59.59,0,0,0,0,1.12l6.57,3.79a2.12,2.12,0,0,0,1.93,0" transform="translate(44.52 399.25)"/>
    <path id="Path_321" data-name="Path 321" class="cls-1" d="M98.82,152.4l6.57,3.79a2.12,2.12,0,0,0,1.93,0l6.24-3.63a.59.59,0,0,0,0-1.12L107,147.65a2.12,2.12,0,0,0-1.93,0l-6.24,3.63a.59.59,0,0,0,0,1.12" transform="translate(44.52 399.25)"/>
    <path id="Path_322" data-name="Path 322" class="cls-1" d="M196.42,197.27l6.24-3.63a.59.59,0,0,0,0-1.12l-6.57-3.79a2.12,2.12,0,0,0-1.93,0l-6.24,3.63a.59.59,0,0,0,0,1.12l6.57,3.79a2.12,2.12,0,0,0,1.93,0" transform="translate(44.52 399.25)"/>
    <path id="Path_323" data-name="Path 323" class="cls-1" d="M169.61,212.85l6.24-3.63a.59.59,0,0,0,0-1.12l-6.57-3.79a2.12,2.12,0,0,0-1.93,0l-6.24,3.63a.59.59,0,0,0,0,1.12l6.57,3.79a2.12,2.12,0,0,0,1.93,0" transform="translate(44.52 399.25)"/>
    <path id="Path_324" data-name="Path 324" class="cls-1" d="M96.17,140.5l6.57,3.79a2.12,2.12,0,0,0,1.93,0l6.24-3.63a.59.59,0,0,0,0-1.12l-6.57-3.79a2.12,2.12,0,0,0-1.93,0l-6.24,3.63a.59.59,0,0,0,0,1.12" transform="translate(44.52 399.25)"/>
    <path id="Path_325" data-name="Path 325" class="cls-1" d="M129.26,150.15l-6.57-3.79a2.12,2.12,0,0,0-1.93,0L114.53,150a.59.59,0,0,0,0,1.12l6.57,3.79a2.12,2.12,0,0,0,1.93,0l6.24-3.63a.59.59,0,0,0,0-1.12" transform="translate(44.52 399.25)"/>
    <path id="Path_326" data-name="Path 326" class="cls-1" d="M166,171.35l-6.57-3.79a2.12,2.12,0,0,0-1.93,0l-6.24,3.63a.59.59,0,0,0,0,1.12l6.57,3.79a2.12,2.12,0,0,0,1.93,0l6.24-3.63a.59.59,0,0,0,0-1.12" transform="translate(44.52 399.25)"/>
    <path id="Path_327" data-name="Path 327" class="cls-1" d="M100.46,131.58a.59.59,0,0,0,0,1.12l6.57,3.79a2.12,2.12,0,0,0,1.93,0l6.24-3.63a.59.59,0,0,0,0-1.12l-6.57-3.79a2.12,2.12,0,0,0-1.93,0l-6.24,3.63" transform="translate(44.52 399.25)"/>
    <path id="Path_328" data-name="Path 328" class="cls-1" d="M191.58,184.18l6.24-3.63a.59.59,0,0,0,0-1.12l-6.57-3.79a2.12,2.12,0,0,0-1.93,0l-6.24,3.63a.59.59,0,0,0,0,1.12l6.57,3.79a2.12,2.12,0,0,0,1.93,0" transform="translate(44.52 399.25)"/>
    <path id="Path_329" data-name="Path 329" class="cls-1" d="M145.68,157.69l6.24-3.63a.59.59,0,0,0,0-1.12l-6.57-3.79a2.12,2.12,0,0,0-1.93,0l-6.24,3.63a.59.59,0,0,0,0,1.12l6.57,3.79a2.12,2.12,0,0,0,1.93,0" transform="translate(44.52 399.25)"/>
    <path id="Path_330" data-name="Path 330" class="cls-1" d="M160.43,207.55l6.24-3.63a.59.59,0,0,0,0-1.12L160.1,199a2.12,2.12,0,0,0-1.93,0l-6.24,3.63a.59.59,0,0,0,0,1.12l6.57,3.79a2.12,2.12,0,0,0,1.93,0" transform="translate(44.52 399.25)"/>
    <path id="Path_331" data-name="Path 331" class="cls-1" d="M95.87,142.35,89.63,146a.59.59,0,0,0,0,1.12l6.57,3.79a2.12,2.12,0,0,0,1.93,0l6.24-3.63a.59.59,0,0,0,0-1.12l-6.57-3.79a2.12,2.12,0,0,0-1.93,0" transform="translate(44.52 399.25)"/>
    <path id="Path_332" data-name="Path 332" class="cls-1" d="M108,157.7l6.57,3.79a2.12,2.12,0,0,0,1.93,0l6.24-3.63a.59.59,0,0,0,0-1.12L116.16,153a2.12,2.12,0,0,0-1.93,0L108,156.58a.59.59,0,0,0,0,1.12" transform="translate(44.52 399.25)"/>
    <path id="Path_333" data-name="Path 333" class="cls-1" d="M126.36,168.3l6.57,3.79a2.12,2.12,0,0,0,1.93,0l6.24-3.63a.59.59,0,0,0,0-1.12l-6.57-3.79a2.12,2.12,0,0,0-1.93,0l-6.24,3.63a.59.59,0,0,0,0,1.12" transform="translate(44.52 399.25)"/>
    <path id="Path_334" data-name="Path 334" class="cls-1" d="M144.72,178.9l6.57,3.79a2.12,2.12,0,0,0,1.93,0l6.24-3.63a.59.59,0,0,0,0-1.12l-6.57-3.79a2.12,2.12,0,0,0-1.93,0l-6.24,3.63a.59.59,0,0,0,0,1.12" transform="translate(44.52 399.25)"/>
    <path id="Path_335" data-name="Path 335" class="cls-1" d="M153.9,184.2l6.57,3.79a2.12,2.12,0,0,0,1.93,0l6.24-3.63a.59.59,0,0,0,0-1.12l-6.57-3.79a2.12,2.12,0,0,0-1.93,0l-6.24,3.63a.59.59,0,0,0,0,1.12" transform="translate(44.52 399.25)"/>
    <path id="Path_336" data-name="Path 336" class="cls-1" d="M77.51,131.75l-6.24,3.63a.59.59,0,0,0,0,1.12l6.57,3.79a2.12,2.12,0,0,0,1.93,0L86,136.66a.59.59,0,0,0,0-1.12l-6.57-3.79a2.12,2.12,0,0,0-1.93,0" transform="translate(44.52 399.25)"/>
    <path id="Path_337" data-name="Path 337" class="cls-1" d="M73.14,139.63l-6.24,3.63a.59.59,0,0,0,0,1.12l6.47,3.73a2.12,2.12,0,0,0,1.93,0l6.24-3.63c.5-.28.54-.74.1-1.06l-6.57-3.79a2.13,2.13,0,0,0-1.93,0" transform="translate(44.52 399.25)"/>
    <path id="Path_338" data-name="Path 338" class="cls-1" d="M54.81,146.57,61,142.94a.59.59,0,0,0,0-1.12l-6.47-3.73a2.12,2.12,0,0,0-1.93,0l-6.24,3.63a.59.59,0,0,0,0,1.12l6.47,3.73a2.12,2.12,0,0,0,1.93,0" transform="translate(44.52 399.25)"/>
    <path id="Path_339" data-name="Path 339" class="cls-1" d="M64,151.87l6.24-3.63a.59.59,0,0,0,0-1.12l-6.47-3.73a2.13,2.13,0,0,0-1.93,0L55.59,147a.59.59,0,0,0,0,1.12l6.47,3.73a2.12,2.12,0,0,0,1.93,0" transform="translate(44.52 399.25)"/>
    <path id="Path_340" data-name="Path 340" class="cls-1" d="M45.63,141.27l6.24-3.63a.59.59,0,0,0,0-1.12l-6.47-3.73a2.12,2.12,0,0,0-1.93,0l-6.24,3.63a.59.59,0,0,0,0,1.12l6.47,3.73a2.12,2.12,0,0,0,1.93,0" transform="translate(44.52 399.25)"/>
    <path id="Path_341" data-name="Path 341" class="cls-1" d="M83.62,109.46l-1.92,1.12a.59.59,0,0,0,0,1.12l11.16,6.44a2.12,2.12,0,0,0,1.93,0L96.72,117a.59.59,0,0,0,0-1.12l-11.16-6.44a2.12,2.12,0,0,0-1.93,0" transform="translate(44.52 399.25)"/>
    <path id="Path_342" data-name="Path 342" class="cls-1" d="M115.7,128l-1.92,1.12a.59.59,0,0,0,0,1.12l6.57,3.79a2.13,2.13,0,0,0,1.93,0l1.92-1.12a.59.59,0,0,0,0-1.12L117.63,128a2.12,2.12,0,0,0-1.93,0" transform="translate(44.52 399.25)"/>
    <path id="Path_343" data-name="Path 343" class="cls-1" d="M152.42,149.18l-1.92,1.12a.59.59,0,0,0,0,1.12l6.57,3.79a2.13,2.13,0,0,0,1.93,0l1.92-1.12a.59.59,0,0,0,0-1.12l-6.57-3.79a2.12,2.12,0,0,0-1.93,0" transform="translate(44.52 399.25)"/>
    <path id="Path_344" data-name="Path 344" class="cls-1" d="M134.06,138.58l-1.92,1.12a.59.59,0,0,0,0,1.12l6.57,3.79a2.13,2.13,0,0,0,1.93,0l1.92-1.12a.59.59,0,0,0,0-1.12L136,138.58a2.12,2.12,0,0,0-1.93,0" transform="translate(44.52 399.25)"/>
    <path id="Path_345" data-name="Path 345" class="cls-1" d="M189.14,170.38l-1.92,1.12a.59.59,0,0,0,0,1.12l6.57,3.79a2.13,2.13,0,0,0,1.93,0l1.92-1.12a.59.59,0,0,0,0-1.12l-6.57-3.79a2.12,2.12,0,0,0-1.93,0" transform="translate(44.52 399.25)"/>
    <path id="Path_346" data-name="Path 346" class="cls-1" d="M170.78,159.78l-1.92,1.12a.59.59,0,0,0,0,1.12l6.57,3.79a2.13,2.13,0,0,0,1.93,0l1.92-1.12a.59.59,0,0,0,0-1.12l-6.57-3.79a2.12,2.12,0,0,0-1.93,0" transform="translate(44.52 399.25)"/>
    <path id="Path_347" data-name="Path 347" class="cls-1" d="M180,165.08l-2,1.11a.59.59,0,0,0,0,1.12l6.57,3.79a2.12,2.12,0,0,0,1.93,0l1.92-1.12a.59.59,0,0,0,0-1.12l-6.57-3.79a2.12,2.12,0,0,0-1.93,0" transform="translate(44.52 399.25)"/>
    <path id="Path_348" data-name="Path 348" class="cls-1" d="M106.52,122.68l-1.92,1.12a.59.59,0,0,0,0,1.12l6.57,3.79a2.12,2.12,0,0,0,1.93,0l1.92-1.12a.59.59,0,0,0,0-1.12l-6.57-3.79a2.12,2.12,0,0,0-1.93,0" transform="translate(44.52 399.25)"/>
    <path id="Path_349" data-name="Path 349" class="cls-1" d="M143.24,143.88,141.32,145a.59.59,0,0,0,0,1.12l6.57,3.79a2.12,2.12,0,0,0,1.93,0l1.92-1.12a.59.59,0,0,0,0-1.12l-6.57-3.79a2.12,2.12,0,0,0-1.93,0" transform="translate(44.52 399.25)"/>
    <path id="Path_350" data-name="Path 350" class="cls-1" d="M97.35,117.38l-1.92,1.12a.59.59,0,0,0,0,1.12L102,123.4a2.12,2.12,0,0,0,1.93,0l1.92-1.12a.59.59,0,0,0,0-1.12l-6.57-3.79a2.12,2.12,0,0,0-1.93,0" transform="translate(44.52 399.25)"/>
    <path id="Path_351" data-name="Path 351" class="cls-1" d="M124.88,133.28,123,134.39a.59.59,0,0,0,0,1.12l6.57,3.79a2.12,2.12,0,0,0,1.93,0l1.92-1.12a.59.59,0,0,0,0-1.12l-6.57-3.79a2.12,2.12,0,0,0-1.93,0" transform="translate(44.52 399.25)"/>
    <path id="Path_352" data-name="Path 352" class="cls-1" d="M214.09,187l1.92-1.12a.59.59,0,0,0,0-1.12L209.43,181a2.12,2.12,0,0,0-1.93,0l-1.92,1.12a.59.59,0,0,0,0,1.12l6.57,3.79a2.12,2.12,0,0,0,1.93,0" transform="translate(44.52 399.25)"/>
    <path id="Path_353" data-name="Path 353" class="cls-1" d="M161.6,154.48l-1.92,1.12a.59.59,0,0,0,0,1.12l6.57,3.79a2.12,2.12,0,0,0,1.93,0l1.92-1.12a.59.59,0,0,0,0-1.12l-6.57-3.79a2.12,2.12,0,0,0-1.93,0" transform="translate(44.52 399.25)"/>
    <path id="Path_354" data-name="Path 354" class="cls-1" d="M198.32,175.68l-1.92,1.12a.59.59,0,0,0,0,1.12l6.6,3.78a2.12,2.12,0,0,0,1.93,0l1.92-1.12a.59.59,0,0,0,0-1.12l-6.57-3.79a2.12,2.12,0,0,0-1.93,0" transform="translate(44.52 399.25)"/>
    <path id="Path_355" data-name="Path 355" class="cls-1" d="M221.25,186.24c.62-.36,1.12-.07,1.12.64a2.45,2.45,0,0,1-1.11,1.93c-.62.36-1.12.07-1.12-.64a2.45,2.45,0,0,1,1.11-1.93Z" transform="translate(44.52 399.25)"/>
    <path id="Path_356" data-name="Path 356" class="cls-2" d="M223.73,74.19a11.75,11.75,0,0,1,5.33,9.24l-.28,97.26c0,3.4-2.41,4.77-5.37,3.06l-125-72.17a11.75,11.75,0,0,1-5.33-9.24l.28-97.26c0-3.39,2.41-4.76,5.37-3.06Zm0,93.41L224,80.28,98.44,7.79,98.2,95.11,223.75,167.6" transform="translate(44.52 399.25)"/>
  </g>
</svg>
