<svg xmlns="http://www.w3.org/2000/svg" viewBox="590.734 312.651 205.097 281.119">
  <defs>
    <style>
      .cls-1 {
        fill: none;
      }

      .cls-1, .cls-2 {
        stroke: #ffb61e;
        stroke-miterlimit: 10;
        stroke-width: 1px;
      }

      .cls-2 {
        fill: #1b1b1b;
      }
    </style>
  </defs>
  <g id="iMacOutline" transform="translate(590.744 312.601)">
    <g id="Escritorio_2D" data-name="Escritorio 2D" transform="translate(0.49 0.55)">
      <g id="Monitor" transform="translate(16.776)">
        <path id="Path_86" data-name="Path 86" class="cls-1" d="M190.4,360.945v.2a.133.133,0,0,1-.033.1l-.039.088-.05.11-.05.077-.083.127-.094.121h0l-.149.149-.11.088-.1.077-.127.088-.138.088-30.863,23.18a3.705,3.705,0,0,1-.336.171l-.1.044-.281.1-.1.033-.182.055-.143.039-.2.044h-.138l-.408.055h-1.675l-.187-.033-.149-.028-.22-.055-.121-.033c-.132-.039-.259-.083-.386-.132l-.182-.077-.094-.039-.265-.138-33.883-19.554a1.791,1.791,0,0,1-1.058-1.477v2.105a1.791,1.791,0,0,0,1.058,1.477l33.9,19.576.265.138.094.039.16.072h0c.127.05.254.094.386.132h.127l.22.055h.149l.187.033h1.6l.408-.055h.116l.2-.044.138-.039.187-.055h.1l.281-.1.1-.044a3.727,3.727,0,0,0,.336-.171l30.863-23.18h.044l.094-.061.127-.088.1-.077.11-.094h0l.127-.132v-.028L190,363.8v-.039l.083-.127.033-.055h0c0-.039.039-.072.055-.11l.033-.066h0a.133.133,0,0,1,.033-.1c.033-.033,0-.05,0-.072h0V360.9C190.4,360.852,190.4,360.89,190.4,360.945Z" transform="translate(-70.216 -162.293)"/>
        <path id="Path_87" data-name="Path 87" class="cls-1" d="M189.332,345.556c1.405.81,1.411,2.122,0,2.937l-30.863,23.18a5.588,5.588,0,0,1-5.07,0L119.51,352.12c-1.405-.81-1.411-2.122,0-2.937l39.13-18.408a5.583,5.583,0,0,1,5.065,0Z" transform="translate(-70.217 -148.508)"/>
        <path id="Path_88" data-name="Path 88" class="cls-2" d="M30.969,223.14l-.039,14.114a12.863,12.863,0,0,0,5.825,10.091l171.421,98.982c3.23,1.863,5.853.369,5.864-3.345l.039-14.114Z" transform="translate(-30.93 -100.466)"/>
        <path id="Path_89" data-name="Path 89" class="cls-1" d="M208.616,104.45a12.835,12.835,0,0,1,5.825,10.1l-.325,116.265L31,125.073,31.331,8.813c0-3.709,2.634-5.208,5.864-3.345Zm-170.1,18.628L206.6,220.141l.309-109.222L38.82,13.862l-.309,109.222" transform="translate(-30.961 -2.398)"/>
        <path id="Path_90" data-name="Path 90" class="cls-1" d="M44.939,21.34,44.63,130.562l168.115,97.064.309-109.222Z" transform="translate(-37.08 -9.882)"/>
        <path id="Path_91" data-name="Path 91" class="cls-1" d="M363.26,414.98Z" transform="translate(-180.105 -186.578)"/>
        <path id="Path_92" data-name="Path 92" class="cls-1" d="M40.239.914h.072L40.52.8h.072l.281-.149h0a2.007,2.007,0,0,0,.292-.066h.083L41.512.55h.463a1.368,1.368,0,0,1,.391.039h0a4.684,4.684,0,0,1,.485.1h.044l.314.1h.066l.259.1h.033l.066.028.281.127.1.05.369.2L215.832,100.3c.187.11.375.226.551.353l.176.127.369.276.2.165.331.287.2.187.121.116.127.132q.2.2.391.413l.127.132.1.121.226.276.149.182.116.154.165.22.11.149.176.265.116.171.05.072q.154.242.3.5v.033l.055.1.2.358.083.171.088.176.077.154c.066.138.127.276.187.413l.033.072h0q.116.259.215.551l.033.1.072.193c.033.088.066.176.094.265s.039.138.061.2l.072.243.044.149a1.284,1.284,0,0,0,.066.27c.022.094.05.2.072.3v.1a.425.425,0,0,0,.039.215c.028.154.061.314.083.468v.127a1.291,1.291,0,0,0,.028.292.531.531,0,0,1,0,.209v.645L221.2,226.665h0l-.039,14.114a4.08,4.08,0,0,1-1.7,3.748l-1.979,1.152L215.5,246.83a4.086,4.086,0,0,0,1.7-3.748l.039-14.114h0l1.979-1.146h0l.331-116.259v-.854c0-.072-.033-.281-.05-.419s-.05-.309-.083-.468-.039-.215-.061-.32-.05-.2-.072-.3-.072-.276-.11-.419l-.072-.243q-.072-.231-.154-.468l-.072-.193c-.083-.215-.165-.43-.259-.639l-.033-.072q-.127-.287-.265-.551l-.088-.176-.287-.551-.055-.1c-.116-.2-.242-.4-.369-.6l-.116-.171-.287-.419-.165-.22-.265-.336-.226-.276-.22-.254q-.193-.215-.391-.413l-.248-.248-.2-.182-.331-.287-.2-.165-.369-.276-.176-.127c-.182-.127-.369-.248-.551-.353L42.415,2.451l-.369-.2-.1-.05-.276-.127-.1-.044-.259-.1h-.061l-.314-.1h-.044a4.7,4.7,0,0,0-.485-.1h0c-.132,0-.265-.033-.391-.039h-.468l-.265.033H39.2a1.069,1.069,0,0,0-.292.066h0l-.287.11h-.072l-.215.1-.072.039Z" transform="translate(-34.22 -0.55)"/>
        <path id="Path_93" data-name="Path 93" class="cls-1" d="M36.662,3.008h.072l.215-.165h.072l.265-.094h0a2.007,2.007,0,0,0,.292-.066h.083l.265-.033h.468a1.368,1.368,0,0,1,.391.039h0a4.684,4.684,0,0,1,.485.1h.044l.314.1h.066l.259.1h.033l.066.028.281.127.1.05.38.2,171.438,99c.187.11.375.226.551.353l.176.127.369.276.2.165.331.287.2.187.121.116.127.132q.2.2.391.413l.127.132.1.121.226.276.149.182.116.154.165.22.11.149.176.265.116.171.05.072q.154.243.3.5v.033l.055.1.2.358.083.171.088.176.077.154c.066.138.127.276.187.413l.033.072h0q.116.259.215.551l.033.1.072.193c.033.088.066.176.094.265s.039.138.061.2l.072.242.044.149a1.284,1.284,0,0,0,.066.27c.022.094.05.2.072.3v.1a.426.426,0,0,0,.039.215c.028.154.061.314.083.468v.127a1.291,1.291,0,0,0,.028.292.531.531,0,0,1,0,.209v.645l-.331,116.259-1.846,1.152.331-116.259v-.854c0-.072-.033-.281-.05-.419s-.05-.309-.083-.468-.039-.215-.061-.32-.05-.2-.072-.3-.072-.276-.11-.419l-.072-.242q-.072-.231-.154-.468l-.072-.193c-.083-.215-.165-.43-.259-.639l-.033-.072q-.127-.287-.265-.551l-.088-.176-.287-.551-.055-.1c-.116-.2-.242-.4-.369-.6l-.116-.171-.287-.419-.165-.22-.265-.336-.226-.276-.22-.254q-.193-.215-.391-.413l-.248-.248-.2-.182-.331-.287-.2-.165-.369-.276-.176-.127c-.182-.127-.369-.248-.551-.353L38.844,4.562l-.369-.2-.1-.05-.276-.127L38,4.144l-.259-.1h-.061l-.325-.1h-.044a4.7,4.7,0,0,0-.485-.1h0c-.132,0-.265-.033-.391-.039h-.463l-.265.033H35.62a1.07,1.07,0,0,0-.292.066h0l-.265.094-.077.033-.215.1-.072.039Z" transform="translate(-32.622 -1.493)"/>
        <path id="Path_94" data-name="Path 94" class="cls-1" d="M363.26,414.98Z" transform="translate(-180.105 -186.578)"/>
      </g>
      <g id="Teclado" transform="translate(0 202.036)">
        <path id="Path_95" data-name="Path 95" class="cls-1" d="M109.425,426.954v.242l-.028.066-.039.088-.039.061-.066.1-.077.094h0l-.121.116-.088.072-.077.061-.1.066-.1.066-27.8,16.153a2.909,2.909,0,0,1-.265.132l-.083.033-.22.083-.083.028-.143.044-.11.028-.154.033h-.1l-.32.044H77.9l-.176-.044h-.1l-.3-.1-.143-.061-.072-.033-.2-.11L1.322,400.577A1.405,1.405,0,0,1,.49,399.42v1.653a1.405,1.405,0,0,0,.832,1.157l75.5,43.594.2.11.072.033.127.055h0l.3.1H77.6l.176.044h1.543l.32-.044h.088l.154-.033.11-.028.143-.044h.083l.22-.083.083-.033a2.943,2.943,0,0,0,.265-.132l27.8-16.153h.033l.072-.05.1-.066.077-.061.088-.072h0l.1-.1h0l.055-.066v-.028l.066-.1.028-.039h0l.039-.088v-.05h0v-.138h0v-1.8S109.425,426.927,109.425,426.954Z" transform="translate(-0.49 -381.629)"/>
        <path id="Path_96" data-name="Path 96" class="cls-1" d="M108.6,411.224c1.1.639,1.1,1.653,0,2.3L80.8,429.681a4.409,4.409,0,0,1-3.979,0l-75.5-43.594c-1.1-.639-1.1-1.653,0-2.3l27.793-16.17a4.409,4.409,0,0,1,3.979,0Z" transform="translate(-0.494 -367.139)"/>
        <path id="Path_97" data-name="Path 97" class="cls-1" d="M51.88,417.47l-3.505,2.039a.331.331,0,0,0,0,.628L72.69,434.174a1.19,1.19,0,0,0,1.1,0l3.505-2.039a.331.331,0,0,0,0-.628L52.96,417.47a1.191,1.191,0,0,0-1.1,0" transform="translate(-21.882 -389.671)"/>
        <path id="Path_98" data-name="Path 98" class="cls-1" d="M21.04,389.18l-3.505,2.045a.331.331,0,0,0,0,.628l10.185,5.869a1.2,1.2,0,0,0,1.1,0l3.505-2.039a.331.331,0,0,0,0-.628L22.1,389.18a1.19,1.19,0,0,0-1.1,0" transform="translate(-8.039 -376.972)"/>
        <path id="Path_99" data-name="Path 99" class="cls-1" d="M143.6,464l3.505-2.039a.331.331,0,0,0,0-.628l-9.8-5.654a1.2,1.2,0,0,0-1.1,0l-3.505,2.039a.331.331,0,0,0,0,.628l9.8,5.655a1.19,1.19,0,0,0,1.1,0" transform="translate(-59.732 -406.823)"/>
        <path id="Path_100" data-name="Path 100" class="cls-1" d="M30.2,383.89l-3.505,2.039a.331.331,0,0,0,0,.628l7.578,4.376a1.191,1.191,0,0,0,1.1,0l3.511-2.083a.331.331,0,0,0,0-.628L31.28,383.89a1.19,1.19,0,0,0-1.1,0" transform="translate(-12.151 -374.597)"/>
        <path id="Path_101" data-name="Path 101" class="cls-1" d="M154.627,459.764l3.505-2.039a.331.331,0,0,0,0-.628l-7.49-4.326a1.191,1.191,0,0,0-1.1,0l-3.505,2.039a.331.331,0,0,0,0,.628l7.49,4.326a1.19,1.19,0,0,0,1.1,0" transform="translate(-65.72 -405.516)"/>
        <path id="Path_102" data-name="Path 102" class="cls-1" d="M39.32,378.56,35.815,380.6a.331.331,0,0,0,0,.628l6.261,3.615a1.19,1.19,0,0,0,1.1,0l3.505-2.039a.331.331,0,0,0,0-.628l-6.261-3.615a1.19,1.19,0,0,0-1.1,0" transform="translate(-16.244 -372.205)"/>
        <path id="Path_103" data-name="Path 103" class="cls-1" d="M173.818,449.791l3.505-2.039c.353-.2.231-.491,0-.628l-6.261-3.593a1.19,1.19,0,0,0-1.1,0l-3.505,2.039a.331.331,0,0,0,0,.628l6.261,3.593a1.191,1.191,0,0,0,1.1,0" transform="translate(-74.886 -401.368)"/>
        <path id="Path_104" data-name="Path 104" class="cls-1" d="M101.217,450.019l3.505-2.039a.331.331,0,0,0,0-.628l-4.96-2.871a1.2,1.2,0,0,0-1.1,0l-3.505,2.039a.331.331,0,0,0,0,.628l4.96,2.871a1.19,1.19,0,0,0,1.1,0" transform="translate(-42.881 -401.796)"/>
        <path id="Path_105" data-name="Path 105" class="cls-1" d="M42.617,416.179l3.505-2.039a.331.331,0,0,0,0-.628l-4.96-2.871a1.19,1.19,0,0,0-1.1,0l-3.505,2.039a.331.331,0,0,0,0,.628l4.96,2.871a1.19,1.19,0,0,0,1.1,0" transform="translate(-16.577 -386.605)"/>
        <path id="Path_106" data-name="Path 106" class="cls-1" d="M126.44,450.03l-3.505,2.039a.331.331,0,0,0,0,.628l3.693,2.133a1.2,1.2,0,0,0,1.1,0l3.505-2.039a.331.331,0,0,0,0-.628l-3.693-2.133a1.2,1.2,0,0,0-1.1,0" transform="translate(-55.351 -404.287)"/>
        <path id="Path_107" data-name="Path 107" class="cls-1" d="M65.723,414.976a.331.331,0,0,0,0-.628l-3.665-2.127a1.2,1.2,0,0,0-1.1,0l-3.511,2.023a.331.331,0,0,0,0,.628L61.137,417a1.19,1.19,0,0,0,1.1,0l3.505-2.039" transform="translate(-25.954 -387.315)"/>
        <path id="Path_108" data-name="Path 108" class="cls-1" d="M79.66,423.02l-3.505,2.039a.331.331,0,0,0,0,.628l3.693,2.133a1.2,1.2,0,0,0,1.1,0l3.505-2.039a.331.331,0,0,0,0-.628l-3.693-2.133a1.2,1.2,0,0,0-1.1,0" transform="translate(-34.352 -392.163)"/>
        <path id="Path_109" data-name="Path 109" class="cls-1" d="M107.73,439.23l-3.505,2.039a.331.331,0,0,0,0,.628l3.693,2.133a1.19,1.19,0,0,0,1.1,0l3.505-2.039a.331.331,0,0,0,0-.628l-3.693-2.133a1.2,1.2,0,0,0-1.1,0" transform="translate(-46.952 -399.439)"/>
        <path id="Path_110" data-name="Path 110" class="cls-1" d="M89.02,428.43l-3.505,2.039a.331.331,0,0,0,0,.628l3.693,2.133a1.2,1.2,0,0,0,1.1,0l3.505-2.039a.331.331,0,0,0,0-.628l-3.726-2.133a1.2,1.2,0,0,0-1.1,0" transform="translate(-38.554 -394.591)"/>
        <path id="Path_111" data-name="Path 111" class="cls-1" d="M86.179,405.012l-3.687-2.122a1.191,1.191,0,0,0-1.1,0l-3.505,2.039a.331.331,0,0,0,0,.628l3.693,2.133a1.2,1.2,0,0,0,1.1,0l3.505-2.039a.331.331,0,0,0,0-.628" transform="translate(-35.129 -383.126)"/>
        <path id="Path_112" data-name="Path 112" class="cls-1" d="M68.34,388.9l3.505-2.039a.331.331,0,0,0,0-.628L68.152,384.1a1.191,1.191,0,0,0-1.1,0l-3.505,2.039a.331.331,0,0,0,0,.628l3.693,2.133a1.2,1.2,0,0,0,1.1,0" transform="translate(-28.692 -374.692)"/>
        <path id="Path_113" data-name="Path 113" class="cls-1" d="M98.567,438.62a1.19,1.19,0,0,0,1.1,0l3.505-2.039a.331.331,0,0,0,0-.628l-3.693-2.133a1.191,1.191,0,0,0-1.1,0l-3.505,2.039a.331.331,0,0,0,0,.628l3.693,2.133" transform="translate(-42.755 -397.01)"/>
        <path id="Path_114" data-name="Path 114" class="cls-1" d="M52.85,411.61l3.505-2.039a.331.331,0,0,0,0-.628l-3.693-2.133a1.19,1.19,0,0,0-1.1,0l-3.505,2.039a.331.331,0,0,0,0,.628l3.693,2.133a1.19,1.19,0,0,0,1.1,0" transform="translate(-21.739 -384.886)"/>
        <path id="Path_115" data-name="Path 115" class="cls-1" d="M152.815,448.717l3.693,2.133a1.2,1.2,0,0,0,1.1,0l3.505-2.039a.331.331,0,0,0,0-.628l-3.693-2.133a1.19,1.19,0,0,0-1.1,0l-3.505,2.039a.331.331,0,0,0,0,.628" transform="translate(-68.763 -402.5)"/>
        <path id="Path_116" data-name="Path 116" class="cls-1" d="M104.895,415.8,101.2,413.67a1.19,1.19,0,0,0-1.1,0l-3.505,2.039a.331.331,0,0,0,0,.628l3.693,2.133a1.2,1.2,0,0,0,1.1,0l3.505-2.039a.331.331,0,0,0,0-.628" transform="translate(-43.527 -387.965)"/>
        <path id="Path_117" data-name="Path 117" class="cls-1" d="M152.55,437.51l3.505-2.039a.331.331,0,0,0,0-.628l-3.693-2.133a1.19,1.19,0,0,0-1.1,0l-3.505,2.039a.331.331,0,0,0,0,.628l3.693,2.133a1.2,1.2,0,0,0,1.1,0" transform="translate(-66.492 -396.512)"/>
        <path id="Path_118" data-name="Path 118" class="cls-1" d="M87.05,399.7l3.505-2.05a.331.331,0,0,0,0-.628l-3.693-2.127a1.191,1.191,0,0,0-1.1,0l-3.505,2.039a.331.331,0,0,0,0,.628l3.693,2.133a1.2,1.2,0,0,0,1.1,0" transform="translate(-37.09 -379.535)"/>
        <path id="Path_119" data-name="Path 119" class="cls-1" d="M120.8,461.331l3.505-2.039a.331.331,0,0,0,0-.628l-3.693-2.133a1.2,1.2,0,0,0-1.1,0L116,458.57a.331.331,0,0,0,0,.628l3.693,2.133a1.19,1.19,0,0,0,1.1,0" transform="translate(-52.24 -407.204)"/>
        <path id="Path_120" data-name="Path 120" class="cls-1" d="M53.336,386.66,49.815,388.7a.331.331,0,0,0,0,.628l3.693,2.133a1.2,1.2,0,0,0,1.1,0l3.505-2.039a.331.331,0,0,0,0-.628l-3.693-2.133a1.191,1.191,0,0,0-1.1,0" transform="translate(-22.529 -375.841)"/>
        <path id="Path_121" data-name="Path 121" class="cls-1" d="M142.315,437.413l-3.693-2.133a1.19,1.19,0,0,0-1.1,0l-3.505,2.039a.331.331,0,0,0,0,.628l3.693,2.133a1.2,1.2,0,0,0,1.1,0l3.505-2.039a.331.331,0,0,0,0-.628" transform="translate(-60.324 -397.665)"/>
        <path id="Path_122" data-name="Path 122" class="cls-1" d="M123.6,426.613l-3.693-2.133a1.191,1.191,0,0,0-1.1,0l-3.505,2.039a.331.331,0,0,0,0,.628L119,429.28a1.2,1.2,0,0,0,1.1,0l3.505-2.039a.331.331,0,0,0,0-.628" transform="translate(-51.926 -392.817)"/>
        <path id="Path_123" data-name="Path 123" class="cls-1" d="M124.48,421.31l3.505-2.039a.331.331,0,0,0,0-.628l-3.693-2.133a1.19,1.19,0,0,0-1.1,0l-3.505,2.039a.331.331,0,0,0,0,.628l3.693,2.133a1.2,1.2,0,0,0,1.1,0" transform="translate(-53.892 -389.24)"/>
        <path id="Path_124" data-name="Path 124" class="cls-1" d="M105.77,410.5l3.505-2.039a.331.331,0,0,0,0-.628l-3.693-2.133a1.19,1.19,0,0,0-1.1,0l-3.505,2.039a.331.331,0,0,0,0,.628l3.693,2.133a1.2,1.2,0,0,0,1.1,0" transform="translate(-45.493 -384.387)"/>
        <path id="Path_125" data-name="Path 125" class="cls-1" d="M117.09,444.63l-3.505,2.039a.331.331,0,0,0,0,.628l3.693,2.133a1.19,1.19,0,0,0,1.1,0l3.505-2.039a.331.331,0,0,0,0-.628l-3.693-2.133a1.191,1.191,0,0,0-1.1,0" transform="translate(-51.154 -401.862)"/>
        <path id="Path_126" data-name="Path 126" class="cls-1" d="M70.309,417.62l-3.494,2.039a.331.331,0,0,0,0,.628l3.693,2.133a1.191,1.191,0,0,0,1.1,0l3.505-2.039a.331.331,0,0,0,0-.628l-3.693-2.133a1.19,1.19,0,0,0-1.1,0" transform="translate(-30.16 -389.738)"/>
        <path id="Path_127" data-name="Path 127" class="cls-1" d="M52.555,401.447l3.693,2.133a1.2,1.2,0,0,0,1.1,0l3.505-2.039a.331.331,0,0,0,0-.628l-3.693-2.133a1.19,1.19,0,0,0-1.1,0l-3.505,2.039a.331.331,0,0,0,0,.628" transform="translate(-23.759 -381.281)"/>
        <path id="Path_128" data-name="Path 128" class="cls-1" d="M108.695,433.857l3.693,2.133a1.191,1.191,0,0,0,1.1,0l3.505-2.039a.331.331,0,0,0,0-.628L113.3,431.19a1.191,1.191,0,0,0-1.1,0l-3.505,2.039a.331.331,0,0,0,0,.628" transform="translate(-48.959 -395.829)"/>
        <path id="Path_129" data-name="Path 129" class="cls-1" d="M136.765,450.067l3.693,2.133a1.2,1.2,0,0,0,1.1,0l3.505-2.039a.331.331,0,0,0,0-.628l-3.693-2.133a1.191,1.191,0,0,0-1.1,0l-3.505,2.039a.331.331,0,0,0,0,.628" transform="translate(-61.559 -403.106)"/>
        <path id="Path_130" data-name="Path 130" class="cls-1" d="M89.975,423.057l3.693,2.133a1.2,1.2,0,0,0,1.1,0l3.505-2.039a.331.331,0,0,0,0-.628l-3.693-2.133a1.19,1.19,0,0,0-1.1,0l-3.505,2.039a.331.331,0,0,0,0,.628" transform="translate(-40.556 -390.981)"/>
        <path id="Path_131" data-name="Path 131" class="cls-1" d="M114.245,421.2l-3.693-2.133a1.19,1.19,0,0,0-1.1,0l-3.505,2.039a.331.331,0,0,0,0,.628l3.693,2.133a1.19,1.19,0,0,0,1.1,0l3.505-2.039a.331.331,0,0,0,0-.628" transform="translate(-47.724 -390.389)"/>
        <path id="Path_132" data-name="Path 132" class="cls-1" d="M67.465,394.153l-3.693-2.133a1.19,1.19,0,0,0-1.1,0l-3.505,2.039a.331.331,0,0,0,0,.628l3.693,2.133a1.19,1.19,0,0,0,1.1,0l3.505-2.039a.331.331,0,0,0,0-.628" transform="translate(-26.726 -378.247)"/>
        <path id="Path_133" data-name="Path 133" class="cls-1" d="M151.675,442.813l-3.693-2.133a1.19,1.19,0,0,0-1.1,0l-3.505,2.039a.331.331,0,0,0,0,.628l3.693,2.133a1.19,1.19,0,0,0,1.1,0l3.505-2.039a.331.331,0,0,0,0-.628" transform="translate(-64.526 -400.089)"/>
        <path id="Path_134" data-name="Path 134" class="cls-1" d="M96.41,405.1l3.505-2.039a.331.331,0,0,0,0-.628L96.222,400.3a1.19,1.19,0,0,0-1.1,0l-3.505,2.039a.331.331,0,0,0,0,.628l3.693,2.133a1.191,1.191,0,0,0,1.1,0" transform="translate(-41.292 -381.964)"/>
        <path id="Path_135" data-name="Path 135" class="cls-1" d="M111.44,455.93l3.505-2.039a.331.331,0,0,0,0-.628l-3.693-2.133a1.19,1.19,0,0,0-1.1,0l-3.505,2.039a.331.331,0,0,0,0,.628l3.693,2.133a1.191,1.191,0,0,0,1.1,0" transform="translate(-48.038 -404.78)"/>
        <path id="Path_136" data-name="Path 136" class="cls-1" d="M54.225,381.367l3.693,2.133a1.19,1.19,0,0,0,1.1,0l3.505-2.039a.331.331,0,0,0,0-.628L58.832,378.7a1.191,1.191,0,0,0-1.1,0l-3.505,2.039a.331.331,0,0,0,0,.628" transform="translate(-24.508 -372.268)"/>
        <path id="Path_137" data-name="Path 137" class="cls-1" d="M48.347,373.3l-3.533,2.039a.331.331,0,0,0,0,.628l3.693,2.133a1.2,1.2,0,0,0,1.1,0l3.505-2.039a.331.331,0,0,0,0-.628L49.422,373.3a1.19,1.19,0,0,0-1.1,0" transform="translate(-20.284 -369.844)"/>
        <path id="Path_138" data-name="Path 138" class="cls-1" d="M133.84,426.71l3.505-2.039a.331.331,0,0,0,0-.628l-3.693-2.133a1.19,1.19,0,0,0-1.1,0l-3.505,2.039a.331.331,0,0,0,0,.628l3.693,2.133a1.2,1.2,0,0,0,1.1,0" transform="translate(-58.093 -391.664)"/>
        <path id="Path_139" data-name="Path 139" class="cls-1" d="M143.19,432.11l3.505-2.039a.331.331,0,0,0,0-.628L143,427.31a1.19,1.19,0,0,0-1.1,0l-3.505,2.039a.331.331,0,0,0,0,.628l3.693,2.133a1.191,1.191,0,0,0,1.1,0" transform="translate(-62.29 -394.088)"/>
        <path id="Path_140" data-name="Path 140" class="cls-1" d="M71.265,412.247l3.693,2.133a1.19,1.19,0,0,0,1.1,0l3.505-2.039a.331.331,0,0,0,0-.628l-3.693-2.133a1.19,1.19,0,0,0-1.1,0l-3.505,2.039a.331.331,0,0,0,0,.628" transform="translate(-32.157 -386.129)"/>
        <path id="Path_141" data-name="Path 141" class="cls-1" d="M166.84,456.25l3.505-2.039a.331.331,0,0,0,0-.628l-3.693-2.133a1.19,1.19,0,0,0-1.1,0l-3.505,2.039a.331.331,0,0,0,0,.628l3.693,2.133a1.19,1.19,0,0,0,1.1,0" transform="translate(-72.906 -404.924)"/>
        <path id="Path_142" data-name="Path 142" class="cls-1" d="M139.51,472.13l3.505-2.039a.331.331,0,0,0,0-.628l-3.693-2.133a1.19,1.19,0,0,0-1.1,0l-3.505,2.039a.331.331,0,0,0,0,.628l3.693,2.133a1.19,1.19,0,0,0,1.1,0" transform="translate(-60.638 -412.052)"/>
        <path id="Path_143" data-name="Path 143" class="cls-1" d="M68.565,400.127l3.693,2.133a1.19,1.19,0,0,0,1.1,0l3.505-2.039a.331.331,0,0,0,0-.628l-3.693-2.133a1.19,1.19,0,0,0-1.1,0L68.565,399.5a.331.331,0,0,0,0,.628" transform="translate(-30.945 -380.689)"/>
        <path id="Path_144" data-name="Path 144" class="cls-1" d="M95.535,410.4l-3.693-2.133a1.19,1.19,0,0,0-1.1,0l-3.505,2.039a.331.331,0,0,0,0,.628l3.693,2.133a1.19,1.19,0,0,0,1.1,0l3.505-2.039a.331.331,0,0,0,0-.628" transform="translate(-39.326 -385.541)"/>
        <path id="Path_145" data-name="Path 145" class="cls-1" d="M132.965,432.013l-3.693-2.133a1.191,1.191,0,0,0-1.1,0l-3.505,2.039a.331.331,0,0,0,0,.628l3.693,2.133a1.191,1.191,0,0,0,1.1,0l3.505-2.039a.331.331,0,0,0,0-.628" transform="translate(-56.127 -395.241)"/>
        <path id="Path_146" data-name="Path 146" class="cls-1" d="M72.935,391.539a.331.331,0,0,0,0,.628l3.693,2.133a1.19,1.19,0,0,0,1.1,0l3.505-2.039a.331.331,0,0,0,0-.628L77.542,389.5a1.191,1.191,0,0,0-1.1,0l-3.505,2.039" transform="translate(-32.907 -377.116)"/>
        <path id="Path_147" data-name="Path 147" class="cls-1" d="M161.91,442.92l3.505-2.039a.331.331,0,0,0,0-.628l-3.693-2.133a1.19,1.19,0,0,0-1.1,0l-3.505,2.039a.331.331,0,0,0,0,.628l3.693,2.133a1.19,1.19,0,0,0,1.1,0" transform="translate(-70.693 -398.94)"/>
        <path id="Path_148" data-name="Path 148" class="cls-1" d="M115.12,415.91l3.505-2.039a.331.331,0,0,0,0-.628l-3.693-2.133a1.191,1.191,0,0,0-1.1,0l-3.505,2.039a.331.331,0,0,0,0,.628l3.693,2.133a1.19,1.19,0,0,0,1.1,0" transform="translate(-49.69 -386.816)"/>
        <path id="Path_149" data-name="Path 149" class="cls-1" d="M130.16,466.73l3.505-2.039a.331.331,0,0,0,0-.628l-3.693-2.133a1.19,1.19,0,0,0-1.1,0l-3.505,2.039a.331.331,0,0,0,0,.628l3.693,2.133a1.19,1.19,0,0,0,1.1,0" transform="translate(-56.441 -409.628)"/>
        <path id="Path_150" data-name="Path 150" class="cls-1" d="M65.41,404.19,61.9,406.229a.331.331,0,0,0,0,.628L65.6,408.99a1.19,1.19,0,0,0,1.1,0l3.505-2.039a.331.331,0,0,0,0-.628l-3.693-2.133a1.19,1.19,0,0,0-1.1,0" transform="translate(-27.956 -383.71)"/>
        <path id="Path_151" data-name="Path 151" class="cls-1" d="M80.615,417.657l3.693,2.133a1.191,1.191,0,0,0,1.1,0l3.505-2.039a.331.331,0,0,0,0-.628l-3.693-2.133a1.19,1.19,0,0,0-1.1,0l-3.505,2.039a.331.331,0,0,0,0,.628" transform="translate(-36.354 -388.558)"/>
        <path id="Path_152" data-name="Path 152" class="cls-1" d="M99.335,428.457l3.693,2.133a1.19,1.19,0,0,0,1.1,0l3.505-2.039a.331.331,0,0,0,0-.628l-3.693-2.133a1.191,1.191,0,0,0-1.1,0l-3.505,2.039a.331.331,0,0,0,0,.628" transform="translate(-44.757 -393.405)"/>
        <path id="Path_153" data-name="Path 153" class="cls-1" d="M118.045,439.257l3.693,2.133a1.19,1.19,0,0,0,1.1,0l3.505-2.039a.331.331,0,0,0,0-.628l-3.693-2.133a1.19,1.19,0,0,0-1.1,0l-3.505,2.039a.331.331,0,0,0,0,.628" transform="translate(-53.156 -398.253)"/>
        <path id="Path_154" data-name="Path 154" class="cls-1" d="M127.4,444.667,131.1,446.8a1.19,1.19,0,0,0,1.1,0l3.505-2.039a.331.331,0,0,0,0-.628L132.012,442a1.191,1.191,0,0,0-1.1,0l-3.505,2.039a.331.331,0,0,0,0,.628" transform="translate(-57.357 -400.682)"/>
        <path id="Path_155" data-name="Path 155" class="cls-1" d="M46.69,393.38l-3.505,2.039a.331.331,0,0,0,0,.628l3.693,2.133a1.19,1.19,0,0,0,1.1,0l3.505-2.039a.331.331,0,0,0,0-.628l-3.693-2.133a1.191,1.191,0,0,0-1.1,0" transform="translate(-19.553 -378.857)"/>
        <path id="Path_156" data-name="Path 156" class="cls-1" d="M42.23,401.42l-3.505,2.039a.331.331,0,0,0,0,.628l3.632,2.1a1.2,1.2,0,0,0,1.1,0l3.505-2.039c.276-.16.3-.413.055-.6l-3.693-2.133a1.2,1.2,0,0,0-1.1,0" transform="translate(-17.551 -382.467)"/>
        <path id="Path_157" data-name="Path 157" class="cls-1" d="M22.549,404.624l3.533-2.034a.331.331,0,0,0,0-.628l-3.665-2.072a1.191,1.191,0,0,0-1.1,0l-3.5,2.012a.331.331,0,0,0,0,.628l3.632,2.1a1.19,1.19,0,0,0,1.1,0" transform="translate(-8.165 -381.779)"/>
        <path id="Path_158" data-name="Path 158" class="cls-1" d="M31.909,410.008l3.505-2.039a.331.331,0,0,0,0-.628l-3.632-2.1a1.2,1.2,0,0,0-1.1,0l-3.505,2.039a.331.331,0,0,0,0,.628l3.659,2.1a1.191,1.191,0,0,0,1.1,0" transform="translate(-12.366 -384.182)"/>
        <path id="Path_159" data-name="Path 159" class="cls-1" d="M13.189,399.2l3.505-2.039a.331.331,0,0,0,0-.628l-3.632-2.094a1.19,1.19,0,0,0-1.1,0l-3.505,2.039a.331.331,0,0,0,0,.628l3.632,2.1a1.19,1.19,0,0,0,1.1,0" transform="translate(-3.963 -379.333)"/>
        <path id="Path_160" data-name="Path 160" class="cls-1" d="M54.946,370.637l-1.1.628a.331.331,0,0,0,0,.6l6.272,3.621a1.19,1.19,0,0,0,1.1,0l1.1-.628a.331.331,0,0,0,0-.628l-6.272-3.621a1.191,1.191,0,0,0-1.1,0" transform="translate(-24.353 -368.636)"/>
        <path id="Path_161" data-name="Path 161" class="cls-1" d="M87.577,389.53l-1.1.628a.331.331,0,0,0,0,.628l3.693,2.133a1.2,1.2,0,0,0,1.1,0l1.1-.628a.331.331,0,0,0,0-.628l-3.693-2.133a1.19,1.19,0,0,0-1.1,0" transform="translate(-38.984 -377.129)"/>
        <path id="Path_162" data-name="Path 162" class="cls-1" d="M125.007,411.14l-1.1.628a.331.331,0,0,0,0,.628l3.693,2.133a1.2,1.2,0,0,0,1.1,0l1.1-.628a.331.331,0,0,0,0-.628l-3.693-2.133a1.191,1.191,0,0,0-1.1,0" transform="translate(-55.786 -386.829)"/>
        <path id="Path_163" data-name="Path 163" class="cls-1" d="M106.287,400.34l-1.1.628a.331.331,0,0,0,0,.628l3.693,2.133a1.2,1.2,0,0,0,1.1,0l1.1-.628a.331.331,0,0,0,0-.628l-3.693-2.133a1.19,1.19,0,0,0-1.1,0" transform="translate(-47.383 -381.981)"/>
        <path id="Path_164" data-name="Path 164" class="cls-1" d="M162.427,432.75l-1.1.628a.331.331,0,0,0,0,.628l3.693,2.133a1.2,1.2,0,0,0,1.1,0l1.1-.628a.331.331,0,0,0,0-.628l-3.693-2.133a1.191,1.191,0,0,0-1.1,0" transform="translate(-72.583 -396.53)"/>
        <path id="Path_165" data-name="Path 165" class="cls-1" d="M143.717,421.95l-1.1.628a.331.331,0,0,0,0,.628l3.693,2.133a1.2,1.2,0,0,0,1.1,0l1.1-.628a.331.331,0,0,0,0-.628l-3.693-2.133a1.191,1.191,0,0,0-1.1,0" transform="translate(-64.184 -391.682)"/>
        <path id="Path_166" data-name="Path 166" class="cls-1" d="M153.077,427.35l-1.1.628a.331.331,0,0,0,0,.628l3.693,2.133a1.19,1.19,0,0,0,1.1,0l1.1-.628a.331.331,0,0,0,0-.628l-3.693-2.133a1.191,1.191,0,0,0-1.1,0" transform="translate(-68.386 -394.106)"/>
        <path id="Path_167" data-name="Path 167" class="cls-1" d="M78.217,384.13l-1.1.628a.331.331,0,0,0,0,.628l3.693,2.133a1.191,1.191,0,0,0,1.1,0l1.1-.628a.331.331,0,0,0,0-.628l-3.693-2.133a1.19,1.19,0,0,0-1.1,0" transform="translate(-34.783 -374.705)"/>
        <path id="Path_168" data-name="Path 168" class="cls-1" d="M115.647,405.74l-1.1.628a.331.331,0,0,0,0,.628l3.693,2.133a1.19,1.19,0,0,0,1.1,0l1.1-.628a.331.331,0,0,0,0-.628l-3.693-2.133a1.191,1.191,0,0,0-1.1,0" transform="translate(-51.584 -384.405)"/>
        <path id="Path_169" data-name="Path 169" class="cls-1" d="M68.889,378.739l-1.075.639a.331.331,0,0,0,0,.628l3.693,2.133a1.19,1.19,0,0,0,1.1,0l1.1-.628a.331.331,0,0,0,0-.628l-3.693-2.133a1.191,1.191,0,0,0-1.1,0" transform="translate(-30.608 -372.29)"/>
        <path id="Path_170" data-name="Path 170" class="cls-1" d="M96.917,394.89l-1.1.628a.331.331,0,0,0,0,.628l3.693,2.133a1.191,1.191,0,0,0,1.1,0l1.1-.628a.331.331,0,0,0,0-.628l-3.693-2.133a1.191,1.191,0,0,0-1.1,0" transform="translate(-43.177 -379.535)"/>
        <path id="Path_171" data-name="Path 171" class="cls-1" d="M184.85,446.939l1.1-.628a.331.331,0,0,0,0-.628l-3.693-2.133a1.19,1.19,0,0,0-1.1,0l-1.1.628a.331.331,0,0,0,0,.628l3.693,2.133a1.19,1.19,0,0,0,1.1,0" transform="translate(-80.99 -401.377)"/>
        <path id="Path_172" data-name="Path 172" class="cls-1" d="M134.357,416.55l-1.1.628a.331.331,0,0,0,0,.628l3.693,2.133a1.19,1.19,0,0,0,1.1,0l1.1-.628a.331.331,0,0,0,0-.628l-3.693-2.133a1.19,1.19,0,0,0-1.1,0" transform="translate(-59.983 -389.258)"/>
        <path id="Path_173" data-name="Path 173" class="cls-1" d="M171.787,438.15l-1.1.628a.331.331,0,0,0,0,.628l3.693,2.133a1.2,1.2,0,0,0,1.1,0l1.1-.628a.331.331,0,0,0,0-.628l-3.693-2.133a1.191,1.191,0,0,0-1.1,0" transform="translate(-76.784 -398.954)"/>
        <path id="Path_174" data-name="Path 174" class="cls-1" d="M51.88,416.47l-3.505,2.039a.331.331,0,0,0,0,.628L72.69,433.174a1.19,1.19,0,0,0,1.1,0l3.505-2.039a.331.331,0,0,0,0-.628L52.96,416.47a1.19,1.19,0,0,0-1.1,0" transform="translate(-21.882 -389.222)"/>
        <path id="Path_175" data-name="Path 175" class="cls-1" d="M21.04,388.18l-3.505,2.045a.331.331,0,0,0,0,.628l10.185,5.864a1.2,1.2,0,0,0,1.1,0l3.505-2.039a.331.331,0,0,0,0-.628L22.1,388.18a1.19,1.19,0,0,0-1.1,0" transform="translate(-8.039 -376.523)"/>
        <path id="Path_176" data-name="Path 176" class="cls-1" d="M143.6,463l3.505-2.039a.331.331,0,0,0,0-.628l-9.8-5.655a1.2,1.2,0,0,0-1.1,0l-3.505,2.039a.331.331,0,0,0,0,.628l9.8,5.655a1.191,1.191,0,0,0,1.1,0" transform="translate(-59.732 -406.374)"/>
        <path id="Path_177" data-name="Path 177" class="cls-1" d="M30.2,382.89l-3.505,2.039a.331.331,0,0,0,0,.628l7.578,4.376a1.19,1.19,0,0,0,1.1,0l3.511-2.083a.331.331,0,0,0,0-.628L31.28,382.89a1.19,1.19,0,0,0-1.1,0" transform="translate(-12.151 -374.149)"/>
        <path id="Path_178" data-name="Path 178" class="cls-1" d="M154.627,458.764l3.505-2.039a.331.331,0,0,0,0-.628l-7.49-4.326a1.19,1.19,0,0,0-1.1,0l-3.505,2.039a.331.331,0,0,0,0,.628l7.49,4.326a1.191,1.191,0,0,0,1.1,0" transform="translate(-65.72 -405.067)"/>
        <path id="Path_179" data-name="Path 179" class="cls-1" d="M39.32,377.555l-3.505,2.034a.331.331,0,0,0,0,.628l6.261,3.615a1.19,1.19,0,0,0,1.1,0l3.505-2.039a.331.331,0,0,0,0-.628l-6.261-3.615a1.19,1.19,0,0,0-1.1,0" transform="translate(-16.244 -371.752)"/>
        <path id="Path_180" data-name="Path 180" class="cls-1" d="M173.818,448.786l3.505-2.039c.353-.2.231-.49,0-.628l-6.261-3.6a1.19,1.19,0,0,0-1.1,0l-3.505,2.039a.331.331,0,0,0,0,.628l6.261,3.6a1.19,1.19,0,0,0,1.1,0" transform="translate(-74.886 -400.915)"/>
        <path id="Path_181" data-name="Path 181" class="cls-1" d="M101.217,449.009l3.505-2.039a.331.331,0,0,0,0-.628l-4.96-2.871a1.2,1.2,0,0,0-1.1,0l-3.505,2.039a.331.331,0,0,0,0,.628l4.96,2.871a1.191,1.191,0,0,0,1.1,0" transform="translate(-42.881 -401.342)"/>
        <path id="Path_182" data-name="Path 182" class="cls-1" d="M42.617,415.179l3.505-2.039a.331.331,0,0,0,0-.628l-4.96-2.871a1.19,1.19,0,0,0-1.1,0l-3.505,2.039a.331.331,0,0,0,0,.628l4.96,2.871a1.191,1.191,0,0,0,1.1,0" transform="translate(-16.577 -386.156)"/>
        <path id="Path_183" data-name="Path 183" class="cls-1" d="M126.44,449.03l-3.505,2.039a.331.331,0,0,0,0,.628l3.693,2.133a1.2,1.2,0,0,0,1.1,0l3.505-2.039a.331.331,0,0,0,0-.628l-3.693-2.133a1.2,1.2,0,0,0-1.1,0" transform="translate(-55.351 -403.838)"/>
        <path id="Path_184" data-name="Path 184" class="cls-1" d="M65.723,413.976a.331.331,0,0,0,0-.628l-3.665-2.127a1.2,1.2,0,0,0-1.1,0l-3.511,2.023a.331.331,0,0,0,0,.628L61.137,416a1.19,1.19,0,0,0,1.1,0l3.505-2.039" transform="translate(-25.954 -386.866)"/>
        <path id="Path_185" data-name="Path 185" class="cls-1" d="M79.66,422.02l-3.505,2.039a.331.331,0,0,0,0,.628l3.693,2.133a1.2,1.2,0,0,0,1.1,0l3.505-2.039a.331.331,0,0,0,0-.628l-3.693-2.133a1.2,1.2,0,0,0-1.1,0" transform="translate(-34.352 -391.714)"/>
        <path id="Path_186" data-name="Path 186" class="cls-1" d="M107.73,438.23l-3.505,2.039a.331.331,0,0,0,0,.628l3.693,2.133a1.19,1.19,0,0,0,1.1,0l3.505-2.039a.331.331,0,0,0,0-.628l-3.693-2.133a1.2,1.2,0,0,0-1.1,0" transform="translate(-46.952 -398.99)"/>
        <path id="Path_187" data-name="Path 187" class="cls-1" d="M89.02,427.42l-3.505,2.039a.331.331,0,0,0,0,.628l3.693,2.133a1.2,1.2,0,0,0,1.1,0l3.505-2.039a.331.331,0,0,0,0-.628l-3.726-2.133a1.2,1.2,0,0,0-1.1,0" transform="translate(-38.554 -394.138)"/>
        <path id="Path_188" data-name="Path 188" class="cls-1" d="M86.179,404.006l-3.687-2.116a1.19,1.19,0,0,0-1.1,0l-3.505,2.039a.331.331,0,0,0,0,.628l3.693,2.133a1.2,1.2,0,0,0,1.1,0l3.505-2.039a.331.331,0,0,0,0-.628" transform="translate(-35.129 -382.677)"/>
        <path id="Path_189" data-name="Path 189" class="cls-1" d="M68.34,387.89l3.505-2.039a.331.331,0,0,0,0-.628l-3.693-2.133a1.19,1.19,0,0,0-1.1,0l-3.505,2.039a.331.331,0,0,0,0,.628l3.693,2.133a1.2,1.2,0,0,0,1.1,0" transform="translate(-28.692 -374.238)"/>
        <path id="Path_190" data-name="Path 190" class="cls-1" d="M98.567,437.62a1.19,1.19,0,0,0,1.1,0l3.505-2.039a.331.331,0,0,0,0-.628l-3.693-2.133a1.19,1.19,0,0,0-1.1,0l-3.505,2.039a.331.331,0,0,0,0,.628l3.693,2.133" transform="translate(-42.755 -396.561)"/>
        <path id="Path_191" data-name="Path 191" class="cls-1" d="M52.85,410.6l3.505-2.039a.331.331,0,0,0,0-.628L52.662,405.8a1.19,1.19,0,0,0-1.1,0l-3.505,2.039a.331.331,0,0,0,0,.628l3.693,2.133a1.19,1.19,0,0,0,1.1,0" transform="translate(-21.739 -384.432)"/>
        <path id="Path_192" data-name="Path 192" class="cls-1" d="M152.815,447.717l3.693,2.133a1.2,1.2,0,0,0,1.1,0l3.505-2.039a.331.331,0,0,0,0-.628l-3.693-2.133a1.191,1.191,0,0,0-1.1,0l-3.505,2.039a.331.331,0,0,0,0,.628" transform="translate(-68.763 -402.051)"/>
        <path id="Path_193" data-name="Path 193" class="cls-1" d="M104.895,414.8,101.2,412.67a1.191,1.191,0,0,0-1.1,0l-3.505,2.039a.331.331,0,0,0,0,.628l3.693,2.133a1.2,1.2,0,0,0,1.1,0l3.505-2.039a.331.331,0,0,0,0-.628" transform="translate(-43.527 -387.516)"/>
        <path id="Path_194" data-name="Path 194" class="cls-1" d="M152.55,436.51l3.505-2.039a.331.331,0,0,0,0-.628l-3.693-2.133a1.19,1.19,0,0,0-1.1,0l-3.505,2.039a.331.331,0,0,0,0,.628l3.693,2.133a1.2,1.2,0,0,0,1.1,0" transform="translate(-66.492 -396.063)"/>
        <path id="Path_195" data-name="Path 195" class="cls-1" d="M87.05,398.7l3.505-2.05a.331.331,0,0,0,0-.628l-3.693-2.127a1.19,1.19,0,0,0-1.1,0l-3.505,2.039a.331.331,0,0,0,0,.628l3.693,2.133a1.2,1.2,0,0,0,1.1,0" transform="translate(-37.09 -379.086)"/>
        <path id="Path_196" data-name="Path 196" class="cls-1" d="M120.8,460.321l3.505-2.039a.331.331,0,0,0,0-.628l-3.693-2.133a1.2,1.2,0,0,0-1.1,0L116,457.56a.331.331,0,0,0,0,.628l3.693,2.133a1.19,1.19,0,0,0,1.1,0" transform="translate(-52.24 -406.751)"/>
        <path id="Path_197" data-name="Path 197" class="cls-1" d="M53.336,385.66,49.815,387.7a.331.331,0,0,0,0,.628l3.693,2.133a1.2,1.2,0,0,0,1.1,0l3.505-2.039a.331.331,0,0,0,0-.628l-3.693-2.133a1.19,1.19,0,0,0-1.1,0" transform="translate(-22.529 -375.392)"/>
        <path id="Path_198" data-name="Path 198" class="cls-1" d="M142.315,436.413l-3.693-2.133a1.19,1.19,0,0,0-1.1,0l-3.505,2.039a.331.331,0,0,0,0,.628l3.693,2.133a1.2,1.2,0,0,0,1.1,0l3.505-2.039a.331.331,0,0,0,0-.628" transform="translate(-60.324 -397.216)"/>
        <path id="Path_199" data-name="Path 199" class="cls-1" d="M123.6,425.6l-3.693-2.133a1.191,1.191,0,0,0-1.1,0l-3.505,2.039a.331.331,0,0,0,0,.628L119,428.27a1.2,1.2,0,0,0,1.1,0l3.505-2.039a.331.331,0,0,0,0-.628" transform="translate(-51.926 -392.364)"/>
        <path id="Path_200" data-name="Path 200" class="cls-1" d="M124.48,420.31l3.505-2.039a.331.331,0,0,0,0-.628l-3.693-2.133a1.19,1.19,0,0,0-1.1,0l-3.505,2.039a.331.331,0,0,0,0,.628l3.693,2.133a1.2,1.2,0,0,0,1.1,0" transform="translate(-53.892 -388.791)"/>
        <path id="Path_201" data-name="Path 201" class="cls-1" d="M105.77,409.5l3.505-2.039a.331.331,0,0,0,0-.628l-3.693-2.133a1.19,1.19,0,0,0-1.1,0l-3.505,2.039a.331.331,0,0,0,0,.628l3.693,2.133a1.2,1.2,0,0,0,1.1,0" transform="translate(-45.493 -383.939)"/>
        <path id="Path_202" data-name="Path 202" class="cls-1" d="M117.09,443.63l-3.505,2.039a.331.331,0,0,0,0,.628l3.693,2.133a1.191,1.191,0,0,0,1.1,0l3.505-2.039a.331.331,0,0,0,0-.628l-3.693-2.133a1.19,1.19,0,0,0-1.1,0" transform="translate(-51.154 -401.413)"/>
        <path id="Path_203" data-name="Path 203" class="cls-1" d="M70.309,416.615l-3.494,2.034a.331.331,0,0,0,0,.628l3.693,2.133a1.191,1.191,0,0,0,1.1,0l3.505-2.039a.331.331,0,0,0,0-.628l-3.693-2.133a1.19,1.19,0,0,0-1.1,0" transform="translate(-30.16 -389.285)"/>
        <path id="Path_204" data-name="Path 204" class="cls-1" d="M52.555,400.447l3.693,2.133a1.2,1.2,0,0,0,1.1,0l3.505-2.039a.331.331,0,0,0,0-.628l-3.693-2.133a1.19,1.19,0,0,0-1.1,0l-3.505,2.039a.331.331,0,0,0,0,.628" transform="translate(-23.759 -380.832)"/>
        <path id="Path_205" data-name="Path 205" class="cls-1" d="M108.695,432.857l3.693,2.133a1.19,1.19,0,0,0,1.1,0l3.505-2.039a.331.331,0,0,0,0-.628L113.3,430.19a1.191,1.191,0,0,0-1.1,0l-3.505,2.039a.331.331,0,0,0,0,.628" transform="translate(-48.959 -395.38)"/>
        <path id="Path_206" data-name="Path 206" class="cls-1" d="M136.765,449.067l3.693,2.133a1.2,1.2,0,0,0,1.1,0l3.505-2.039a.331.331,0,0,0,0-.628l-3.693-2.133a1.19,1.19,0,0,0-1.1,0l-3.505,2.039a.331.331,0,0,0,0,.628" transform="translate(-61.559 -402.657)"/>
        <path id="Path_207" data-name="Path 207" class="cls-1" d="M89.975,422.057l3.693,2.133a1.2,1.2,0,0,0,1.1,0l3.505-2.039a.331.331,0,0,0,0-.628l-3.693-2.133a1.19,1.19,0,0,0-1.1,0l-3.505,2.039a.331.331,0,0,0,0,.628" transform="translate(-40.556 -390.533)"/>
        <path id="Path_208" data-name="Path 208" class="cls-1" d="M114.245,420.2l-3.693-2.133a1.19,1.19,0,0,0-1.1,0l-3.505,2.039a.331.331,0,0,0,0,.628l3.693,2.133a1.19,1.19,0,0,0,1.1,0l3.505-2.039a.331.331,0,0,0,0-.628" transform="translate(-47.724 -389.94)"/>
        <path id="Path_209" data-name="Path 209" class="cls-1" d="M67.465,393.153l-3.693-2.133a1.19,1.19,0,0,0-1.1,0l-3.505,2.039a.331.331,0,0,0,0,.628l3.693,2.133a1.191,1.191,0,0,0,1.1,0l3.505-2.039a.331.331,0,0,0,0-.628" transform="translate(-26.726 -377.798)"/>
        <path id="Path_210" data-name="Path 210" class="cls-1" d="M151.675,441.813l-3.693-2.133a1.19,1.19,0,0,0-1.1,0l-3.505,2.039a.331.331,0,0,0,0,.628l3.693,2.133a1.19,1.19,0,0,0,1.1,0l3.505-2.039a.331.331,0,0,0,0-.628" transform="translate(-64.526 -399.64)"/>
        <path id="Path_211" data-name="Path 211" class="cls-1" d="M96.41,404.1l3.505-2.039a.331.331,0,0,0,0-.628L96.222,399.3a1.191,1.191,0,0,0-1.1,0l-3.505,2.039a.331.331,0,0,0,0,.628l3.693,2.133a1.19,1.19,0,0,0,1.1,0" transform="translate(-41.292 -381.515)"/>
        <path id="Path_212" data-name="Path 212" class="cls-1" d="M111.44,454.92l3.505-2.039a.331.331,0,0,0,0-.628l-3.693-2.133a1.19,1.19,0,0,0-1.1,0l-3.505,2.039a.331.331,0,0,0,0,.628l3.693,2.133a1.191,1.191,0,0,0,1.1,0" transform="translate(-48.038 -404.327)"/>
        <path id="Path_213" data-name="Path 213" class="cls-1" d="M54.225,380.357l3.693,2.133a1.19,1.19,0,0,0,1.1,0l3.505-2.039a.331.331,0,0,0,0-.628l-3.693-2.133a1.191,1.191,0,0,0-1.1,0l-3.505,2.039a.331.331,0,0,0,0,.628" transform="translate(-24.508 -371.814)"/>
        <path id="Path_214" data-name="Path 214" class="cls-1" d="M48.347,372.3l-3.533,2.034a.331.331,0,0,0,0,.628l3.693,2.133a1.2,1.2,0,0,0,1.1,0l3.505-2.039a.331.331,0,0,0,0-.628l-3.693-2.133a1.19,1.19,0,0,0-1.1,0" transform="translate(-20.284 -369.391)"/>
        <path id="Path_215" data-name="Path 215" class="cls-1" d="M133.84,425.71l3.505-2.039a.331.331,0,0,0,0-.628l-3.693-2.133a1.19,1.19,0,0,0-1.1,0l-3.505,2.039a.331.331,0,0,0,0,.628l3.693,2.133a1.2,1.2,0,0,0,1.1,0" transform="translate(-58.093 -391.215)"/>
        <path id="Path_216" data-name="Path 216" class="cls-1" d="M143.19,431.11l3.505-2.039a.331.331,0,0,0,0-.628L143,426.31a1.19,1.19,0,0,0-1.1,0l-3.505,2.039a.331.331,0,0,0,0,.628l3.693,2.133a1.191,1.191,0,0,0,1.1,0" transform="translate(-62.29 -393.639)"/>
        <path id="Path_217" data-name="Path 217" class="cls-1" d="M71.265,411.247l3.693,2.133a1.191,1.191,0,0,0,1.1,0l3.505-2.039a.331.331,0,0,0,0-.628l-3.693-2.133a1.19,1.19,0,0,0-1.1,0l-3.505,2.039a.331.331,0,0,0,0,.628" transform="translate(-32.157 -385.68)"/>
        <path id="Path_218" data-name="Path 218" class="cls-1" d="M166.84,455.25l3.505-2.039a.331.331,0,0,0,0-.628l-3.693-2.133a1.191,1.191,0,0,0-1.1,0l-3.505,2.039a.331.331,0,0,0,0,.628l3.693,2.133a1.19,1.19,0,0,0,1.1,0" transform="translate(-72.906 -404.475)"/>
        <path id="Path_219" data-name="Path 219" class="cls-1" d="M139.51,471.13l3.505-2.039a.331.331,0,0,0,0-.628l-3.693-2.133a1.19,1.19,0,0,0-1.1,0l-3.505,2.039a.331.331,0,0,0,0,.628l3.693,2.133a1.19,1.19,0,0,0,1.1,0" transform="translate(-60.638 -411.603)"/>
        <path id="Path_220" data-name="Path 220" class="cls-1" d="M68.565,399.127l3.693,2.133a1.19,1.19,0,0,0,1.1,0l3.505-2.039a.331.331,0,0,0,0-.628l-3.693-2.133a1.191,1.191,0,0,0-1.1,0L68.565,398.5a.331.331,0,0,0,0,.628" transform="translate(-30.945 -380.24)"/>
        <path id="Path_221" data-name="Path 221" class="cls-1" d="M95.535,409.4l-3.693-2.133a1.19,1.19,0,0,0-1.1,0l-3.505,2.039a.331.331,0,0,0,0,.628l3.693,2.133a1.191,1.191,0,0,0,1.1,0l3.505-2.039a.331.331,0,0,0,0-.628" transform="translate(-39.326 -385.092)"/>
        <path id="Path_222" data-name="Path 222" class="cls-1" d="M132.965,431l-3.693-2.133a1.19,1.19,0,0,0-1.1,0l-3.505,2.039a.331.331,0,0,0,0,.628l3.693,2.133a1.19,1.19,0,0,0,1.1,0l3.505-2.039a.331.331,0,0,0,0-.628" transform="translate(-56.127 -394.788)"/>
        <path id="Path_223" data-name="Path 223" class="cls-1" d="M72.935,390.539a.331.331,0,0,0,0,.628l3.693,2.133a1.191,1.191,0,0,0,1.1,0l3.505-2.039a.331.331,0,0,0,0-.628L77.542,388.5a1.19,1.19,0,0,0-1.1,0l-3.505,2.039" transform="translate(-32.907 -376.667)"/>
        <path id="Path_224" data-name="Path 224" class="cls-1" d="M161.91,441.91l3.505-2.039a.331.331,0,0,0,0-.628l-3.693-2.133a1.19,1.19,0,0,0-1.1,0l-3.505,2.039a.331.331,0,0,0,0,.628l3.693,2.133a1.191,1.191,0,0,0,1.1,0" transform="translate(-70.693 -398.487)"/>
        <path id="Path_225" data-name="Path 225" class="cls-1" d="M115.12,414.9l3.505-2.039a.331.331,0,0,0,0-.628l-3.693-2.133a1.19,1.19,0,0,0-1.1,0l-3.505,2.039a.331.331,0,0,0,0,.628l3.693,2.133a1.19,1.19,0,0,0,1.1,0" transform="translate(-49.69 -386.363)"/>
        <path id="Path_226" data-name="Path 226" class="cls-1" d="M130.16,465.73l3.505-2.039a.331.331,0,0,0,0-.628l-3.693-2.133a1.191,1.191,0,0,0-1.1,0l-3.505,2.039a.331.331,0,0,0,0,.628l3.693,2.133a1.191,1.191,0,0,0,1.1,0" transform="translate(-56.441 -409.179)"/>
        <path id="Path_227" data-name="Path 227" class="cls-1" d="M65.41,403.19,61.9,405.229a.331.331,0,0,0,0,.628L65.6,407.99a1.19,1.19,0,0,0,1.1,0l3.505-2.039a.331.331,0,0,0,0-.628l-3.693-2.133a1.191,1.191,0,0,0-1.1,0" transform="translate(-27.956 -383.261)"/>
        <path id="Path_228" data-name="Path 228" class="cls-1" d="M80.615,416.647l3.693,2.133a1.19,1.19,0,0,0,1.1,0l3.505-2.039a.331.331,0,0,0,0-.628l-3.693-2.133a1.191,1.191,0,0,0-1.1,0l-3.505,2.039a.331.331,0,0,0,0,.628" transform="translate(-36.354 -388.104)"/>
        <path id="Path_229" data-name="Path 229" class="cls-1" d="M99.335,427.457l3.693,2.133a1.19,1.19,0,0,0,1.1,0l3.505-2.039a.331.331,0,0,0,0-.628l-3.693-2.133a1.19,1.19,0,0,0-1.1,0l-3.505,2.039a.331.331,0,0,0,0,.628" transform="translate(-44.757 -392.957)"/>
        <path id="Path_230" data-name="Path 230" class="cls-1" d="M118.045,438.257l3.693,2.133a1.19,1.19,0,0,0,1.1,0l3.505-2.039a.331.331,0,0,0,0-.628l-3.693-2.133a1.191,1.191,0,0,0-1.1,0l-3.505,2.039a.331.331,0,0,0,0,.628" transform="translate(-53.156 -397.804)"/>
        <path id="Path_231" data-name="Path 231" class="cls-1" d="M127.4,443.657l3.693,2.133a1.19,1.19,0,0,0,1.1,0l3.505-2.039a.331.331,0,0,0,0-.628l-3.693-2.133a1.19,1.19,0,0,0-1.1,0l-3.505,2.039a.331.331,0,0,0,0,.628" transform="translate(-57.357 -400.228)"/>
        <path id="Path_232" data-name="Path 232" class="cls-1" d="M46.69,392.38l-3.505,2.039a.331.331,0,0,0,0,.628l3.693,2.133a1.19,1.19,0,0,0,1.1,0l3.505-2.039a.331.331,0,0,0,0-.628l-3.693-2.133a1.191,1.191,0,0,0-1.1,0" transform="translate(-19.553 -378.408)"/>
        <path id="Path_233" data-name="Path 233" class="cls-1" d="M42.23,400.41l-3.505,2.039a.331.331,0,0,0,0,.628l3.632,2.1a1.2,1.2,0,0,0,1.1,0l3.505-2.039c.276-.16.3-.413.055-.6l-3.693-2.133a1.2,1.2,0,0,0-1.1,0" transform="translate(-17.551 -382.013)"/>
        <path id="Path_234" data-name="Path 234" class="cls-1" d="M22.549,403.6l3.505-2.039a.331.331,0,0,0,0-.628l-3.632-2.1a1.19,1.19,0,0,0-1.1,0l-3.505,2.045a.331.331,0,0,0,0,.628l3.632,2.1a1.191,1.191,0,0,0,1.1,0" transform="translate(-8.165 -381.304)"/>
        <path id="Path_235" data-name="Path 235" class="cls-1" d="M31.918,409.008l3.505-2.039a.331.331,0,0,0,0-.628l-3.632-2.1a1.2,1.2,0,0,0-1.1,0l-3.494,2.012a.331.331,0,0,0,0,.628l3.648,2.127a1.19,1.19,0,0,0,1.1,0" transform="translate(-12.375 -383.733)"/>
        <path id="Path_236" data-name="Path 236" class="cls-1" d="M13.189,398.2l3.505-2.039a.331.331,0,0,0,0-.628l-3.632-2.094a1.19,1.19,0,0,0-1.1,0l-3.505,2.039a.331.331,0,0,0,0,.628l3.632,2.1a1.191,1.191,0,0,0,1.1,0" transform="translate(-3.963 -378.884)"/>
        <path id="Path_237" data-name="Path 237" class="cls-1" d="M54.941,369.632l-1.1.628a.331.331,0,0,0,0,.606l6.272,3.621a1.191,1.191,0,0,0,1.1,0l1.1-.628a.331.331,0,0,0,0-.628l-6.272-3.621a1.19,1.19,0,0,0-1.1,0" transform="translate(-24.348 -368.188)"/>
        <path id="Path_238" data-name="Path 238" class="cls-1" d="M87.577,388.53l-1.1.628a.331.331,0,0,0,0,.628l3.693,2.133a1.2,1.2,0,0,0,1.1,0l1.1-.628a.331.331,0,0,0,0-.628l-3.693-2.133a1.191,1.191,0,0,0-1.1,0" transform="translate(-38.984 -376.68)"/>
        <path id="Path_239" data-name="Path 239" class="cls-1" d="M125.007,410.14l-1.1.628a.331.331,0,0,0,0,.628l3.693,2.133a1.2,1.2,0,0,0,1.1,0l1.1-.628a.331.331,0,0,0,0-.628l-3.693-2.133a1.19,1.19,0,0,0-1.1,0" transform="translate(-55.786 -386.38)"/>
        <path id="Path_240" data-name="Path 240" class="cls-1" d="M106.287,399.34l-1.1.628a.331.331,0,0,0,0,.628l3.693,2.133a1.2,1.2,0,0,0,1.1,0l1.1-.628a.331.331,0,0,0,0-.628l-3.693-2.133a1.191,1.191,0,0,0-1.1,0" transform="translate(-47.383 -381.533)"/>
        <path id="Path_241" data-name="Path 241" class="cls-1" d="M162.427,431.75l-1.1.628a.331.331,0,0,0,0,.628l3.693,2.133a1.2,1.2,0,0,0,1.1,0l1.1-.628a.331.331,0,0,0,0-.628l-3.693-2.133a1.19,1.19,0,0,0-1.1,0" transform="translate(-72.583 -396.081)"/>
        <path id="Path_242" data-name="Path 242" class="cls-1" d="M143.717,420.94l-1.1.628a.331.331,0,0,0,0,.628l3.693,2.133a1.2,1.2,0,0,0,1.1,0l1.1-.628a.331.331,0,0,0,0-.628l-3.693-2.133a1.191,1.191,0,0,0-1.1,0" transform="translate(-64.184 -391.228)"/>
        <path id="Path_243" data-name="Path 243" class="cls-1" d="M153.077,426.35l-1.1.628a.331.331,0,0,0,0,.628l3.693,2.133a1.19,1.19,0,0,0,1.1,0l1.1-.628a.331.331,0,0,0,0-.628l-3.693-2.133a1.19,1.19,0,0,0-1.1,0" transform="translate(-68.386 -393.657)"/>
        <path id="Path_244" data-name="Path 244" class="cls-1" d="M78.217,383.13l-1.1.628a.331.331,0,0,0,0,.628l3.693,2.133a1.19,1.19,0,0,0,1.1,0l1.1-.628a.331.331,0,0,0,0-.628l-3.693-2.133a1.191,1.191,0,0,0-1.1,0" transform="translate(-34.783 -374.256)"/>
        <path id="Path_245" data-name="Path 245" class="cls-1" d="M115.647,404.74l-1.1.628a.331.331,0,0,0,0,.628l3.693,2.133a1.19,1.19,0,0,0,1.1,0l1.1-.628a.331.331,0,0,0,0-.628l-3.693-2.133a1.19,1.19,0,0,0-1.1,0" transform="translate(-51.584 -383.957)"/>
        <path id="Path_246" data-name="Path 246" class="cls-1" d="M68.889,377.739l-1.075.639a.331.331,0,0,0,0,.628l3.693,2.133a1.191,1.191,0,0,0,1.1,0l1.1-.628a.331.331,0,0,0,0-.628l-3.693-2.133a1.19,1.19,0,0,0-1.1,0" transform="translate(-30.608 -371.841)"/>
        <path id="Path_247" data-name="Path 247" class="cls-1" d="M96.917,393.89l-1.1.628a.331.331,0,0,0,0,.628l3.693,2.133a1.191,1.191,0,0,0,1.1,0l1.1-.628a.331.331,0,0,0,0-.628l-3.693-2.133a1.19,1.19,0,0,0-1.1,0" transform="translate(-43.177 -379.086)"/>
        <path id="Path_248" data-name="Path 248" class="cls-1" d="M184.85,445.929l1.1-.628a.331.331,0,0,0,0-.628l-3.693-2.133a1.19,1.19,0,0,0-1.1,0l-1.1.628a.331.331,0,0,0,0,.628l3.693,2.133a1.19,1.19,0,0,0,1.1,0" transform="translate(-80.99 -400.924)"/>
        <path id="Path_249" data-name="Path 249" class="cls-1" d="M134.357,415.54l-1.1.628a.331.331,0,0,0,0,.628l3.693,2.133a1.19,1.19,0,0,0,1.1,0l1.1-.628a.331.331,0,0,0,0-.628l-3.693-2.133a1.19,1.19,0,0,0-1.1,0" transform="translate(-59.983 -388.804)"/>
        <path id="Path_250" data-name="Path 250" class="cls-1" d="M171.787,437.15l-1.1.628a.331.331,0,0,0,0,.628l3.693,2.133a1.2,1.2,0,0,0,1.1,0l1.1-.628a.331.331,0,0,0,0-.628l-3.693-2.133a1.191,1.191,0,0,0-1.1,0" transform="translate(-76.784 -398.505)"/>
      </g>
      <g id="Ratón" transform="translate(101.007 256.757)">
        <path id="Path_251" data-name="Path 251" class="cls-1" d="M218.9,478.786v.49a.263.263,0,0,1-.033.154c-.033.055,0,.11-.039.165l-.044.154-.055.165-.055.149-.072.176-.066.143-.088.171-.1.182v.044a2.868,2.868,0,0,1-.171.259l-.033.05-.193.259-.039.05-.187.22-.055.061-.237.248-.044.044-.2.182-.165.143-.16.132-.182.143-.237.11-.193.138-.182.121-.209.132-.265.165-12.125,7.054-.38.209-.1.055-.353.176H202.6l-.4.182-.1.044-.353.143-.077.033-.424.154-.1.033-.292.094-.281.083-.237.066-.287.077-.243.061-.292.066-.242.055-.3.061-.231.044-.65.1h-.094l-.551.066h-.22l-.369.033h-3.1l-.424-.039H193.2l-.551-.072h-.083l-.474-.072-.193-.039-.353-.066-.187-.039-.386-.088-.215-.055-.347-.094-.3-.083-.11-.033-.441-.143-.083-.028-.358-.127-.121-.044-.281-.11-.193-.077-.27-.121-.171-.077-.287-.143-.143-.072-.413-.226a8.19,8.19,0,0,1-2.32-1.918,5.371,5.371,0,0,1-.6-.915q-.077-.154-.143-.314a4.067,4.067,0,0,1-.331-1.6v3.13c0,1.714,1.1,3.433,3.395,4.74l.413.226.143.072.287.143.171.077.27.121.193.077.182.077.094.039.121.044.358.127.083.028.441.143.11.033.193.055.1.028.347.094.215.055.386.088.143.033h.039l.353.066.193.039.474.072h.077l.551.072h.127l.424.039h3.086l.369-.033h.22l.551-.066h.094l.65-.1h.061l.171-.033.3-.061.242-.055.292-.066.242-.061.287-.077.237-.066.281-.083.121-.039.171-.055.1-.033.424-.154.077-.033.353-.143.1-.044.4-.182h.044l.353-.176.1-.055.38-.209,12.125-7.054.138-.083.127-.077.209-.132.182-.121.193-.138.171-.127.182-.143.16-.132.165-.143.066-.061.127-.121.044-.044.242-.248.055-.061.187-.22.039-.05h0l.176-.237.033-.05.171-.259v-.044l.061-.1.044-.083.088-.171.066-.143.072-.176.033-.077v-.072l.055-.165.044-.154a.9.9,0,0,1,.039-.165V478.61C218.907,478.654,218.9,478.72,218.9,478.786Z" transform="translate(-183.803 -471.897)"/>
        <path id="Path_252" data-name="Path 252" class="cls-1" d="M215.479,468.4c4.5,2.6,4.525,6.817.055,9.413l-12.125,7.054c-4.475,2.6-11.75,2.6-16.253,0s-4.525-6.817-.055-9.413l12.125-7.054C203.7,465.774,210.977,465.774,215.479,468.4Z" transform="translate(-183.765 -466.43)"/>
      </g>
    </g>
  </g>
</svg>
