<svg xmlns="http://www.w3.org/2000/svg" viewBox="0 0 229.92 238.84"><defs><style>.cls-1{fill:#e7eaeb;}.cls-2{fill:#4a71ed;}.cls-3{isolation:isolate;}.cls-4{fill:#a8aaab;}.cls-5{fill:#dddfe0;}</style></defs><title>Lap</title><g id="Capa_2" data-name="Capa 2"><g id="Portátil_2D" data-name="Portátil 2D"><g id="Ángulo_derecho" data-name="Ángulo derecho"><g id="Plata"><path class="cls-1" d="M229.91,81.9v-.14s0-.08,0-.12v-.26l0-.15v-.11l0-.27h0v0l0-.22v0l0-.11,0-.13,0-.07,0-.12,0-.09,0-.11,0-.12,0-.06,0-.15,0-.1v0l-.09-.28h0v0l-.09-.24v0l0-.09,0-.13,0-.08,0-.1,0-.07-.06-.15,0-.08v0l-.12-.26h0l0-.07-.1-.2,0,0-.08-.16-.07-.13v0l-.23-.41,0,0,0,0q-.17-.29-.35-.56l0,0,0-.05-.3-.43h0l-.22-.29h0l-.17-.21,0,0h0l-.21-.24h0l-.06-.07-.13-.15,0,0-.09-.1-.1-.11,0,0-.1-.1-.09-.09,0,0-.11-.1L226,74l-.06-.05-.11-.1-.07-.06-.07-.06-.11-.09-.06,0-.09-.07-.1-.08,0,0-.12-.09-.09-.06,0,0-.23-.15h0l-.21-.13-.05,0L99.59.73l-.17-.1-.06,0-.09,0-.07,0L99.09.47,99,.44h0L98.77.33h0L98.55.25h0l-.08,0-.11,0h-.05l-.09,0-.07,0L98,.1l-.09,0h-.14L97.7,0h-.84l-.25,0h-.08l-.15,0-.07,0-.1,0h0L96,.23,96,.26l-.2.1-1.35.78.2-.1.07,0L94.84,1l.12,0,.07,0,.15,0h.08l.25,0h.71l.13,0,.11,0,.14,0,.09,0,.15,0,.09,0L97.1,1l.08,0,.24.09h0l.24.11.08,0,.18.09.09,0,.23.13,125,72.17.26.16h0l.25.17.09.06.17.12.1.08.15.12.11.09.14.12.11.1.14.12.11.1.14.13.1.1.14.14.09.1.16.17.07.07.22.26,0,0,.18.22.23.3h0l.3.43.05.08q.18.28.35.56l0,.07.23.41.08.15.08.16.11.23,0,.08.13.3,0,.08.09.22,0,.1.08.21,0,.09.1.28v0l.1.31,0,.1.06.21,0,.12,0,.2,0,.12,0,.2,0,.11,0,.27v0c0,.1,0,.2,0,.3V82q0,.11,0,.22v.1q0,.1,0,.2v.1c0,.1,0,.19,0,.29l-.28,97.26c0,.1,0,.2,0,.29v.08c0,.07,0,.13,0,.2v.11l0,.16,0,.12,0,.15,0,.13,0,.13,0,.15,0,.11L228,182l0,.09c0,.09-.07.18-.11.27v0a3.36,3.36,0,0,1-.18.33v0l-.17.24,0,.05-.18.2h0l-.21.19-.05,0-.23.16,1.35-.78.24-.16.05,0,.21-.19h0l.18-.2,0-.05.17-.24h0v0a3.36,3.36,0,0,0,.18-.33v0h0c0-.09.08-.18.11-.27v0l0-.07.06-.17v0l0-.07,0-.15,0-.06v-.07l0-.13v-.15l0-.12v-.32s0-.1,0-.15v-.1q0-.13,0-.26v0l.28-97.26Q229.92,82,229.91,81.9Z"/><path d="M223.23,73.69a11.75,11.75,0,0,1,5.33,9.24l-.28,97.26c0,3.4-2.41,4.77-5.37,3.06l-125-72.17a11.75,11.75,0,0,1-5.33-9.24l.28-97.26c0-3.39,2.41-4.76,5.37-3.06Zm0,93.41.25-87.31L97.94,7.29,97.7,94.61l125.55,72.49"/><polygon class="cls-2" points="223.49 79.78 223.25 167.09 97.7 94.61 97.94 7.29 223.49 79.78"/><g class="cls-3"><polygon class="cls-4" points="106.92 111.08 106.91 116.11 105.29 117.05 105.3 112.02 106.92 111.08"/><path class="cls-4" d="M224.18,180.73s0,.08,0,.11v.1l0,.11,0,.1,0,.11,0,.1,0,.11,0,.1,0,.11,0,.1-.06.11-.05.09-.08.13-.05.08-.11.15,0,.06-.2.23-.06.06-.17.17-.08.08-.11.09-.1.09-.12.09-.11.08-.13.09-.12.08-.14.09-.17.11L137.9,232.54l-.51.27-.14.07-.48.21-.06,0-.54.19-.39.11-.3.08-.42.09-.3.06-.13,0-.52.07-.15,0-.61.05h-1.29l-.38,0-.35,0-.38,0-.34,0-.4-.07-.41-.08-.1,0-.57-.15-.16,0-.46-.16-.13,0-.4-.17-.2-.09-.55-.29-125-72.17A3.77,3.77,0,0,1,0,157.26v5a3.77,3.77,0,0,0,2.23,3.11l125,72.17.55.29.2.08.34.15.06,0,.13,0,.46.16.16,0,.11,0,.46.12.1,0,.23.05.19,0,.4.07.16,0,.18,0,.38,0,.18,0h.17l.38,0h1.29l.51,0h.1l.15,0,.52-.07.13,0h.06l.24-.05.42-.09.3-.08.39-.11.08,0,.46-.16.06,0,.48-.21.14-.07.51-.27L222,188.7l.09-.05.08-.05.14-.09.12-.08.13-.09.11-.08.12-.09.1-.09L223,188l0,0,0,0,.17-.17.06-.06.2-.23h0l0-.05.11-.15.05-.08.08-.13,0,0,0-.06.06-.11,0-.1,0-.11,0-.05,0,0,0-.11,0-.1,0-.11v-.1l0-.11v-.1s0-.08,0-.11,0,0,0-.07v-5.1S224.18,180.69,224.18,180.73Z"/><path class="cls-1" d="M222,177.49c3,1.71,3,4.47,0,6.18L137.9,232.54a11.76,11.76,0,0,1-10.67,0l-125-72.17c-3-1.71-3-4.47,0-6.18L86.3,105.32a11.75,11.75,0,0,1,10.67,0l10,5.75-1.62.94,104.89,60.56,1.62-.94ZM96.26,209.85l29.94-17.4a1,1,0,0,0,0-1.94L74.8,160.84a3.69,3.69,0,0,0-3.35,0l-29.94,17.4a1,1,0,0,0,0,1.94l51.39,29.67a3.69,3.69,0,0,0,3.35,0m-14.16-55-6.24,3.63a.59.59,0,0,0,0,1.12l43.29,25a2.12,2.12,0,0,0,1.93,0l6.24-3.63a.59.59,0,0,0,0-1.12L84,154.88a2.12,2.12,0,0,0-1.93,0M51.85,127.13l-6.24,3.63a.59.59,0,0,0,0,1.12l18.12,10.46a2.12,2.12,0,0,0,1.93,0l6.24-3.63a.59.59,0,0,0,0-1.12L53.78,127.13a2.12,2.12,0,0,0-1.93,0M178,207.19l6.24-3.63a.59.59,0,0,0,0-1.12l-17.44-10.07a2.13,2.13,0,0,0-1.93,0L158.62,196a.59.59,0,0,0,0,1.12l17.44,10.07a2.12,2.12,0,0,0,1.93,0M60.83,121.91l-6.24,3.63a.59.59,0,0,0,0,1.12l13.49,7.79a2.12,2.12,0,0,0,1.93,0l6.24-3.63a.59.59,0,0,0,0-1.12l-13.49-7.79a2.12,2.12,0,0,0-1.93,0M187,202l6.24-3.63a.59.59,0,0,0,0-1.12l-13.33-7.7a2.12,2.12,0,0,0-1.93,0l-6.24,3.63a.59.59,0,0,0,0,1.12L185,202a2.12,2.12,0,0,0,1.93,0M69.78,116.71l-6.24,3.63a.59.59,0,0,0,0,1.12l11.15,6.44a2.12,2.12,0,0,0,1.93,0l6.24-3.63a.59.59,0,0,0,0-1.12l-11.15-6.44a2.12,2.12,0,0,0-1.93,0m135,74.9L211,188c.63-.37.41-.88,0-1.12l-11.11-6.42a2.12,2.12,0,0,0-1.93,0l-6.24,3.63a.59.59,0,0,0,0,1.12l11.11,6.42a2.12,2.12,0,0,0,1.93,0m-72.25-.37,6.24-3.63a.59.59,0,0,0,0-1.12l-8.86-5.11a2.13,2.13,0,0,0-1.93,0L121.76,185a.59.59,0,0,0,0,1.12l8.86,5.11a2.12,2.12,0,0,0,1.93,0M75.06,158l6.24-3.63a.59.59,0,0,0,0-1.12l-8.86-5.11a2.12,2.12,0,0,0-1.93,0l-6.24,3.63a.59.59,0,0,0,0,1.12L73.13,158a2.12,2.12,0,0,0,1.93,0m80.2,28.79L149,190.46a.59.59,0,0,0,0,1.12l6.57,3.79a2.13,2.13,0,0,0,1.93,0l6.24-3.63a.59.59,0,0,0,0-1.12l-6.57-3.79a2.13,2.13,0,0,0-1.93,0M99.5,154.64a.59.59,0,0,0,0-1.12l-6.57-3.79a2.13,2.13,0,0,0-1.93,0l-6.24,3.63a.59.59,0,0,0,0,1.12l6.57,3.79a2.12,2.12,0,0,0,1.93,0l6.24-3.63m9.86,5.69L103.12,164a.59.59,0,0,0,0,1.12l6.57,3.79a2.13,2.13,0,0,0,1.93,0l6.24-3.63a.59.59,0,0,0,0-1.12l-6.57-3.79a2.13,2.13,0,0,0-1.93,0m27.54,15.9-6.24,3.63a.59.59,0,0,0,0,1.12l6.57,3.79a2.12,2.12,0,0,0,1.93,0l6.24-3.63a.59.59,0,0,0,0-1.12l-6.57-3.79a2.13,2.13,0,0,0-1.93,0m-18.36-10.6-6.24,3.63a.59.59,0,0,0,0,1.12l6.57,3.79a2.13,2.13,0,0,0,1.93,0l6.24-3.63a.59.59,0,0,0,0-1.12l-6.57-3.79a2.13,2.13,0,0,0-1.93,0m1-21.28L113,140.56a2.12,2.12,0,0,0-1.93,0l-6.24,3.63a.59.59,0,0,0,0,1.12l6.57,3.79a2.13,2.13,0,0,0,1.93,0l6.24-3.63a.59.59,0,0,0,0-1.12m-20.3-13.67,6.24-3.63a.59.59,0,0,0,0-1.12l-6.57-3.79a2.12,2.12,0,0,0-1.93,0l-6.24,3.63a.59.59,0,0,0,0,1.12l6.57,3.79a2.13,2.13,0,0,0,1.93,0m28.77,48.78a2.12,2.12,0,0,0,1.93,0l6.24-3.63a.59.59,0,0,0,0-1.12l-6.57-3.79a2.12,2.12,0,0,0-1.93,0l-6.24,3.63a.59.59,0,0,0,0,1.12l6.57,3.79m-44-26.5,6.24-3.63a.59.59,0,0,0,0-1.12l-6.57-3.79a2.12,2.12,0,0,0-1.93,0l-6.24,3.63a.59.59,0,0,0,0,1.12L82.16,153a2.12,2.12,0,0,0,1.93,0m94.21,34.73,6.57,3.79a2.13,2.13,0,0,0,1.93,0l6.24-3.63a.59.59,0,0,0,0-1.12L186.45,183a2.12,2.12,0,0,0-1.93,0l-6.24,3.63a.59.59,0,0,0,0,1.12M137.94,155l-6.57-3.79a2.12,2.12,0,0,0-1.93,0l-6.24,3.63a.59.59,0,0,0,0,1.12l6.57,3.79a2.13,2.13,0,0,0,1.93,0l6.24-3.63a.59.59,0,0,0,0-1.12m44,23.43,6.24-3.63a.59.59,0,0,0,0-1.12l-6.57-3.79a2.12,2.12,0,0,0-1.93,0l-6.24,3.63a.59.59,0,0,0,0,1.12l6.57,3.79a2.12,2.12,0,0,0,1.93,0m-64.26-37.1,6.24-3.63a.59.59,0,0,0,0-1.12l-6.57-3.79a2.12,2.12,0,0,0-1.93,0l-6.24,3.63a.59.59,0,0,0,0,1.12l6.57,3.79a2.13,2.13,0,0,0,1.93,0m33.11,60.46,6.24-3.63a.59.59,0,0,0,0-1.12l-6.57-3.79a2.13,2.13,0,0,0-1.93,0l-6.24,3.63a.59.59,0,0,0,0,1.12l6.57,3.79a2.12,2.12,0,0,0,1.93,0m-67.2-77.09-6.24,3.63a.59.59,0,0,0,0,1.12l6.57,3.79a2.13,2.13,0,0,0,1.93,0l6.24-3.63a.59.59,0,0,0,0-1.12l-6.57-3.79a2.12,2.12,0,0,0-1.93,0m91.11,51.49-6.57-3.79a2.12,2.12,0,0,0-1.93,0L159.93,176a.59.59,0,0,0,0,1.12l6.57,3.79a2.13,2.13,0,0,0,1.93,0l6.24-3.63a.59.59,0,0,0,0-1.12m-18.36-10.6-6.57-3.79a2.12,2.12,0,0,0-1.93,0l-6.24,3.63a.59.59,0,0,0,0,1.12l6.57,3.79a2.13,2.13,0,0,0,1.93,0l6.24-3.63a.59.59,0,0,0,0-1.12m-1.94-3.07,6.24-3.63a.59.59,0,0,0,0-1.12L154,153.95a2.12,2.12,0,0,0-1.93,0l-6.24,3.63a.59.59,0,0,0,0,1.12l6.57,3.79a2.13,2.13,0,0,0,1.93,0M136,151.89l6.24-3.63a.59.59,0,0,0,0-1.12l-6.57-3.79a2.12,2.12,0,0,0-1.93,0L127.5,147a.59.59,0,0,0,0,1.12l6.57,3.79a2.12,2.12,0,0,0,1.93,0m10.08,29.65-6.24,3.63a.59.59,0,0,0,0,1.12l6.57,3.79a2.12,2.12,0,0,0,1.93,0l6.24-3.63a.59.59,0,0,0,0-1.12L148,181.53a2.12,2.12,0,0,0-1.93,0M100.18,155l-6.24,3.63a.59.59,0,0,0,0,1.12l6.57,3.79a2.12,2.12,0,0,0,1.93,0l6.24-3.63a.59.59,0,0,0,0-1.12L102.11,155a2.12,2.12,0,0,0-1.93,0M80,141.3l6.57,3.79a2.12,2.12,0,0,0,1.93,0l6.24-3.63a.59.59,0,0,0,0-1.12l-6.57-3.79a2.12,2.12,0,0,0-1.93,0L80,140.18a.59.59,0,0,0,0,1.12M135,173.1l6.57,3.79a2.12,2.12,0,0,0,1.93,0l6.24-3.63a.59.59,0,0,0,0-1.12l-6.57-3.79a2.12,2.12,0,0,0-1.93,0L135,172a.59.59,0,0,0,0,1.12M162.58,189l6.57,3.79a2.13,2.13,0,0,0,1.93,0l6.24-3.63a.59.59,0,0,0,0-1.12l-6.57-3.79a2.12,2.12,0,0,0-1.93,0l-6.24,3.63a.59.59,0,0,0,0,1.12m-45.9-26.5,6.57,3.79a2.13,2.13,0,0,0,1.93,0l6.24-3.63a.59.59,0,0,0,0-1.12l-6.57-3.79a2.12,2.12,0,0,0-1.93,0l-6.24,3.63a.59.59,0,0,0,0,1.12m30.44-2.24-6.57-3.79a2.12,2.12,0,0,0-1.93,0l-6.24,3.63a.59.59,0,0,0,0,1.12L139,165a2.12,2.12,0,0,0,1.93,0l6.24-3.63a.59.59,0,0,0,0-1.12m-45.9-26.5L94.65,130a2.12,2.12,0,0,0-1.93,0l-6.24,3.63a.59.59,0,0,0,0,1.12l6.57,3.79a2.12,2.12,0,0,0,1.93,0l6.24-3.63a.59.59,0,0,0,0-1.12m82.62,47.7-6.57-3.79a2.12,2.12,0,0,0-1.93,0l-6.24,3.63a.59.59,0,0,0,0,1.12l6.57,3.79a2.12,2.12,0,0,0,1.93,0l6.24-3.63a.59.59,0,0,0,0-1.12m-57-34.87,6.24-3.63a.59.59,0,0,0,0-1.12L126.49,138a2.12,2.12,0,0,0-1.93,0l-6.24,3.63a.59.59,0,0,0,0,1.12l6.57,3.79a2.12,2.12,0,0,0,1.93,0m14.75,49.86,6.24-3.63a.59.59,0,0,0,0-1.12l-6.57-3.79a2.12,2.12,0,0,0-1.93,0l-6.24,3.63a.59.59,0,0,0,0,1.12l6.57,3.79a2.12,2.12,0,0,0,1.93,0m-60-74.86,6.57,3.79a2.12,2.12,0,0,0,1.93,0l6.24-3.63a.59.59,0,0,0,0-1.12l-6.57-3.79a2.12,2.12,0,0,0-1.93,0l-6.24,3.63a.59.59,0,0,0,0,1.12m-2.94-10-6.24,3.63a.59.59,0,0,0,0,1.12L79,120.09a2.13,2.13,0,0,0,1.93,0l6.24-3.63a.59.59,0,0,0,0-1.12l-6.57-3.79a2.12,2.12,0,0,0-1.93,0m84.88,56.24,6.24-3.63a.59.59,0,0,0,0-1.12l-6.57-3.79a2.12,2.12,0,0,0-1.93,0L155,162.88a.59.59,0,0,0,0,1.12l6.57,3.79a2.13,2.13,0,0,0,1.93,0m9.18,5.3,6.24-3.63a.59.59,0,0,0,0-1.12l-6.57-3.79a2.12,2.12,0,0,0-1.93,0l-6.24,3.63a.59.59,0,0,0,0,1.12l6.57,3.79a2.12,2.12,0,0,0,1.93,0M98.32,151.9l6.57,3.79a2.12,2.12,0,0,0,1.93,0l6.24-3.63a.59.59,0,0,0,0-1.12l-6.57-3.79a2.12,2.12,0,0,0-1.93,0l-6.24,3.63a.59.59,0,0,0,0,1.12m97.6,44.87,6.24-3.63a.59.59,0,0,0,0-1.12l-6.57-3.79a2.12,2.12,0,0,0-1.93,0l-6.24,3.63a.59.59,0,0,0,0,1.12l6.57,3.79a2.12,2.12,0,0,0,1.93,0m-26.81,15.58,6.24-3.63a.59.59,0,0,0,0-1.12l-6.57-3.79a2.12,2.12,0,0,0-1.93,0l-6.24,3.63a.59.59,0,0,0,0,1.12l6.57,3.79a2.12,2.12,0,0,0,1.93,0M95.67,140l6.57,3.79a2.12,2.12,0,0,0,1.93,0l6.24-3.63a.59.59,0,0,0,0-1.12l-6.57-3.79a2.12,2.12,0,0,0-1.93,0l-6.24,3.63a.59.59,0,0,0,0,1.12m33.09,9.65-6.57-3.79a2.12,2.12,0,0,0-1.93,0L114,149.49a.59.59,0,0,0,0,1.12l6.57,3.79a2.12,2.12,0,0,0,1.93,0l6.24-3.63a.59.59,0,0,0,0-1.12m36.72,21.2-6.57-3.79a2.12,2.12,0,0,0-1.93,0l-6.24,3.63a.59.59,0,0,0,0,1.12l6.57,3.79a2.12,2.12,0,0,0,1.93,0l6.24-3.63a.59.59,0,0,0,0-1.12M100,131.08a.59.59,0,0,0,0,1.12l6.57,3.79a2.12,2.12,0,0,0,1.93,0l6.24-3.63a.59.59,0,0,0,0-1.12l-6.57-3.79a2.12,2.12,0,0,0-1.93,0L100,131.08m91.12,52.61,6.24-3.63a.59.59,0,0,0,0-1.12l-6.57-3.79a2.12,2.12,0,0,0-1.93,0l-6.24,3.63a.59.59,0,0,0,0,1.12l6.57,3.79a2.12,2.12,0,0,0,1.93,0m-45.9-26.5,6.24-3.63a.59.59,0,0,0,0-1.12l-6.57-3.79a2.12,2.12,0,0,0-1.93,0l-6.24,3.63a.59.59,0,0,0,0,1.12l6.57,3.79a2.12,2.12,0,0,0,1.93,0M159.93,207l6.24-3.63a.59.59,0,0,0,0-1.12l-6.57-3.79a2.12,2.12,0,0,0-1.93,0l-6.24,3.63a.59.59,0,0,0,0,1.12L158,207a2.12,2.12,0,0,0,1.93,0M95.37,141.85l-6.24,3.63a.59.59,0,0,0,0,1.12l6.57,3.79a2.12,2.12,0,0,0,1.93,0l6.24-3.63a.59.59,0,0,0,0-1.12l-6.57-3.79a2.12,2.12,0,0,0-1.93,0M107.5,157.2l6.57,3.79a2.12,2.12,0,0,0,1.93,0l6.24-3.63a.59.59,0,0,0,0-1.12l-6.57-3.79a2.12,2.12,0,0,0-1.93,0l-6.24,3.63a.59.59,0,0,0,0,1.12m18.36,10.6,6.57,3.79a2.12,2.12,0,0,0,1.93,0L140.6,168a.59.59,0,0,0,0-1.12L134,163.05a2.12,2.12,0,0,0-1.93,0l-6.24,3.63a.59.59,0,0,0,0,1.12m18.36,10.6,6.57,3.79a2.12,2.12,0,0,0,1.93,0l6.24-3.63a.59.59,0,0,0,0-1.12l-6.57-3.79a2.12,2.12,0,0,0-1.93,0l-6.24,3.63a.59.59,0,0,0,0,1.12m9.18,5.3,6.57,3.79a2.12,2.12,0,0,0,1.93,0l6.24-3.63a.59.59,0,0,0,0-1.12L161.56,179a2.12,2.12,0,0,0-1.93,0l-6.24,3.63a.59.59,0,0,0,0,1.12M77,131.25l-6.24,3.63a.59.59,0,0,0,0,1.12l6.57,3.79a2.12,2.12,0,0,0,1.93,0l6.24-3.63a.59.59,0,0,0,0-1.12l-6.57-3.79a2.12,2.12,0,0,0-1.93,0m-4.38,7.88-6.24,3.63a.59.59,0,0,0,0,1.12l6.47,3.73a2.12,2.12,0,0,0,1.93,0L81,144c.5-.28.54-.74.1-1.06l-6.57-3.79a2.13,2.13,0,0,0-1.93,0m-18.33,6.93,6.24-3.63a.59.59,0,0,0,0-1.12l-6.47-3.73a2.12,2.12,0,0,0-1.93,0l-6.24,3.63a.59.59,0,0,0,0,1.12l6.47,3.73a2.12,2.12,0,0,0,1.93,0m9.18,5.3,6.24-3.63a.59.59,0,0,0,0-1.12l-6.47-3.73a2.13,2.13,0,0,0-1.93,0l-6.24,3.63a.59.59,0,0,0,0,1.12l6.47,3.73a2.12,2.12,0,0,0,1.93,0m-18.36-10.6,6.24-3.63a.59.59,0,0,0,0-1.12l-6.47-3.73a2.12,2.12,0,0,0-1.93,0l-6.24,3.63a.59.59,0,0,0,0,1.12l6.47,3.73a2.12,2.12,0,0,0,1.93,0m38-31.81-1.92,1.12a.59.59,0,0,0,0,1.12l11.16,6.44a2.12,2.12,0,0,0,1.93,0l1.92-1.12a.59.59,0,0,0,0-1.12L85.05,109a2.12,2.12,0,0,0-1.93,0m32.08,18.52-1.92,1.12a.59.59,0,0,0,0,1.12l6.57,3.79a2.13,2.13,0,0,0,1.93,0l1.92-1.12a.59.59,0,0,0,0-1.12l-6.57-3.79a2.12,2.12,0,0,0-1.93,0m36.72,21.2L150,149.79a.59.59,0,0,0,0,1.12l6.57,3.79a2.13,2.13,0,0,0,1.93,0l1.92-1.12a.59.59,0,0,0,0-1.12l-6.57-3.79a2.12,2.12,0,0,0-1.93,0m-18.36-10.6-1.92,1.12a.59.59,0,0,0,0,1.12l6.57,3.79a2.13,2.13,0,0,0,1.93,0l1.92-1.12a.59.59,0,0,0,0-1.12l-6.57-3.79a2.12,2.12,0,0,0-1.93,0m55.08,31.8L186.72,171a.59.59,0,0,0,0,1.12l6.57,3.79a2.13,2.13,0,0,0,1.93,0l1.92-1.12a.59.59,0,0,0,0-1.12l-6.57-3.79a2.12,2.12,0,0,0-1.93,0m-18.36-10.6-1.92,1.12a.59.59,0,0,0,0,1.12l6.57,3.79a2.13,2.13,0,0,0,1.93,0l1.92-1.12a.59.59,0,0,0,0-1.12l-6.57-3.79a2.12,2.12,0,0,0-1.93,0m9.18,5.3-1.92,1.12a.59.59,0,0,0,0,1.12l6.57,3.79a2.12,2.12,0,0,0,1.93,0l1.92-1.12a.59.59,0,0,0,0-1.12l-6.57-3.79a2.12,2.12,0,0,0-1.93,0M106,122.18l-1.92,1.12a.59.59,0,0,0,0,1.12l6.57,3.79a2.12,2.12,0,0,0,1.93,0l1.92-1.12a.59.59,0,0,0,0-1.12L108,122.18a2.12,2.12,0,0,0-1.93,0m36.72,21.2-1.92,1.12a.59.59,0,0,0,0,1.12l6.57,3.79a2.12,2.12,0,0,0,1.93,0l1.92-1.12a.59.59,0,0,0,0-1.12l-6.57-3.79a2.12,2.12,0,0,0-1.93,0m-45.9-26.5L94.93,118a.59.59,0,0,0,0,1.12l6.57,3.79a2.12,2.12,0,0,0,1.93,0l1.92-1.12a.59.59,0,0,0,0-1.12l-6.57-3.79a2.12,2.12,0,0,0-1.93,0m27.54,15.9-1.92,1.12a.59.59,0,0,0,0,1.12L129,138.8a2.12,2.12,0,0,0,1.93,0l1.92-1.12a.59.59,0,0,0,0-1.12l-6.57-3.79a2.12,2.12,0,0,0-1.93,0m89.2,53.72,1.92-1.12a.59.59,0,0,0,0-1.12l-6.57-3.79a2.12,2.12,0,0,0-1.93,0l-1.92,1.12a.59.59,0,0,0,0,1.12l6.57,3.79a2.12,2.12,0,0,0,1.93,0M161.1,154l-1.92,1.12a.59.59,0,0,0,0,1.12l6.57,3.79a2.12,2.12,0,0,0,1.93,0l1.92-1.12a.59.59,0,0,0,0-1.12L163,154a2.12,2.12,0,0,0-1.93,0m36.72,21.2-1.92,1.12a.59.59,0,0,0,0,1.12l6.57,3.79a2.12,2.12,0,0,0,1.93,0l1.92-1.12a.59.59,0,0,0,0-1.12l-6.57-3.79a2.12,2.12,0,0,0-1.93,0"/><path class="cls-5" d="M96.26,209.85l29.94-17.4a1,1,0,0,0,0-1.94L74.8,160.84a3.69,3.69,0,0,0-3.35,0l-29.94,17.4a1,1,0,0,0,0,1.94l51.39,29.67a3.69,3.69,0,0,0,3.35,0"/></g><path d="M82.11,154.88l-6.24,3.63a.59.59,0,0,0,0,1.12l43.29,25a2.12,2.12,0,0,0,1.93,0l6.24-3.63a.59.59,0,0,0,0-1.12L84,154.88a2.12,2.12,0,0,0-1.93,0"/><path d="M51.85,127.13l-6.24,3.63a.59.59,0,0,0,0,1.12l18.12,10.46a2.12,2.12,0,0,0,1.93,0l6.24-3.63a.59.59,0,0,0,0-1.12L53.78,127.13a2.12,2.12,0,0,0-1.93,0"/><path d="M178,207.19l6.24-3.63a.59.59,0,0,0,0-1.12l-17.44-10.07a2.13,2.13,0,0,0-1.93,0L158.62,196a.59.59,0,0,0,0,1.12l17.44,10.07a2.12,2.12,0,0,0,1.93,0"/><path d="M60.83,121.91l-6.24,3.63a.59.59,0,0,0,0,1.12l13.49,7.79a2.12,2.12,0,0,0,1.93,0l6.24-3.63a.59.59,0,0,0,0-1.12l-13.49-7.79a2.12,2.12,0,0,0-1.93,0"/><path d="M187,202l6.24-3.63a.59.59,0,0,0,0-1.12l-13.33-7.7a2.12,2.12,0,0,0-1.93,0l-6.24,3.63a.59.59,0,0,0,0,1.12L185,202a2.12,2.12,0,0,0,1.93,0"/><path d="M69.78,116.71l-6.24,3.63a.59.59,0,0,0,0,1.12l11.15,6.44a2.12,2.12,0,0,0,1.93,0l6.24-3.63a.59.59,0,0,0,0-1.12l-11.15-6.44a2.12,2.12,0,0,0-1.93,0"/><path d="M204.8,191.61,211,188c.63-.37.41-.88,0-1.12l-11.11-6.42a2.12,2.12,0,0,0-1.93,0l-6.24,3.63a.59.59,0,0,0,0,1.12l11.11,6.42a2.12,2.12,0,0,0,1.93,0"/><path d="M132.55,191.24l6.24-3.63a.59.59,0,0,0,0-1.12l-8.86-5.11a2.13,2.13,0,0,0-1.93,0L121.76,185a.59.59,0,0,0,0,1.12l8.86,5.11a2.12,2.12,0,0,0,1.93,0"/><path d="M75.06,158l6.24-3.63a.59.59,0,0,0,0-1.12l-8.86-5.11a2.12,2.12,0,0,0-1.93,0l-6.24,3.63a.59.59,0,0,0,0,1.12L73.13,158a2.12,2.12,0,0,0,1.93,0"/><path d="M155.26,186.83,149,190.46a.59.59,0,0,0,0,1.12l6.57,3.79a2.13,2.13,0,0,0,1.93,0l6.24-3.63a.59.59,0,0,0,0-1.12l-6.57-3.79a2.13,2.13,0,0,0-1.93,0"/><path d="M99.5,154.64a.59.59,0,0,0,0-1.12l-6.57-3.79a2.13,2.13,0,0,0-1.93,0l-6.24,3.63a.59.59,0,0,0,0,1.12l6.57,3.79a2.12,2.12,0,0,0,1.93,0l6.24-3.63"/><path d="M109.36,160.33,103.12,164a.59.59,0,0,0,0,1.12l6.57,3.79a2.13,2.13,0,0,0,1.93,0l6.24-3.63a.59.59,0,0,0,0-1.12l-6.57-3.79a2.13,2.13,0,0,0-1.93,0"/><path d="M136.9,176.23l-6.24,3.63a.59.59,0,0,0,0,1.12l6.57,3.79a2.12,2.12,0,0,0,1.93,0l6.24-3.63a.59.59,0,0,0,0-1.12l-6.57-3.79a2.13,2.13,0,0,0-1.93,0"/><path d="M118.54,165.63l-6.24,3.63a.59.59,0,0,0,0,1.12l6.57,3.79a2.13,2.13,0,0,0,1.93,0l6.24-3.63a.59.59,0,0,0,0-1.12l-6.57-3.79a2.13,2.13,0,0,0-1.93,0"/><path d="M119.59,144.35,113,140.56a2.12,2.12,0,0,0-1.93,0l-6.24,3.63a.59.59,0,0,0,0,1.12l6.57,3.79a2.13,2.13,0,0,0,1.93,0l6.24-3.63a.59.59,0,0,0,0-1.12"/><path d="M99.28,130.69l6.24-3.63a.59.59,0,0,0,0-1.12l-6.57-3.79a2.12,2.12,0,0,0-1.93,0l-6.24,3.63a.59.59,0,0,0,0,1.12l6.57,3.79a2.13,2.13,0,0,0,1.93,0"/><path d="M128.05,179.47a2.12,2.12,0,0,0,1.93,0l6.24-3.63a.59.59,0,0,0,0-1.12l-6.57-3.79a2.12,2.12,0,0,0-1.93,0l-6.24,3.63a.59.59,0,0,0,0,1.12l6.57,3.79"/><path d="M84.08,153l6.24-3.63a.59.59,0,0,0,0-1.12l-6.57-3.79a2.12,2.12,0,0,0-1.93,0l-6.24,3.63a.59.59,0,0,0,0,1.12L82.16,153a2.12,2.12,0,0,0,1.93,0"/><path d="M178.29,187.7l6.57,3.79a2.13,2.13,0,0,0,1.93,0l6.24-3.63a.59.59,0,0,0,0-1.12L186.45,183a2.12,2.12,0,0,0-1.93,0l-6.24,3.63a.59.59,0,0,0,0,1.12"/><path d="M137.94,155l-6.57-3.79a2.12,2.12,0,0,0-1.93,0l-6.24,3.63a.59.59,0,0,0,0,1.12l6.57,3.79a2.13,2.13,0,0,0,1.93,0l6.24-3.63a.59.59,0,0,0,0-1.12"/><path d="M181.9,178.39l6.24-3.63a.59.59,0,0,0,0-1.12l-6.57-3.79a2.12,2.12,0,0,0-1.93,0l-6.24,3.63a.59.59,0,0,0,0,1.12l6.57,3.79a2.12,2.12,0,0,0,1.93,0"/><path d="M117.64,141.29l6.24-3.63a.59.59,0,0,0,0-1.12l-6.57-3.79a2.12,2.12,0,0,0-1.93,0l-6.24,3.63a.59.59,0,0,0,0,1.12l6.57,3.79a2.13,2.13,0,0,0,1.93,0"/><path d="M150.75,201.75l6.24-3.63a.59.59,0,0,0,0-1.12l-6.57-3.79a2.13,2.13,0,0,0-1.93,0l-6.24,3.63a.59.59,0,0,0,0,1.12l6.57,3.79a2.12,2.12,0,0,0,1.93,0"/><path d="M83.55,124.66l-6.24,3.63a.59.59,0,0,0,0,1.12l6.57,3.79a2.13,2.13,0,0,0,1.93,0l6.24-3.63a.59.59,0,0,0,0-1.12l-6.57-3.79a2.12,2.12,0,0,0-1.93,0"/><path d="M174.66,176.15l-6.57-3.79a2.12,2.12,0,0,0-1.93,0L159.93,176a.59.59,0,0,0,0,1.12l6.57,3.79a2.13,2.13,0,0,0,1.93,0l6.24-3.63a.59.59,0,0,0,0-1.12"/><path d="M156.3,165.55l-6.57-3.79a2.12,2.12,0,0,0-1.93,0l-6.24,3.63a.59.59,0,0,0,0,1.12l6.57,3.79a2.13,2.13,0,0,0,1.93,0l6.24-3.63a.59.59,0,0,0,0-1.12"/><path d="M154.36,162.49l6.24-3.63a.59.59,0,0,0,0-1.12L154,153.95a2.12,2.12,0,0,0-1.93,0l-6.24,3.63a.59.59,0,0,0,0,1.12l6.57,3.79a2.13,2.13,0,0,0,1.93,0"/><path d="M136,151.89l6.24-3.63a.59.59,0,0,0,0-1.12l-6.57-3.79a2.12,2.12,0,0,0-1.93,0L127.5,147a.59.59,0,0,0,0,1.12l6.57,3.79a2.12,2.12,0,0,0,1.93,0"/><path d="M146.08,181.53l-6.24,3.63a.59.59,0,0,0,0,1.12l6.57,3.79a2.12,2.12,0,0,0,1.93,0l6.24-3.63a.59.59,0,0,0,0-1.12L148,181.53a2.12,2.12,0,0,0-1.93,0"/><path d="M100.18,155l-6.24,3.63a.59.59,0,0,0,0,1.12l6.57,3.79a2.12,2.12,0,0,0,1.93,0l6.24-3.63a.59.59,0,0,0,0-1.12L102.11,155a2.12,2.12,0,0,0-1.93,0"/><path d="M80,141.3l6.57,3.79a2.12,2.12,0,0,0,1.93,0l6.24-3.63a.59.59,0,0,0,0-1.12l-6.57-3.79a2.12,2.12,0,0,0-1.93,0L80,140.18a.59.59,0,0,0,0,1.12"/><path d="M135,173.1l6.57,3.79a2.12,2.12,0,0,0,1.93,0l6.24-3.63a.59.59,0,0,0,0-1.12l-6.57-3.79a2.12,2.12,0,0,0-1.93,0L135,172a.59.59,0,0,0,0,1.12"/><path d="M162.58,189l6.57,3.79a2.13,2.13,0,0,0,1.93,0l6.24-3.63a.59.59,0,0,0,0-1.12l-6.57-3.79a2.12,2.12,0,0,0-1.93,0l-6.24,3.63a.59.59,0,0,0,0,1.12"/><path d="M116.68,162.5l6.57,3.79a2.13,2.13,0,0,0,1.93,0l6.24-3.63a.59.59,0,0,0,0-1.12l-6.57-3.79a2.12,2.12,0,0,0-1.93,0l-6.24,3.63a.59.59,0,0,0,0,1.12"/><path d="M147.12,160.25l-6.57-3.79a2.12,2.12,0,0,0-1.93,0l-6.24,3.63a.59.59,0,0,0,0,1.12L139,165a2.12,2.12,0,0,0,1.93,0l6.24-3.63a.59.59,0,0,0,0-1.12"/><path d="M101.23,133.75,94.65,130a2.12,2.12,0,0,0-1.93,0l-6.24,3.63a.59.59,0,0,0,0,1.12l6.57,3.79a2.12,2.12,0,0,0,1.93,0l6.24-3.63a.59.59,0,0,0,0-1.12"/><path d="M183.84,181.45l-6.57-3.79a2.12,2.12,0,0,0-1.93,0l-6.24,3.63a.59.59,0,0,0,0,1.12l6.57,3.79a2.12,2.12,0,0,0,1.93,0l6.24-3.63a.59.59,0,0,0,0-1.12"/><path d="M126.82,146.59l6.24-3.63a.59.59,0,0,0,0-1.12L126.49,138a2.12,2.12,0,0,0-1.93,0l-6.24,3.63a.59.59,0,0,0,0,1.12l6.57,3.79a2.12,2.12,0,0,0,1.93,0"/><path d="M141.57,196.45l6.24-3.63a.59.59,0,0,0,0-1.12l-6.57-3.79a2.12,2.12,0,0,0-1.93,0l-6.24,3.63a.59.59,0,0,0,0,1.12l6.57,3.79a2.12,2.12,0,0,0,1.93,0"/><path d="M81.61,121.59l6.57,3.79a2.12,2.12,0,0,0,1.93,0l6.24-3.63a.59.59,0,0,0,0-1.12l-6.57-3.79a2.12,2.12,0,0,0-1.93,0l-6.24,3.63a.59.59,0,0,0,0,1.12"/><path d="M78.66,111.55l-6.24,3.63a.59.59,0,0,0,0,1.12L79,120.09a2.13,2.13,0,0,0,1.93,0l6.24-3.63a.59.59,0,0,0,0-1.12l-6.57-3.79a2.12,2.12,0,0,0-1.93,0"/><path d="M163.54,167.79l6.24-3.63a.59.59,0,0,0,0-1.12l-6.57-3.79a2.12,2.12,0,0,0-1.93,0L155,162.88a.59.59,0,0,0,0,1.12l6.57,3.79a2.13,2.13,0,0,0,1.93,0"/><path d="M172.72,173.08l6.24-3.63a.59.59,0,0,0,0-1.12l-6.57-3.79a2.12,2.12,0,0,0-1.93,0l-6.24,3.63a.59.59,0,0,0,0,1.12l6.57,3.79a2.12,2.12,0,0,0,1.93,0"/><path d="M98.32,151.9l6.57,3.79a2.12,2.12,0,0,0,1.93,0l6.24-3.63a.59.59,0,0,0,0-1.12l-6.57-3.79a2.12,2.12,0,0,0-1.93,0l-6.24,3.63a.59.59,0,0,0,0,1.12"/><path d="M195.92,196.77l6.24-3.63a.59.59,0,0,0,0-1.12l-6.57-3.79a2.12,2.12,0,0,0-1.93,0l-6.24,3.63a.59.59,0,0,0,0,1.12l6.57,3.79a2.12,2.12,0,0,0,1.93,0"/><path d="M169.11,212.35l6.24-3.63a.59.59,0,0,0,0-1.12l-6.57-3.79a2.12,2.12,0,0,0-1.93,0l-6.24,3.63a.59.59,0,0,0,0,1.12l6.57,3.79a2.12,2.12,0,0,0,1.93,0"/><path d="M95.67,140l6.57,3.79a2.12,2.12,0,0,0,1.93,0l6.24-3.63a.59.59,0,0,0,0-1.12l-6.57-3.79a2.12,2.12,0,0,0-1.93,0l-6.24,3.63a.59.59,0,0,0,0,1.12"/><path d="M128.76,149.65l-6.57-3.79a2.12,2.12,0,0,0-1.93,0L114,149.49a.59.59,0,0,0,0,1.12l6.57,3.79a2.12,2.12,0,0,0,1.93,0l6.24-3.63a.59.59,0,0,0,0-1.12"/><path d="M165.48,170.85l-6.57-3.79a2.12,2.12,0,0,0-1.93,0l-6.24,3.63a.59.59,0,0,0,0,1.12l6.57,3.79a2.12,2.12,0,0,0,1.93,0l6.24-3.63a.59.59,0,0,0,0-1.12"/><path d="M100,131.08a.59.59,0,0,0,0,1.12l6.57,3.79a2.12,2.12,0,0,0,1.93,0l6.24-3.63a.59.59,0,0,0,0-1.12l-6.57-3.79a2.12,2.12,0,0,0-1.93,0L100,131.08"/><path d="M191.08,183.68l6.24-3.63a.59.59,0,0,0,0-1.12l-6.57-3.79a2.12,2.12,0,0,0-1.93,0l-6.24,3.63a.59.59,0,0,0,0,1.12l6.57,3.79a2.12,2.12,0,0,0,1.93,0"/><path d="M145.18,157.19l6.24-3.63a.59.59,0,0,0,0-1.12l-6.57-3.79a2.12,2.12,0,0,0-1.93,0l-6.24,3.63a.59.59,0,0,0,0,1.12l6.57,3.79a2.12,2.12,0,0,0,1.93,0"/><path d="M159.93,207l6.24-3.63a.59.59,0,0,0,0-1.12l-6.57-3.79a2.12,2.12,0,0,0-1.93,0l-6.24,3.63a.59.59,0,0,0,0,1.12L158,207a2.12,2.12,0,0,0,1.93,0"/><path d="M95.37,141.85l-6.24,3.63a.59.59,0,0,0,0,1.12l6.57,3.79a2.12,2.12,0,0,0,1.93,0l6.24-3.63a.59.59,0,0,0,0-1.12l-6.57-3.79a2.12,2.12,0,0,0-1.93,0"/><path d="M107.5,157.2l6.57,3.79a2.12,2.12,0,0,0,1.93,0l6.24-3.63a.59.59,0,0,0,0-1.12l-6.57-3.79a2.12,2.12,0,0,0-1.93,0l-6.24,3.63a.59.59,0,0,0,0,1.12"/><path d="M125.86,167.8l6.57,3.79a2.12,2.12,0,0,0,1.93,0L140.6,168a.59.59,0,0,0,0-1.12L134,163.05a2.12,2.12,0,0,0-1.93,0l-6.24,3.63a.59.59,0,0,0,0,1.12"/><path d="M144.22,178.4l6.57,3.79a2.12,2.12,0,0,0,1.93,0l6.24-3.63a.59.59,0,0,0,0-1.12l-6.57-3.79a2.12,2.12,0,0,0-1.93,0l-6.24,3.63a.59.59,0,0,0,0,1.12"/><path d="M153.4,183.7l6.57,3.79a2.12,2.12,0,0,0,1.93,0l6.24-3.63a.59.59,0,0,0,0-1.12L161.56,179a2.12,2.12,0,0,0-1.93,0l-6.24,3.63a.59.59,0,0,0,0,1.12"/><path d="M77,131.25l-6.24,3.63a.59.59,0,0,0,0,1.12l6.57,3.79a2.12,2.12,0,0,0,1.93,0l6.24-3.63a.59.59,0,0,0,0-1.12l-6.57-3.79a2.12,2.12,0,0,0-1.93,0"/><path d="M72.64,139.13l-6.24,3.63a.59.59,0,0,0,0,1.12l6.47,3.73a2.12,2.12,0,0,0,1.93,0L81,144c.5-.28.54-.74.1-1.06l-6.57-3.79a2.13,2.13,0,0,0-1.93,0"/><path d="M54.31,146.07l6.24-3.63a.59.59,0,0,0,0-1.12l-6.47-3.73a2.12,2.12,0,0,0-1.93,0l-6.24,3.63a.59.59,0,0,0,0,1.12l6.47,3.73a2.12,2.12,0,0,0,1.93,0"/><path d="M63.49,151.37l6.24-3.63a.59.59,0,0,0,0-1.12l-6.47-3.73a2.13,2.13,0,0,0-1.93,0l-6.24,3.63a.59.59,0,0,0,0,1.12l6.47,3.73a2.12,2.12,0,0,0,1.93,0"/><path d="M45.13,140.77l6.24-3.63a.59.59,0,0,0,0-1.12l-6.47-3.73a2.12,2.12,0,0,0-1.93,0l-6.24,3.63a.59.59,0,0,0,0,1.12l6.47,3.73a2.12,2.12,0,0,0,1.93,0"/><path d="M83.12,109l-1.92,1.12a.59.59,0,0,0,0,1.12l11.16,6.44a2.12,2.12,0,0,0,1.93,0l1.92-1.12a.59.59,0,0,0,0-1.12L85.05,109a2.12,2.12,0,0,0-1.93,0"/><path d="M115.2,127.48l-1.92,1.12a.59.59,0,0,0,0,1.12l6.57,3.79a2.13,2.13,0,0,0,1.93,0l1.92-1.12a.59.59,0,0,0,0-1.12l-6.57-3.79a2.12,2.12,0,0,0-1.93,0"/><path d="M151.92,148.68,150,149.79a.59.59,0,0,0,0,1.12l6.57,3.79a2.13,2.13,0,0,0,1.93,0l1.92-1.12a.59.59,0,0,0,0-1.12l-6.57-3.79a2.12,2.12,0,0,0-1.93,0"/><path d="M133.56,138.08l-1.92,1.12a.59.59,0,0,0,0,1.12l6.57,3.79a2.13,2.13,0,0,0,1.93,0l1.92-1.12a.59.59,0,0,0,0-1.12l-6.57-3.79a2.12,2.12,0,0,0-1.93,0"/><path d="M188.64,169.88,186.72,171a.59.59,0,0,0,0,1.12l6.57,3.79a2.13,2.13,0,0,0,1.93,0l1.92-1.12a.59.59,0,0,0,0-1.12l-6.57-3.79a2.12,2.12,0,0,0-1.93,0"/><path d="M170.28,159.28l-1.92,1.12a.59.59,0,0,0,0,1.12l6.57,3.79a2.13,2.13,0,0,0,1.93,0l1.92-1.12a.59.59,0,0,0,0-1.12l-6.57-3.79a2.12,2.12,0,0,0-1.93,0"/><path d="M179.46,164.58l-1.92,1.12a.59.59,0,0,0,0,1.12l6.57,3.79a2.12,2.12,0,0,0,1.93,0l1.92-1.12a.59.59,0,0,0,0-1.12l-6.57-3.79a2.12,2.12,0,0,0-1.93,0"/><path d="M106,122.18l-1.92,1.12a.59.59,0,0,0,0,1.12l6.57,3.79a2.12,2.12,0,0,0,1.93,0l1.92-1.12a.59.59,0,0,0,0-1.12L108,122.18a2.12,2.12,0,0,0-1.93,0"/><path d="M142.74,143.38l-1.92,1.12a.59.59,0,0,0,0,1.12l6.57,3.79a2.12,2.12,0,0,0,1.93,0l1.92-1.12a.59.59,0,0,0,0-1.12l-6.57-3.79a2.12,2.12,0,0,0-1.93,0"/><path d="M96.85,116.88,94.93,118a.59.59,0,0,0,0,1.12l6.57,3.79a2.12,2.12,0,0,0,1.93,0l1.92-1.12a.59.59,0,0,0,0-1.12l-6.57-3.79a2.12,2.12,0,0,0-1.93,0"/><path d="M124.38,132.78l-1.92,1.12a.59.59,0,0,0,0,1.12L129,138.8a2.12,2.12,0,0,0,1.93,0l1.92-1.12a.59.59,0,0,0,0-1.12l-6.57-3.79a2.12,2.12,0,0,0-1.93,0"/><path d="M213.59,186.5l1.92-1.12a.59.59,0,0,0,0-1.12l-6.57-3.79a2.12,2.12,0,0,0-1.93,0l-1.92,1.12a.59.59,0,0,0,0,1.12l6.57,3.79a2.12,2.12,0,0,0,1.93,0"/><path d="M161.1,154l-1.92,1.12a.59.59,0,0,0,0,1.12l6.57,3.79a2.12,2.12,0,0,0,1.93,0l1.92-1.12a.59.59,0,0,0,0-1.12L163,154a2.12,2.12,0,0,0-1.93,0"/><path d="M197.82,175.18l-1.92,1.12a.59.59,0,0,0,0,1.12l6.57,3.79a2.12,2.12,0,0,0,1.93,0l1.92-1.12a.59.59,0,0,0,0-1.12l-6.57-3.79a2.12,2.12,0,0,0-1.93,0"/><path d="M220.75,185.74c.62-.36,1.12-.07,1.12.64a2.45,2.45,0,0,1-1.11,1.93c-.62.36-1.12.07-1.12-.64A2.45,2.45,0,0,1,220.75,185.74Z"/></g></g></g></g></svg>