<svg xmlns="http://www.w3.org/2000/svg" viewBox="-141.289 -115 1372.399 1372.266">
  <defs>
    <style>
      .cls-1 {
        fill: #1b1b1b;
        opacity: 0.198;
      }
    </style>
  </defs>
  <path id="Union_1" data-name="Union 1" class="cls-1" d="M1019.822,1423.222c18.933-10.089,39.467-14.978,59.333-19.688,28.844-6.844,56.133-13.333,77.467-34.711s27.822-48.578,34.711-77.467c7.244-30.356,14.711-61.734,40-87.156s56.8-32.889,87.156-40c28.844-6.89,56.133-13.333,77.467-34.711s27.822-48.578,34.71-77.467c4.756-19.867,9.645-40.4,19.689-59.333l18.044,9.6c-8.888,16.623-13.333,35.023-17.778,54.49-7.244,30.355-14.71,61.733-40,87.155s-56.8,32.889-87.156,40c-28.844,6.889-56.133,13.333-77.467,34.711s-27.822,48.578-34.711,77.467c-7.244,30.356-14.711,61.734-40,87.156s-56.8,32.889-87.155,40c-19.689,4.978-38.045,9.156-54.712,18Zm-478.845,0c18.933-10.089,39.467-14.978,59.333-19.688,28.845-6.844,56.134-13.333,77.467-34.711s27.823-48.578,34.711-77.467c7.245-30.356,14.711-61.734,40-87.156s56.8-32.889,87.155-40c28.845-6.89,56.134-13.333,77.467-34.711s27.823-48.578,34.711-77.467c7.245-30.356,14.711-61.734,40-87.156s56.8-32.889,87.155-40c28.845-6.889,56.134-13.333,77.467-34.711s27.823-48.578,34.711-77.467c7.245-30.356,14.711-61.734,40-87.156s56.8-32.889,87.155-40c28.845-6.89,56.134-13.333,77.467-34.711s27.823-48.577,34.711-77.467c4.755-19.867,9.644-40.4,19.689-59.378l18.044,9.6c-8.889,16.622-13.333,35.023-17.778,54.489-7.244,30.356-14.711,61.734-40,87.156s-56.8,32.889-87.156,40c-28.844,6.889-56.133,13.333-77.467,34.711S1218,788.512,1211.111,817.4c-7.244,30.356-14.711,61.734-40,87.156s-56.8,32.889-87.156,40c-28.844,6.89-56.133,13.333-77.467,34.711s-27.822,48.578-34.711,77.467c-7.244,30.355-14.711,61.734-40,87.156s-56.8,32.889-87.156,40c-28.844,6.889-56.133,13.333-77.467,34.711s-27.822,48.578-34.711,77.467c-7.244,30.355-14.711,61.734-40,87.156s-56.8,32.889-87.156,40c-19.555,5.022-38.089,9.2-54.711,18.044Zm678.533,2.178c18.845-20.8,25.023-46.711,31.556-74.134,7.244-30.355,14.711-61.733,40-87.155s56.8-32.889,87.155-40c27.422-6.533,53.333-12.711,74.133-31.555l13.689,15.111c-24.666,22.222-54.4,29.467-83.111,36.311s-56.133,13.333-77.467,34.71-27.822,48.578-34.71,77.467-13.6,58.267-36.133,82.934Zm-478.711,0c18.844-20.8,25.023-46.711,31.556-74.134,7.244-30.355,14.711-61.733,40-87.155s56.8-32.889,87.156-40c28.844-6.844,56.133-13.333,77.467-34.71s27.822-48.578,34.711-77.467c7.244-30.355,14.711-61.733,40-87.155s56.8-32.889,87.156-40c28.844-6.844,56.133-13.333,77.467-34.71s27.822-48.578,34.711-77.467c7.244-30.356,14.71-61.734,40-87.156s56.8-32.889,87.156-40c27.422-6.534,53.333-12.712,74.133-31.556L1466,729c-24.667,22.222-54.4,29.467-83.111,36.311s-56.133,13.333-77.467,34.71-27.466,48.223-34.356,77.112c-7.244,30.355-14.711,61.733-40,87.155s-56.8,32.889-87.156,40c-28.844,6.844-56.133,13.333-77.467,34.711s-27.822,48.578-34.711,77.467c-7.244,30.356-14.711,61.734-40,87.156s-56.8,32.889-87.156,40c-28.844,6.844-56.133,13.333-77.467,34.711s-27.822,48.578-34.711,77.467-14.089,58.622-36.489,83.29Zm-478.844,0c18.844-20.8,25.022-46.711,31.555-74.178,7.245-30.355,14.711-61.734,40-87.155s56.8-32.89,87.155-40c28.845-6.844,56.134-13.333,77.467-34.711s27.823-48.578,34.711-77.467c7.245-30.355,14.711-61.734,40-87.155s56.8-32.89,87.155-40c28.845-6.844,56.134-13.333,77.467-34.711s27.823-48.578,34.711-77.467c7.245-30.355,14.711-61.733,40-87.155s56.8-32.889,87.155-40c28.845-6.889,56.134-13.333,77.467-34.711s27.823-48.577,34.711-77.467c7.245-30.355,14.711-61.733,40-87.155s56.8-32.889,87.155-40c28.845-6.889,56.134-13.333,77.467-34.711s27.823-48.578,34.711-77.467c7.244-30.355,14.711-61.733,40-87.155s56.8-32.889,87.155-40c27.422-6.533,53.333-12.711,74.134-31.555l13.688,15.111c-24.666,22.222-54.4,29.467-83.11,36.266s-55.6,12.8-76.978,34.223-27.823,48.577-34.711,77.467c-7.244,30.355-14.711,61.733-40,87.155s-56.8,32.89-87.155,40c-28.844,6.889-56.133,13.333-77.467,34.711s-27.823,48.578-34.711,77.467c-7.244,30.355-14.711,61.733-40,87.155s-56.8,32.889-87.156,40c-28.844,6.889-56.133,13.333-77.467,34.711s-28,48.8-34.844,77.689c-7.244,30.355-14.711,61.733-40,87.155s-56.8,32.889-87.156,40c-28.844,6.844-56.133,13.333-77.467,34.71s-27.823,48.578-34.711,77.467c-7.244,30.356-14.711,61.734-40,87.156s-56.8,32.889-87.156,40c-28.844,6.844-56.133,13.333-77.467,34.711s-27.823,48.577-34.711,77.422-14.134,58.667-36.489,83.334Zm1121.022,3.245a118.132,118.132,0,0,1,72.889-72.889l7.244,19.067a97.78,97.78,0,0,0-61.067,61.067Zm-957.778,0a123.96,123.96,0,0,1,28.134-44.845c25.422-25.421,56.8-32.889,87.155-40,28.845-6.889,56.134-13.333,77.467-34.711s27.823-48.578,34.711-77.467c7.245-30.355,14.711-61.733,40-87.155s56.8-32.889,87.155-40c28.845-6.889,56.134-13.333,77.467-34.711s27.823-48.578,34.711-77.467c7.245-30.355,14.711-61.733,40-87.155s56.8-32.889,87.155-40c28.845-6.889,56.133-13.333,77.467-34.711s27.823-48.578,34.711-77.467c7.245-30.355,14.711-61.733,40-87.155s56.8-32.889,87.155-40c28.845-6.845,56.133-13.333,77.467-34.711s27.823-48.578,34.711-77.467c7.244-30.355,14.711-61.733,40-87.155a123.954,123.954,0,0,1,44.8-28.089l7.245,19.066a102.637,102.637,0,0,0-37.645,23.423c-21.333,21.334-27.822,48.577-34.71,77.467-7.245,30.355-14.711,61.734-40,87.155s-56.8,32.89-87.155,40c-28.845,6.844-56.134,13.333-77.467,34.711s-27.823,48.578-34.711,77.467c-7.245,30.355-14.711,61.733-40,87.155s-56.8,32.89-87.155,40c-28.845,6.889-56.134,13.333-77.467,34.711S918.578,968.111,911.689,997c-7.245,30.355-14.711,61.733-40,87.155s-56.8,32.889-87.155,40c-28.845,6.889-56.134,13.333-77.467,34.711s-27.823,48.578-34.711,77.467c-7.245,30.355-14.711,61.734-40,87.155s-56.8,32.889-87.155,40c-28.845,6.889-56.134,13.333-77.467,34.71a102.532,102.532,0,0,0-23.423,37.689Zm478.934-.045a123.858,123.858,0,0,1,28.266-44.8c25.422-25.422,56.8-32.89,87.155-40,28.845-6.889,56.134-13.333,77.467-34.711s27.822-48.578,34.711-77.467c7.244-30.355,14.71-61.733,40-87.155s56.8-32.889,87.155-40c28.845-6.889,56.134-13.333,77.467-34.711s27.823-48.578,34.711-77.467c7.245-30.355,14.711-61.733,40-87.155a123.768,123.768,0,0,1,44.8-28.089l7.244,19.067a102.563,102.563,0,0,0-37.6,23.422c-21.333,21.333-27.822,48.622-34.711,77.467-7.244,30.355-14.71,61.733-40,87.155s-56.8,32.889-87.156,40c-28.844,6.889-56.133,13.333-77.467,34.711s-27.822,48.578-34.71,77.467c-7.245,30.355-14.711,61.733-40,87.155s-56.8,32.889-87.156,40c-28.844,6.889-56.133,13.333-77.467,34.71a102.626,102.626,0,0,0-23.644,37.645Zm402.355,1.022c1.644-6.134,3.111-12.311,4.444-18.534,7.245-30.355,14.711-61.733,40-87.155s56.8-32.889,87.155-40c6.179-1.466,12.4-2.933,18.534-4.444l5.244,19.733c-6.311,1.689-12.667,3.2-19.022,4.711-28.844,6.889-56.133,13.334-77.467,34.711s-27.822,48.578-34.711,77.467c-1.244,6.089-2.711,12.444-4.444,18.755Zm-478.844,0c1.644-6.134,3.111-12.311,4.444-18.489,7.245-30.355,14.711-61.734,40-87.156s56.8-32.889,87.155-40c28.844-6.889,56.134-13.333,77.467-34.711s27.823-48.578,34.711-77.467c7.245-30.356,14.711-61.734,40-87.156s56.8-32.889,87.155-40c28.844-6.889,56.134-13.333,77.467-34.711s27.823-48.578,34.711-77.467c7.244-30.355,14.711-61.734,40-87.156s56.8-32.889,87.155-40c6.178-1.467,12.4-2.933,18.534-4.444l5.244,19.733c-6.312,1.688-12.667,3.2-19.022,4.711-28.844,6.89-56.133,13.334-77.467,34.711s-27.823,48.578-34.711,77.467c-7.244,30.356-14.711,61.734-40,87.156s-56.8,32.889-87.156,40c-28.844,6.89-56.133,13.334-77.467,34.711s-27.823,48.578-34.711,77.467c-7.244,30.356-14.711,61.734-40,87.156s-56.8,32.889-87.156,40c-28.844,6.89-56.133,13.333-77.467,34.711s-27.823,48.622-34.711,77.467c-1.289,6.044-2.8,12.4-4.444,18.711Zm-478.889,0c1.644-6.134,3.111-12.311,4.444-18.489,7.245-30.355,14.711-61.734,40-87.2s56.8-32.889,87.155-40c28.845-6.89,56.134-13.333,77.467-34.711s27.823-48.578,34.711-77.467c7.245-30.356,14.711-61.734,40-87.156s56.8-32.889,87.155-40c28.845-6.89,56.134-13.333,77.467-34.711s27.823-48.578,34.711-77.467c7.245-30.356,14.711-61.734,40-87.156s56.8-32.889,87.155-40c28.845-6.844,56.134-13.333,77.467-34.711s27.823-48.578,34.711-77.467c7.245-30.356,14.711-61.734,40-87.156s56.8-32.889,87.155-40c28.845-6.889,56.134-13.333,77.467-34.711s27.823-48.577,34.711-77.467c7.245-30.356,14.711-61.734,40-87.156s56.8-32.889,87.155-40c6.178-1.467,12.4-2.933,18.534-4.444l5.244,19.733c-6.311,1.688-12.667,3.2-19.022,4.711-28.844,6.889-56.133,13.333-77.467,34.711s-27.823,48.578-34.711,77.467c-7.244,30.356-14.711,61.734-40,87.156s-56.8,32.889-87.156,40c-28.844,6.889-56.133,13.333-77.467,34.711s-27.823,48.578-34.711,77.467c-7.244,30.355-14.71,61.734-40,87.156s-56.8,32.889-87.156,40c-28.844,6.844-56.133,13.333-77.467,34.711s-27.822,48.578-34.711,77.467c-7.244,30.355-14.71,61.734-40,87.156s-56.8,32.889-87.156,40c-28.844,6.889-56.133,13.333-77.467,34.711s-27.822,48.578-34.711,77.467c-7.244,30.355-14.711,61.734-40,87.155s-56.8,32.89-87.156,40c-28.844,6.889-56.133,13.334-77.467,34.711s-27.822,48.622-34.711,77.467c-1.244,6.089-2.755,12.444-4.444,18.755Zm-246.311-21.378c6.312-1.689,12.667-3.2,19.022-4.711,28.844-6.845,56.133-13.333,77.467-34.711s27.823-48.578,34.711-77.467c7.244-30.356,14.711-61.734,40-87.156s56.8-32.889,87.156-40c28.844-6.89,56.133-13.333,77.467-34.711s27.823-48.578,34.711-77.467c7.244-30.356,14.711-61.734,40-87.156s56.8-32.889,87.156-40c28.844-6.889,56.133-13.333,77.467-34.711s28.133-48.578,34.889-77.645c7.245-30.355,14.711-61.733,40-87.155s56.8-32.89,87.155-40c28.845-6.889,56.134-13.333,77.467-34.711s27.823-48.578,34.711-77.467c7.245-30.355,14.711-61.733,40-87.155s56.8-32.889,87.155-40c28.845-6.889,56.134-13.333,77.467-34.711s27.823-48.578,34.711-77.467c7.245-30.355,14.711-61.733,40-87.155s56.8-32.889,87.155-40c28.845-6.844,56.134-13.333,77.467-34.711s27.823-48.577,34.711-77.467c1.511-6.355,3.022-12.755,4.711-19.021l19.733,5.244c-1.645,6.133-3.111,12.311-4.445,18.533-7.244,30.356-14.711,61.734-40,87.156s-56.8,32.889-87.155,40c-28.889,6.844-56.134,13.333-77.468,34.711s-27.822,48.577-34.71,77.467c-7.245,30.356-14.711,61.734-40,87.156s-56.8,32.889-87.155,40c-28.845,6.889-56.134,13.333-77.467,34.711s-27.822,48.578-34.71,77.467c-7.245,30.356-14.711,61.734-40,87.156s-56.8,32.889-87.155,40c-28.845,6.889-56.134,13.333-77.467,34.711s-28,48.444-34.8,77.467c-7.245,30.355-14.711,61.734-40,87.156s-56.8,32.889-87.155,40c-28.845,6.889-56.134,13.333-77.467,34.711s-27.823,48.578-34.711,77.467c-7.244,30.356-14.711,61.734-40,87.156s-56.8,32.889-87.155,40c-28.844,6.889-56.133,13.333-77.467,34.711s-27.823,48.578-34.711,77.467c-7.244,30.355-14.711,61.734-40,87.156s-56.8,32.889-87.155,40c-6.578,1.778-12.756,3.245-18.889,4.889Zm-1.156-75.822A102.748,102.748,0,0,0,139.066,1309c21.334-21.333,27.823-48.578,34.711-77.467,7.245-30.355,14.711-61.733,40-87.155s56.8-32.889,87.155-40c28.845-6.89,56.134-13.333,77.467-34.711s27.823-48.578,34.711-77.467c7.245-30.355,14.711-61.733,40-87.155s56.8-32.889,87.155-40c28.845-6.89,56.134-13.333,77.467-34.711s27.823-48.578,34.711-77.467c7.245-30.356,14.711-61.734,40-87.156s56.8-32.889,87.155-40c28.845-6.844,56.134-13.333,77.467-34.711s27.823-48.578,34.711-77.467c7.245-30.356,14.711-61.734,40-87.156s56.8-32.889,87.155-40c28.845-6.845,56.133-13.333,77.467-34.711s27.823-48.578,34.711-77.467c7.245-30.356,14.711-61.734,40-87.156s56.8-32.889,87.155-40c28.845-6.89,56.133-13.334,77.467-34.711a102.489,102.489,0,0,0,23.422-37.6l19.6,6.845a123.929,123.929,0,0,1-28.089,44.8c-25.422,25.422-56.8,32.889-87.156,40-28.844,6.889-56.133,13.333-77.467,34.711s-27.822,48.577-34.711,77.467c-7.244,30.356-14.71,61.734-40,87.156s-56.8,32.889-87.156,40c-28.844,6.845-56.133,13.334-77.467,34.711S918.889,489,912,517.889c-7.244,30.356-14.71,61.734-40,87.156s-56.8,32.889-87.156,40c-28.844,6.844-56.133,13.333-77.467,34.711s-27.822,48.578-34.711,77.467c-7.244,30.355-14.711,61.734-40,87.156s-56.8,32.889-87.156,40c-28.844,6.889-56.133,13.333-77.467,34.711s-27.822,48.577-34.711,77.467c-7.244,30.355-14.711,61.734-40,87.155s-56.8,32.89-87.156,40c-28.844,6.889-56.133,13.333-77.467,34.711s-27.822,48.622-34.711,77.467c-7.244,30.355-14.711,61.734-40,87.155a123.9,123.9,0,0,1-45.333,28.444ZM96,1226.156c8.888-16.622,13.333-35.022,17.778-54.489,7.244-30.356,14.711-61.734,40-87.156s56.8-32.889,87.156-40c28.844-6.889,56.133-13.333,77.467-34.711s27.822-48.578,34.711-77.467c7.244-30.355,14.71-61.734,40-87.156s56.8-32.889,87.156-40c28.844-6.844,56.133-13.333,77.467-34.711s28-48.889,35.022-77.645c7.245-30.355,14.711-61.733,40-87.155s56.8-32.889,87.155-40c28.845-6.89,56.134-13.333,77.467-34.711s27.823-48.578,34.711-77.467c7.245-30.356,14.711-61.734,40-87.156s56.8-32.889,87.155-40c28.845-6.889,56.134-13.333,77.467-34.711s27.823-48.578,34.711-77.467c7.245-30.356,14.711-61.734,40-87.156s56.8-32.889,87.155-40c19.467-4.445,37.867-8.889,54.489-17.778l9.6,18.044c-18.622,9.644-39.155,14.533-59.155,19.245-28.845,6.889-56.134,13.333-77.467,34.711s-27.823,48.577-34.711,77.467c-7.245,30.355-14.711,61.733-40,87.155s-56.8,32.889-87.155,40c-28.845,6.889-56.134,13.333-77.467,34.711S858.889,429.134,852,458.023c-7.245,30.355-14.711,61.733-40,87.155s-56.8,32.889-87.155,40c-28.845,6.889-56.134,13.333-77.467,34.71s-27.823,48.578-34.711,77.467c-7.245,30.356-14.711,61.734-40,87.156s-56.8,32.889-87.155,40c-28.845,6.844-56.134,13.333-77.467,34.711s-27.956,49.022-34.844,77.734c-7.245,30.355-14.711,61.733-40,87.155s-56.8,32.89-87.155,40c-28.845,6.889-56.134,13.333-77.467,34.711s-27.823,48.578-34.711,77.467c-4.845,20-9.733,40.533-19.822,59.467Zm2.222-205.333c24.711-22.222,54.4-29.422,83.11-36.311S237.467,971.177,258.8,949.8s27.822-48.578,34.71-77.467c7.245-30.355,14.711-61.733,40-87.155s56.8-32.889,87.155-40c28.845-6.889,56.134-13.333,77.467-34.711s27.822-48.578,34.71-77.467c7.245-30.355,14.711-61.733,40-87.155s56.8-32.889,87.155-40c28.845-6.889,56.134-13.333,77.467-34.71s27.823-48.578,34.711-77.467c7.245-30.355,14.711-61.733,40-87.155s56.8-32.889,87.155-40c28.845-6.889,56.134-13.333,77.467-34.711s27.823-48.578,34.711-77.467,14.223-58.712,36.445-83.378l15.111,13.688c-18.844,20.8-25.022,46.712-31.556,74.134-7.244,30.355-14.711,61.733-40,87.155s-56.8,32.89-87.156,40c-28.844,6.889-56.133,13.334-77.467,34.711s-27.822,48.755-34.666,77.6c-7.244,30.355-14.711,61.733-40,87.155s-56.8,32.89-87.156,40c-28.844,6.889-56.133,13.333-77.467,34.711s-27.823,48.578-34.711,77.467c-7.156,30.667-14.845,61.778-40.222,87.244s-56.8,32.889-87.156,40c-28.844,6.889-56.133,13.333-77.467,34.711s-27.823,48.712-34.711,77.6c-7.244,30.355-14.711,61.733-40,87.155s-56.8,32.889-87.156,40c-27.555,6.622-53.466,12.8-74.266,31.644Zm4.222-91.422c6.312-1.689,12.667-3.2,19.022-4.711,28.844-6.889,56.133-13.333,77.467-34.711s27.823-48.577,34.711-77.467c7.244-30.355,14.711-61.733,40-87.155s56.8-32.89,87.156-40c28.844-6.889,56.133-13.333,77.467-34.711s27.823-48.578,34.711-77.467c7.289-30.444,14.978-61.822,40.178-87.155s56.8-32.89,87.155-40c28.845-6.844,56.134-13.333,77.467-34.711s27.823-48.578,34.711-77.467c7.245-30.355,14.711-61.733,40-87.155s56.8-32.889,87.155-40c28.845-6.844,56.134-13.333,77.467-34.711s27.823-48.577,34.711-77.467c1.511-6.355,3.022-12.711,4.711-19.021l19.733,5.244c-1.644,6.133-3.111,12.311-4.445,18.533-7.244,30.356-14.711,61.734-40,87.156s-56.8,32.889-87.155,40c-28.845,6.844-56.134,13.333-77.467,34.711s-28,48.4-34.8,77.244c-7.245,30.356-14.711,61.734-40,87.156s-56.8,32.889-87.155,40c-28.845,6.845-56.134,13.333-77.467,34.711s-27.823,48.578-34.711,77.467c-7.244,30.356-14.711,61.734-40,87.156s-56.8,32.889-87.155,40c-28.844,6.889-56.133,13.333-77.467,34.711s-28.089,48.667-34.978,77.689c-7.245,30.356-14.711,61.734-40,87.156s-56.8,32.889-87.155,40c-6.312,1.6-12.489,3.066-18.623,4.711Zm-1.156-75.867a102.8,102.8,0,0,0,37.778-23.422c21.333-21.334,27.822-48.578,34.71-77.467,7.245-30.356,14.711-61.734,40-87.156s56.8-32.889,87.155-40c28.845-6.844,56.134-13.333,77.467-34.711s27.823-48.578,34.711-77.467c7.245-30.356,14.711-61.734,40-87.156s56.8-32.889,87.155-40c28.845-6.845,56.134-13.334,77.467-34.711s27.823-48.578,34.711-77.467c7.245-30.356,14.711-61.734,40-87.156s56.8-32.889,87.155-40c28.845-6.889,56.134-13.333,77.467-34.711a102.619,102.619,0,0,0,23.422-37.6l19.378,7.067a123.908,123.908,0,0,1-28.089,44.844c-25.422,25.422-56.8,32.889-87.156,40-28.844,6.889-56.133,13.333-77.467,34.71s-27.822,48.578-34.711,77.467c-7.244,30.355-14.711,61.733-40,87.155s-56.8,32.889-87.156,40c-28.844,6.845-56.133,13.334-77.467,34.711S440,489.045,433.112,517.933c-7.245,30.356-14.711,61.734-40,87.156s-56.8,32.889-87.155,40c-28.845,6.845-56.134,13.333-77.467,34.711s-27.822,48.578-34.71,77.467c-7.245,30.356-14.711,61.734-40,87.156a123.945,123.945,0,0,1-45.111,28.266ZM96,747.311c8.888-16.623,13.333-35.023,17.778-54.534,7.244-30.355,14.711-61.734,40-87.155s56.8-32.89,87.156-40c28.844-6.889,56.133-13.333,77.467-34.711s27.822-48.577,34.711-77.467c7.244-30.355,14.71-61.733,40-87.155s56.8-32.89,87.156-40c28.844-6.889,56.133-13.333,77.467-34.711S585.555,243,592.445,214.111c7.244-30.355,14.711-61.733,40-87.155s56.8-32.89,87.156-40c19.466-4.444,37.867-8.888,54.489-17.778l9.6,18.045c-18.933,10.088-39.467,14.977-59.378,19.688-28.844,6.889-56.133,13.333-77.467,34.711s-27.823,48.577-34.711,77.467c-7.244,30.355-14.711,61.734-40,87.156s-56.8,32.889-87.156,40c-28.489,6.445-55.733,13.067-77.022,34.4s-27.823,48.578-34.711,77.467c-7.244,30.356-14.711,61.734-40,87.156s-56.8,32.889-87.156,40c-28.844,6.89-56.133,13.333-77.467,34.711s-28,48.712-34.844,77.556c-4.756,19.867-9.644,40.444-19.733,59.378Zm2.222-205.289c24.666-22.444,54.355-29.334,83.066-36.356s56.133-13.333,77.467-34.711,27.823-48.577,34.711-77.467c7.244-30.355,14.711-61.734,40-87.156s56.8-32.889,87.155-40c28.844-6.889,56.089-13.333,77.467-34.711s27.823-48.577,34.711-77.467,13.911-58.444,36.311-83.111l15.111,13.689c-18.756,20.756-24.934,46.667-31.467,74.089-7.023,30.356-14.711,61.734-40.089,87.2s-56.8,32.889-87.156,40c-28.844,6.889-56.133,13.333-77.467,34.711s-27.823,48.578-34.711,77.467c-7.244,30.356-14.711,61.734-40,87.156s-56.8,32.889-87.156,40c-27.555,6.711-53.466,12.889-74.266,31.778Zm4.222-91.555c6.312-1.689,12.667-3.2,19.022-4.711,28.711-6.845,56.133-13.333,77.6-34.667s27.823-48.577,34.711-77.467c7.244-30.355,14.711-61.733,40-87.155s56.8-32.889,87.155-40c28.844-6.844,56.133-13.333,77.467-34.71s27.778-48.667,34.667-77.556c1.511-6.356,3.022-12.712,4.711-19.022l19.733,5.244c-1.644,6.133-3.111,12.311-4.444,18.534-7.244,30.355-14.711,61.733-40,87.155s-56.8,32.889-87.155,40c-28.844,6.844-56.133,13.333-77.467,34.71s-27.823,48.578-34.711,77.467c-7.244,30.355-14.711,61.733-40,87.155s-56.8,32.889-87.155,40c-6.578,1.688-12.756,3.155-18.889,4.8Zm-1.156-75.778a102.75,102.75,0,0,0,37.778-23.422c21.333-21.333,27.822-48.578,34.71-77.467,7.245-30.355,14.711-61.733,40-87.155s56.8-32.889,87.155-40c28.845-6.889,56.134-13.334,77.467-34.711a102.662,102.662,0,0,0,23.423-37.6l19.2,7.244a123.865,123.865,0,0,1-28.088,44.667c-25.422,25.422-56.8,32.889-87.2,40.133-28.845,6.889-56.134,13.333-77.467,34.711s-27.823,48.622-34.711,77.467c-7.245,30.356-14.711,61.734-40,87.156a123.9,123.9,0,0,1-44.888,28.044ZM96.044,268.244c8.889-16.622,13.333-35.022,17.778-54.489,7.289-29.956,14.8-61.555,40.223-86.978s56.8-32.889,87.155-40c19.467-4.445,37.867-8.889,54.489-17.778l9.6,18.044c-18.978,9.867-39.556,14.756-59.378,19.467-29.067,6.889-56.134,13.378-77.467,34.711s-27.823,48.577-34.667,77.467c-4.756,19.867-9.644,40.4-19.733,59.333Z" transform="translate(-237.289 -184)"/>
</svg>
