<svg xmlns="http://www.w3.org/2000/svg" xmlns:xlink="http://www.w3.org/1999/xlink" xmlns:fi="http://triangle.mx/" x="0" y="0" width="2000" height="1000" viewBox="0 0 1400 700"><rect x="0px" y="0px" width="100%" height="100%" opacity="1" fill="#ffffff"/><defs><g transform="matrix(3.0208310813694212 -0.9424992474262106 0.9424992474262106 3.0208310813694212 40.100090136131044 53.65004498170369)" id="L1_171"><path d="M55.502,1.5H4.498C2.018,1.5,0,3.518,0,5.999V38.5v4.501c0,2.48,2.018,4.499,4.498,4.499h17.856    c0.142,1.752-0.618,3.482-2.023,4.472l-1.801,1.27c-0.115,0.08-0.211,0.177-0.29,0.285C16.985,53.658,16,54.711,16,56    c0,1.378,1.121,2.5,2.5,2.5h23c1.379,0,2.5-1.122,2.5-2.5c0-1.289-0.984-2.341-2.239-2.474c-0.078-0.106-0.173-0.202-0.285-0.281    l-1.804-1.271c-1.406-0.991-2.167-2.721-2.025-4.474h17.855c2.48,0,4.498-2.018,4.498-4.499V38.5V5.999    C60,3.518,57.982,1.5,55.502,1.5z M2,5.999C2,4.621,3.121,3.5,4.498,3.5h51.004C56.879,3.5,58,4.621,58,5.999V36.5H2V5.999z     M41.5,56.5h-23c-0.271,0-0.5-0.229-0.5-0.5s0.229-0.5,0.5-0.5h0.726h21.548H41.5c0.271,0,0.5,0.229,0.5,0.5    S41.771,56.5,41.5,56.5z M35.642,47.502c-0.133,2.329,0.883,4.617,2.729,5.998h-16.74c1.846-1.381,2.862-3.67,2.729-6    L35.642,47.502z M58,43.001c0,1.378-1.121,2.499-2.498,2.499H38.058H21.943H4.498C3.121,45.5,2,44.379,2,43.001V38.5h56V43.001z"/><path d="M5,11.5c0.256,0,0.512-0.098,0.707-0.293l4-4c0.391-0.391,0.391-1.023,0-1.414s-1.023-0.391-1.414,0l-4,4    c-0.391,0.391-0.391,1.023,0,1.414C4.488,11.402,4.744,11.5,5,11.5z"/><path d="M5,16.5c0.256,0,0.512-0.098,0.707-0.293l2-2c0.391-0.391,0.391-1.023,0-1.414s-1.023-0.391-1.414,0l-2,2    c-0.391,0.391-0.391,1.023,0,1.414C4.488,16.402,4.744,16.5,5,16.5z"/><path d="M8.29,10.79C8.109,10.98,8,11.24,8,11.5s0.109,0.52,0.29,0.71C8.479,12.39,8.729,12.5,9,12.5c0.26,0,0.52-0.11,0.71-0.29    C9.89,12.02,10,11.76,10,11.5s-0.11-0.52-0.29-0.71C9.33,10.42,8.67,10.42,8.29,10.79z"/><path d="M10.293,10.207C10.488,10.402,10.744,10.5,11,10.5s0.512-0.098,0.707-0.293l3-3c0.391-0.391,0.391-1.023,0-1.414    s-1.023-0.391-1.414,0l-3,3C9.902,9.184,9.902,9.816,10.293,10.207z"/><path d="M13.293,10.793l-9,9c-0.391,0.391-0.391,1.023,0,1.414C4.488,21.402,4.744,21.5,5,21.5s0.512-0.098,0.707-0.293l9-9    c0.391-0.391,0.391-1.023,0-1.414S13.684,10.402,13.293,10.793z"/><path d="M15.29,8.79C15.109,8.98,15,9.23,15,9.5s0.109,0.52,0.29,0.71c0.189,0.18,0.439,0.29,0.71,0.29    c0.27,0,0.52-0.11,0.71-0.29C16.89,10.02,17,9.77,17,9.5s-0.11-0.52-0.29-0.71C16.34,8.42,15.66,8.42,15.29,8.79z"/><path d="M18.293,5.793l-1,1c-0.391,0.391-0.391,1.023,0,1.414C17.488,8.402,17.744,8.5,18,8.5s0.512-0.098,0.707-0.293l1-1    c0.391-0.391,0.391-1.023,0-1.414S18.684,5.402,18.293,5.793z"/></g><g transform="matrix(2.154010473586475 0.6485192749724841 -0.6485192749724841 2.154010473586475 285.8352640415803 138.92410754323123)" id="L1_172"><path d="M12,23c0.256,0,0.512-0.098,0.707-0.293l4-4c0.391-0.391,0.391-1.023,0-1.414s-1.023-0.391-1.414,0l-4,4    c-0.391,0.391-0.391,1.023,0,1.414C11.488,22.902,11.744,23,12,23z"/><path d="M12,28c0.256,0,0.512-0.098,0.707-0.293l2-2c0.391-0.391,0.391-1.023,0-1.414s-1.023-0.391-1.414,0l-2,2    c-0.391,0.391-0.391,1.023,0,1.414C11.488,27.902,11.744,28,12,28z"/><path d="M15.29,22.29C15.109,22.48,15,22.74,15,23s0.109,0.52,0.29,0.71C15.479,23.89,15.74,24,16,24s0.52-0.11,0.71-0.29    C16.89,23.52,17,23.26,17,23s-0.11-0.52-0.29-0.71C16.34,21.92,15.649,21.93,15.29,22.29z"/><path d="M17.293,21.707C17.488,21.902,17.744,22,18,22s0.512-0.098,0.707-0.293l3-3c0.391-0.391,0.391-1.023,0-1.414    s-1.023-0.391-1.414,0l-3,3C16.902,20.684,16.902,21.316,17.293,21.707z"/><path d="M12,33c0.256,0,0.512-0.098,0.707-0.293l9-9c0.391-0.391,0.391-1.023,0-1.414s-1.023-0.391-1.414,0l-9,9    c-0.391,0.391-0.391,1.023,0,1.414C11.488,32.902,11.744,33,12,33z"/><path d="M22.29,21.71C22.479,21.89,22.74,22,23,22s0.52-0.11,0.71-0.29C23.89,21.52,24,21.26,24,21c0-0.27-0.11-0.52-0.29-0.71    c-0.37-0.37-1.04-0.37-1.42,0C22.109,20.48,22,20.74,22,21S22.109,21.52,22.29,21.71z"/><path d="M25,20c0.256,0,0.512-0.098,0.707-0.293l1-1c0.391-0.391,0.391-1.023,0-1.414s-1.023-0.391-1.414,0l-1,1    c-0.391,0.391-0.391,1.023,0,1.414C24.488,19.902,24.744,20,25,20z"/><path d="M58.422,45H57V13.067C57,10.824,55.176,9,52.934,9H7.066C4.824,9,3,10.824,3,13.067V45H1.578C0.708,45,0,45.708,0,46.578    v2.844C0,50.292,0.708,51,1.578,51h56.844C59.292,51,60,50.292,60,49.422v-2.844C60,45.708,59.292,45,58.422,45z M5,13.067    C5,11.927,5.927,11,7.066,11h45.867C54.073,11,55,11.927,55,13.067V45H35.203l-0.237,0.663C34.905,45.831,34.738,46,34.5,46h-8    c-0.238,0-0.405-0.169-0.466-0.337L25.797,45H5V13.067z M58,49H2v-2h1h21.509c0.464,0.617,1.198,1,1.991,1h8    c0.793,0,1.527-0.383,1.991-1H57h1V49z"/><path d="M54,12H6v32h48V12z M52,42H8V14h44V42z"/></g><g transform="matrix(1.4972167192776396 -0.5758526083393025 0.5758526083393025 1.4972167192776396 157.80792017149173 245.3590766718499)" id="L1_173"><path d="M17.5,15c0.256,0,0.512-0.098,0.707-0.293l4-4c0.391-0.391,0.391-1.023,0-1.414s-1.023-0.391-1.414,0l-4,4    c-0.391,0.391-0.391,1.023,0,1.414C16.989,14.902,17.244,15,17.5,15z"/><path d="M17.5,20c0.256,0,0.512-0.098,0.707-0.293l2-2c0.391-0.391,0.391-1.023,0-1.414s-1.023-0.391-1.414,0l-2,2    c-0.391,0.391-0.391,1.023,0,1.414C16.989,19.902,17.244,20,17.5,20z"/><path d="M20.791,14.29c-0.18,0.189-0.29,0.45-0.29,0.71s0.11,0.52,0.29,0.71C20.98,15.89,21.24,16,21.5,16s0.52-0.11,0.71-0.29    c0.18-0.19,0.29-0.45,0.29-0.71c0-0.271-0.11-0.521-0.29-0.71C21.84,13.92,21.17,13.92,20.791,14.29z"/><path d="M22.793,13.707C22.989,13.902,23.244,14,23.5,14s0.512-0.098,0.707-0.293l3-3c0.391-0.391,0.391-1.023,0-1.414    s-1.023-0.391-1.414,0l-3,3C22.403,12.684,22.403,13.316,22.793,13.707z"/><path d="M25.793,14.293l-9,9c-0.391,0.391-0.391,1.023,0,1.414C16.989,24.902,17.244,25,17.5,25s0.512-0.098,0.707-0.293l9-9    c0.391-0.391,0.391-1.023,0-1.414S26.184,13.902,25.793,14.293z"/><path d="M27.791,12.29c-0.18,0.189-0.29,0.439-0.29,0.71c0,0.26,0.11,0.52,0.29,0.71C27.98,13.89,28.24,14,28.5,14    s0.52-0.11,0.71-0.29c0.18-0.19,0.29-0.45,0.29-0.71c0-0.271-0.11-0.521-0.29-0.7C28.84,11.92,28.16,11.92,27.791,12.29z"/><path d="M30.793,9.293l-1,1c-0.391,0.391-0.391,1.023,0,1.414C29.989,11.902,30.244,12,30.5,12s0.512-0.098,0.707-0.293l1-1    c0.391-0.391,0.391-1.023,0-1.414S31.184,8.902,30.793,9.293z"/><path d="M43.54,0H17.462C15.278,0,13.5,1.777,13.5,3.962V6v3c-0.552,0-1,0.447-1,1v1c0,0.553,0.448,1,1,1v1c-0.552,0-1,0.447-1,1    v1c0,0.553,0.448,1,1,1v1c-0.552,0-1,0.447-1,1v1c0,0.553,0.448,1,1,1v32v4.038c0,2.185,1.777,3.962,3.961,3.962h26.077    c2.185,0,3.961-1.777,3.961-3.962V52V6V3.962C47.5,1.777,45.723,0,43.54,0z M30.5,57c-1.103,0-2-0.897-2-2s0.897-2,2-2    s2,0.897,2,2S31.604,57,30.5,57z M15.5,8h30v42h-30V8z M15.5,56.038V52h12.382c-0.84,0.734-1.382,1.799-1.382,3    s0.542,2.266,1.382,3H17.462C16.38,58,15.5,57.12,15.5,56.038z M45.5,56.038C45.5,57.12,44.62,58,43.54,58H33.118    c0.84-0.734,1.382-1.799,1.382-3s-0.542-2.266-1.382-3H45.5V56.038z M15.5,6V3.962C15.5,2.88,16.38,2,17.462,2h26.077    C44.62,2,45.5,2.88,45.5,3.962V6H15.5z"/><path d="M34.5,3h-5c-0.552,0-1,0.447-1,1s0.448,1,1,1h5c0.552,0,1-0.447,1-1S35.052,3,34.5,3z"/><path d="M26.5,3h-1c-0.552,0-1,0.447-1,1s0.448,1,1,1h1c0.552,0,1-0.447,1-1S27.052,3,26.5,3z"/></g><g transform="matrix(0.8697953530935574 0.44892662961824864 -0.44892662961824864 0.8697953530935574 302.1499756599477 277.37373052955843)" id="L1_174"><path d="M47.521,25H46v-9.706C46,12.375,43.625,10,40.706,10h-0.127l-0.685-1.193c-0.642-1.119-0.981-2.368-0.981-3.613    C38.912,2.33,36.306,0,33.101,0H22.899c-3.205,0-5.813,2.33-5.813,5.193c0,1.245-0.34,2.494-0.981,3.613L15.42,10h-0.127    C12.375,10,10,12.375,10,15.294v29.412C10,47.625,12.375,50,15.293,50h0.127l0.685,1.193c0.642,1.119,0.981,2.368,0.981,3.613    c0,2.863,2.607,5.193,5.813,5.193H33.1c3.205,0,5.813-2.33,5.813-5.193c0-1.245,0.34-2.494,0.981-3.613L40.578,50h0.127    C43.625,50,46,47.625,46,44.706V35h1.521C48.888,35,50,33.888,50,32.521v-5.043C50,26.112,48.888,25,47.521,25z M17.84,9.803    c0.815-1.422,1.247-3.016,1.247-4.609c0-1.761,1.71-3.193,3.813-3.193H33.1c2.103,0,3.813,1.433,3.813,3.193    c0,1.594,0.432,3.188,1.247,4.609L38.272,10H17.726L17.84,9.803z M38.16,50.197c-0.815,1.422-1.247,3.016-1.247,4.609    c0,1.761-1.71,3.193-3.813,3.193H22.899c-2.103,0-3.813-1.433-3.813-3.193c0-1.594-0.432-3.188-1.247-4.609L17.726,50h20.547    L38.16,50.197z M44,44.706C44,46.522,42.521,48,40.706,48H15.293C13.477,48,12,46.522,12,44.706V15.294    C12,13.478,13.477,12,15.293,12h25.412C42.521,12,44,13.478,44,15.294V25v10V44.706z M48,32.521C48,32.785,47.785,33,47.521,33H46    v-6h1.521C47.785,27,48,27.215,48,27.479V32.521z"/><path d="M16,21c0.256,0,0.512-0.098,0.707-0.293l4-4c0.391-0.391,0.391-1.023,0-1.414s-1.023-0.391-1.414,0l-4,4    c-0.391,0.391-0.391,1.023,0,1.414C15.488,20.902,15.744,21,16,21z"/><path d="M16,26c0.256,0,0.512-0.098,0.707-0.293l2-2c0.391-0.391,0.391-1.023,0-1.414s-1.023-0.391-1.414,0l-2,2    c-0.391,0.391-0.391,1.023,0,1.414C15.488,25.902,15.744,26,16,26z"/><path d="M19.29,20.29C19.108,20.479,19,20.729,19,21c0,0.27,0.109,0.52,0.29,0.7C19.479,21.89,19.729,22,20,22    c0.27,0,0.52-0.11,0.71-0.29C20.889,21.52,21,21.26,21,21s-0.11-0.521-0.29-0.71C20.33,19.92,19.66,19.92,19.29,20.29z"/><path d="M21.292,19.707C21.488,19.902,21.743,20,22,20s0.512-0.098,0.707-0.293l3-3c0.391-0.391,0.391-1.023,0-1.414    s-1.023-0.391-1.414,0l-3,3C20.902,18.684,20.902,19.316,21.292,19.707z"/><path d="M24.292,20.293l-9,9c-0.391,0.391-0.391,1.023,0,1.414C15.488,30.902,15.744,31,16,31c0.256,0,0.512-0.098,0.707-0.293    l9-9c0.391-0.391,0.391-1.023,0-1.414S24.684,19.902,24.292,20.293z"/><path d="M26.299,18.29C26.108,18.47,26,18.729,26,19c0,0.27,0.109,0.52,0.29,0.71C26.479,19.89,26.74,20,27,20    s0.52-0.11,0.71-0.29C27.889,19.52,28,19.26,28,19s-0.11-0.521-0.29-0.71C27.33,17.92,26.66,17.92,26.299,18.29z"/><path d="M29.292,15.293l-1,1c-0.391,0.391-0.391,1.023,0,1.414C28.488,17.902,28.743,18,29,18s0.512-0.098,0.707-0.293l1-1    c0.391-0.391,0.391-1.023,0-1.414S29.684,14.902,29.292,15.293z"/></g></defs><g fi:class="KUsePattern"><pattern id="pattern_L1_171" width="350" height="350" patternUnits="userSpaceOnUse"><use xlink:href="#L1_171" x="-350" y="-350"/><use xlink:href="#L1_171" x="0" y="-350"/><use xlink:href="#L1_171" x="350" y="-350"/><use xlink:href="#L1_171" x="-350" y="0"/><use xlink:href="#L1_171" x="0" y="0"/><use xlink:href="#L1_171" x="350" y="0"/><use xlink:href="#L1_171" x="-350" y="350"/><use xlink:href="#L1_171" x="0" y="350"/><use xlink:href="#L1_171" x="350" y="350"/></pattern><rect x="0" y="0" width="100%" height="100%" fill="url(#pattern_L1_171)"/></g><g fi:class="KUsePattern"><pattern id="pattern_L1_172" width="350" height="350" patternUnits="userSpaceOnUse"><use xlink:href="#L1_172" x="-350" y="-350"/><use xlink:href="#L1_172" x="0" y="-350"/><use xlink:href="#L1_172" x="350" y="-350"/><use xlink:href="#L1_172" x="-350" y="0"/><use xlink:href="#L1_172" x="0" y="0"/><use xlink:href="#L1_172" x="350" y="0"/><use xlink:href="#L1_172" x="-350" y="350"/><use xlink:href="#L1_172" x="0" y="350"/><use xlink:href="#L1_172" x="350" y="350"/></pattern><rect x="0" y="0" width="100%" height="100%" fill="url(#pattern_L1_172)"/></g><g fi:class="KUsePattern"><pattern id="pattern_L1_173" width="350" height="350" patternUnits="userSpaceOnUse"><use xlink:href="#L1_173" x="-350" y="-350"/><use xlink:href="#L1_173" x="0" y="-350"/><use xlink:href="#L1_173" x="350" y="-350"/><use xlink:href="#L1_173" x="-350" y="0"/><use xlink:href="#L1_173" x="0" y="0"/><use xlink:href="#L1_173" x="350" y="0"/><use xlink:href="#L1_173" x="-350" y="350"/><use xlink:href="#L1_173" x="0" y="350"/><use xlink:href="#L1_173" x="350" y="350"/></pattern><rect x="0" y="0" width="100%" height="100%" fill="url(#pattern_L1_173)"/></g><g fi:class="KUsePattern"><pattern id="pattern_L1_174" width="350" height="350" patternUnits="userSpaceOnUse"><use xlink:href="#L1_174" x="-350" y="-350"/><use xlink:href="#L1_174" x="0" y="-350"/><use xlink:href="#L1_174" x="350" y="-350"/><use xlink:href="#L1_174" x="-350" y="0"/><use xlink:href="#L1_174" x="0" y="0"/><use xlink:href="#L1_174" x="350" y="0"/><use xlink:href="#L1_174" x="-350" y="350"/><use xlink:href="#L1_174" x="0" y="350"/><use xlink:href="#L1_174" x="350" y="350"/></pattern><rect x="0" y="0" width="100%" height="100%" fill="url(#pattern_L1_174)"/></g></svg>