<svg xmlns="http://www.w3.org/2000/svg" viewBox="324.231 146.175 99.144 258.369">
  <defs>
    <style>
      .cls-1 {
        fill: none;
        stroke: #ffb61e;
        stroke-miterlimit: 10;
        stroke-width: 1px;
      }
    </style>
  </defs>
  <g id="phoneOutline" transform="translate(324.231 146.206)">
    <g id="Móvil_2D" data-name="Móvil 2D" transform="translate(0.5 0.5)">
      <g id="Ángulo_derecho_-_Vertical" data-name="Ángulo derecho - Vertical">
        <g id="Plateado_Blanco" data-name="Plateado/Blanco">
          <path id="Path_253" data-name="Path 253" class="cls-1" d="M84.272,228.578,84.3,66.042,4.607,20.31,4.58,182.859Z" transform="translate(0.916 6.375)"/>
          <path id="Path_254" data-name="Path 254" class="cls-1" d="M13.122,217.125A25.5,25.5,0,0,1,.5,195.384V12.993c0-9.12,5.24-11.477,12.622-7.274l67.339,38.8A25.513,25.513,0,0,1,91.238,65V247.434c0,9.079-5.24,11.477-12.622,7.234ZM85.715,71.805,6.023,26.073,6,188.648l79.692,45.732V71.845" transform="translate(-0.5 0.613)"/>
          <path id="Path_255" data-name="Path 255" class="cls-1" d="M3,5.605c2.236-1.347,5.388-.889,9.227,1.253L79.593,45.626c.377.269.741.552,1.1.835l.3.242.741.633.364.337.714.687.189.189q.458.458.889.956l.135.162q.431.485.835,1c.189.242.364.485.539.727l.364.485.418.633.4.606c.175.283.337.579.5.876l.256.445h0q.323.593.606,1.212l.067.148c.189.4.35.808.525,1.226l.108.3c.162.4.31.822.445,1.239h0c.148.445.269.889.391,1.347v.148c.108.4.189.808.269,1.212l.094.525q.081.445.148.9a1.412,1.412,0,0,0,.067.525,5.74,5.74,0,0,1,.094.97,2.389,2.389,0,0,1,0,.458v5.092l7.4-4.3V59.824a4.049,4.049,0,0,0-.094-.97c-.094-.323,0-.35-.067-.525a8.394,8.394,0,0,1-.148-.9l-.094-.525v-.31a3.664,3.664,0,0,0-.216-.9v-.148c-.121-.445-.242-.9-.391-1.347h0q-.135-.4-.269-.795l-.175-.445-.148-.283c-.148-.377-.31-.754-.471-1.132v-.094l-.067-.148q-.283-.606-.606-1.212h0l-.323-.418c-.162-.3-.323-.593-.5-.876h0l-.377-.579-.418-.647h0l-.391-.593c-.175-.242-.35-.485-.539-.727h0c-.256-.323-.525-.647-.795-.956l-.135-.162-.121-.148-.754-.808-.189-.189-.364-.364-.364-.323-.391-.364L88.4,42.3l-.3-.242h-.081q-.5-.4-1.024-.768L19.69,2.521C15.918.352,12.7-.066,10.463,1.241Z" transform="translate(0.368 -0.5)"/>
          <path id="Path_256" data-name="Path 256" class="cls-1" d="M76.083,177.45l-7.4,4.3v7.624a1.94,1.94,0,0,1-.081.62v.148a2.009,2.009,0,0,1-.135.727v.148q-.081.323-.162.62v.216q-.094.283-.189.552v.148l-.539.458v.135a5.332,5.332,0,0,1-.269.5l-.175.283-.094.148a5.939,5.939,0,0,1-.606.754l-.108.108-.229.216-.135.108-.216.175-.162.108-.269.175,7.4-4.351h.108l.162-.108.162-.108.216-.175.135-.108h0l.2-.189.108-.108.31-.35.3-.4.094-.135.175-.283h0q.135-.242.269-.5v-.135l.175-.4h0v-.108a5.707,5.707,0,0,0,.189-.552v-.216a6.242,6.242,0,0,0,.162-.62v-.108h0q.081-.35.135-.727v-.148a1.639,1.639,0,0,1,.081-.62c.081-.2,0-.189,0-.283v-1.953Z" transform="translate(21.996 60.911)"/>
          <path id="Path_257" data-name="Path 257" class="cls-1" d="M75.219,51.45l-7.409,4.3V221.785l7.409-4.3Z" transform="translate(22.86 17.183)"/>
          <path id="Path_258" data-name="Path 258" class="cls-1" d="M67.81,181.591V177.9h0v3.691Z" transform="translate(22.86 61.068)"/>
          <path id="Path_259" data-name="Path 259" class="cls-1" d="M75.219,178.4l-7.409,4.3v-3.691l7.409-4.3Z" transform="translate(22.86 59.961)"/>
          <path id="Path_260" data-name="Path 260" class="cls-1" d="M67.81,56.7l7.409-4.3V48.71l-7.409,4.3Z" transform="translate(22.86 16.232)"/>
          <path id="Path_261" data-name="Path 261" class="cls-1" d="M69.8,72.34v-.3h0v-.31h0v-.4l.081-.162h0V71.02h.633l.889.512h-.822l-.256.175h0l-.242.216h0l-.216.256h0l-.175.283h0a2.977,2.977,0,0,0-.269.62h0a2.452,2.452,0,0,0-.067.31h0a1.969,1.969,0,0,0,0,.31V83.79a1.456,1.456,0,0,0,0,.283h0a1.024,1.024,0,0,0,.067.229h0a.755.755,0,0,0,.121.175h0a.62.62,0,0,0,.162.121l-.889-.512H68.72v-.229h0V73.5Z" transform="translate(23.176 23.975)"/>
          <path id="Path_262" data-name="Path 262" class="cls-1" d="M70.18,72.983a2.8,2.8,0,0,1,1.266-2.209c.7-.4,1.266-.067,1.266.741V81.6a2.8,2.8,0,0,1-1.266,2.209c-.7.4-1.266.067-1.266-.741Z" transform="translate(23.683 23.83)"/>
          <path id="Path_263" data-name="Path 263" class="cls-1" d="M41.63,32.426l-.162-.323-.242-.256-.256-.175L30.261,25.488l-.269-.135-.242-.013-.162.135-.067.256.067.337.162.323.229.256.269.175L40.956,33l.269.135.242.013.162-.121.067-.269-.067-.337" transform="translate(9.571 8.121)"/>
        </g>
      </g>
    </g>
  </g>
</svg>
