<svg xmlns="http://www.w3.org/2000/svg" viewBox="941.165 22.576 144.048 304.2">
  <defs>
    <style>
      .cls-1 {
        fill: none;
        stroke: #ffb61e;
        stroke-miterlimit: 10;
        stroke-width: 1px;
      }
    </style>
  </defs>
  <g id="tabletOutline" transform="translate(941.165 22.639)">
    <g id="Tabletas_2D" data-name="Tabletas 2D" transform="translate(0.5 0.503)">
      <g id="Ángulo_derecho_-_Vertical" data-name="Ángulo derecho - Vertical">
        <g id="Plateado_Blanco" data-name="Plateado/Blanco">
          <path id="Path_264" data-name="Path 264" class="cls-1" d="M83.848,60.817v-.152h0v-.152h0v-.169h0V60.26h.608l.507.287h-.372l-.152.1h0l-.135.118h0l-.118.152h0l-.1.152h0a1.688,1.688,0,0,0-.152.355h0a1.386,1.386,0,0,0,0,.169h0a1.116,1.116,0,0,0,0,.169v5.709a.826.826,0,0,0,0,.152h0a.574.574,0,0,0,0,.135h0v.1h.084l-.507-.287h0v-.084h0V60.834Z" transform="translate(56.689 40.666)"/>
          <path id="Path_265" data-name="Path 265" class="cls-1" d="M84,61.318a1.588,1.588,0,0,1,.709-1.25.451.451,0,0,1,.726.422V66.2a1.588,1.588,0,0,1-.709,1.25A.451.451,0,0,1,84,67.027Z" transform="translate(57.027 40.469)"/>
          <path id="Path_266" data-name="Path 266" class="cls-1" d="M83.848,66.107v-.152h0V65.8h0v-.169h0V65.55h.608l.507.287h-.372l-.152.1h0l-.135.118h0l-.118.152h0l-.1.152h0a1.688,1.688,0,0,0-.152.355h0a1.386,1.386,0,0,0,0,.169h0a1.116,1.116,0,0,0,0,.169v5.709a.826.826,0,0,0,0,.152h0a.574.574,0,0,0,0,.135h0v.1h.084l-.507-.287h0v-.084h0V66.107Z" transform="translate(56.689 44.311)"/>
          <path id="Path_267" data-name="Path 267" class="cls-1" d="M84,66.6a1.588,1.588,0,0,1,.709-1.25.451.451,0,0,1,.726.422v5.709a1.588,1.588,0,0,1-.709,1.25A.451.451,0,0,1,84,72.307Z" transform="translate(57.027 44.107)"/>
          <path id="Path_268" data-name="Path 268" class="cls-1" d="M136.407,302.886h-.084l.422-.287h0l.084-.118h0l.1-.135h0v-.1h0v-.084h0v-.1h0v-.1h0v-.1h0v-.118h0v-.22h0v-.186h0v-.169h0V88.1h0v-1h0V85.215l-.084-.287v-.236l-.1-.287.811-.3v-.118l-.152-.388h0l-.22-.524v-.118l-.118-.27-.152-.338-.1-.2-.169-.338-.1-.186-.169-.287-.118-.2-.287-.405-.1-.186-.169-.287-.2-.1-.2-.287-.118-.169-.253-.355v-.1l-.338-.439h0l-.3-.372-.135-.152-.338-.338V77.8l-.27-.287-.22-.169-.253-.253-.22-.22h0l-.338-.3h0l-.388-.372h-.1l-.236-.186-.169-.118-.236-.169-.152-.118-.27-.169-.135-.084-.388-.338L7.693,4.72A5.742,5.742,0,0,0,1.9,4.1l4.476-3.04A5.742,5.742,0,0,1,12.2,1.6L134.837,71.974l.405.236.135.084.27.169.152.118.236.169.169.118.152.118h.1l.287.236h0l.338.3h0l.152.135h0l.253.253.152.152.27.287.1.1h0l.236.27.135.152.3.372h0l.338.439v.1l.253.355h0l.1.169.2.287.118.2.169.27h0l.1.152.186.3.118.2.169.287h0v.135l.169.338.1.2.152.338v.388l.186.439h0l.152.388v.388l.1.287v.236l.084.287v1.875h0v.929h0V296.738h0v.236h0v.169h0v.186h0v.22h0v.118h0v.1h0v.1h0v.1h0v.084h0v.1h0l-.1.135h0l-.084.118h0L137,301.282h0Z" transform="translate(0.465 -0.503)"/>
          <path id="Path_269" data-name="Path 269" class="cls-1" d="M131.393,73.763A17.886,17.886,0,0,1,139.551,87.8v208.77c0,5.168-3.648,7.262-8.158,4.678L8.658,230.885A17.886,17.886,0,0,1,.5,216.85V8.08C.5,2.912,4.148.818,8.658,3.469ZM8.894,210.415l122.195,70.04V94.081L8.894,23.973V210.415M70,48.125a.542.542,0,0,0-.878.49,1.909,1.909,0,0,0,.878,1.5.545.545,0,0,0,.878-.507,1.909,1.909,0,0,0-.878-1.5" transform="translate(-0.5 0.748)"/>
          <path id="Path_270" data-name="Path 270" class="cls-1" d="M42.008,29.484a.542.542,0,0,0-.878.49,1.909,1.909,0,0,0,.878,1.5.545.545,0,0,0,.878-.507,1.909,1.909,0,0,0-.878-1.5" transform="translate(27.492 19.389)"/>
          <path id="Path_271" data-name="Path 271" class="cls-1" d="M5.47,201.582l122.195,70.091V85.248L5.47,15.14V201.582" transform="translate(2.924 9.581)"/>
        </g>
      </g>
    </g>
  </g>
</svg>
